<?xml version="1.0" standalone="no"?>
<!DOCTYPE svg PUBLIC "-//W3C//DTD SVG 1.1//EN" "http://www.w3.org/Graphics/SVG/1.1/DTD/svg11.dtd" >
<svg xmlns="http://www.w3.org/2000/svg" xmlns:xlink="http://www.w3.org/1999/xlink" version="1.1">
<metadata>
Created by FontForge 20170731 at Mon Oct  4 23:48:06 2010
 By Aleksey,,,
Copyright (c) 2010 by Kimberly Geswein. All rights reserved.
</metadata>
<defs>
<font id="TheTruthofaThousandLies" horiz-adv-x="466" >
  <font-face 
    font-family="The Truth of a Thousand Lies"
    font-weight="400"
    font-stretch="normal"
    units-per-em="1000"
    panose-1="2 0 0 0 0 0 0 0 0 0"
    ascent="800"
    descent="-200"
    x-height="635"
    cap-height="838"
    bbox="-161 -594.25 1219 1295.35"
    underline-thickness="50"
    underline-position="-150"
    unicode-range="U+0020-FB02"
  />
<missing-glyph horiz-adv-x="500" 
 />
    <glyph glyph-name=".notdef" horiz-adv-x="500" 
 />
    <glyph glyph-name=".null" horiz-adv-x="0" 
 />
    <glyph glyph-name="nonmarkingreturn" horiz-adv-x="500" 
 />
    <glyph glyph-name="space" unicode=" " horiz-adv-x="500" 
 />
    <glyph glyph-name="space" unicode="&#xa0;" horiz-adv-x="500" 
 />
    <glyph glyph-name="exclam" unicode="!" horiz-adv-x="327" 
d="M103 27q-23 15 -32 43.5t-5 58.5t20 54.5t44 31.5q8 2 12.5 1.5t9 -2.5t9.5 -4.5t13 -3.5q2 0 10 0.5t17 0.5h17t10 -1q27 -9 40.5 -34t15 -55t-9.5 -59.5t-34 -46.5t-57.5 -16t-79.5 32zM40 287q2 12 5 36.5t6.5 55.5t7.5 65t7.5 65t6 55.5t3.5 36.5q4 46 0 86t-18 84
q-1 3 -6.5 15t-11.5 25.5t-11.5 25.5t-6.5 15q-2 5 10 11.5t32 13.5t45.5 13t50 10.5t45.5 6t32 -0.5q7 -5 6.5 -18.5t-4 -28t-7.5 -27.5t-4 -16q-6 -69 -7.5 -133.5t5.5 -127.5t24.5 -125t49.5 -125q6 -6 1.5 -9.5t-12 -5.5t-15.5 -2.5t-10 -0.5t-9 4.5t-9 4.5
q-24 2 -56.5 -5.5t-63.5 -14t-55 -6.5t-31 17z" />
    <glyph glyph-name="quotedbl" unicode="&#x22;" horiz-adv-x="587" 
d="M139 408q-2 3 12.5 15.5t33 30.5t34.5 39t18 40q0 5 0.5 18t0.5 27.5t-0.5 27t-0.5 17.5q-37 -39 -70.5 -49t-60.5 -2t-46 30t-28.5 49t-8 53.5t16.5 44.5q18 21 30.5 33t26 17.5t31.5 6t46 -2.5q6 -1 13 -6t13.5 -11t11.5 -11.5t7 -7.5q36 -43 50 -97t7 -107t-35 -99.5
t-76 -73.5q-4 -2 -8.5 0t-8 6t-6.5 7.5t-3 4.5zM426 471q-1 1 -1 4t1 5q28 31 50 60.5t33.5 61t11.5 67.5t-15 80q2 -19 0 -37t-9 -33t-20 -25t-33 -13q-43 -6 -71.5 5.5t-44.5 32.5t-20.5 48t1.5 53t21 47t38.5 30t53.5 1.5t66 -38.5q46 -39 61 -88t6.5 -99.5t-36.5 -97.5
t-67 -82q-13 -9 -18.5 0.5t-7.5 17.5z" />
    <glyph glyph-name="numbersign" unicode="#" horiz-adv-x="812" 
d="M117 9q-3 13 -1.5 29.5t6 33t11 31.5t11.5 27h-99q-8 0 -9.5 21.5t2.5 48t13 48t21 21.5h81v126q-14 2 -28.5 0.5t-29.5 -4t-29.5 -4.5t-29.5 -1q-3 2 -6 10.5t-3 18t3.5 17t14.5 7.5h99q7 0 8 7.5t-0.5 19.5t-3.5 26.5t-0.5 28.5t8 25.5t23.5 18.5q5 2 17.5 6t26.5 8
t27 7.5t19 5.5q22 5 29.5 -3t7.5 -21.5t-4.5 -29.5t-5.5 -27q0 -6 -0.5 -15t-0.5 -17.5t0.5 -15l0.5 -6.5l18 -9l126 18v90q0 6 6 8.5t13.5 2t14 -3.5t6.5 -7v-90h229q6 0 8.5 -6.5t2 -14t-3.5 -13.5t-7 -6h-198l-27 -13v-45q0 -6 1.5 -20t3 -29.5t3 -29.5t1.5 -20
q2 -12 19.5 -13t42 4.5t54 15.5t55.5 20l45.5 17.5t26.5 9.5q34 9 40.5 0.5t0 -23.5t-18.5 -32t-14 -26q-2 -6 -4.5 -22t-5 -34t-5 -34t-2.5 -22h-216q-1 -16 1 -32.5t5 -33t4.5 -33t-1.5 -31.5q-2 0 -7 -1t-11 -0.5t-11.5 2.5t-6.5 8l-18 108q0 1 -3.5 4.5t-5.5 4.5
q-15 6 -32.5 8.5t-35.5 3t-35 -0.5t-31 -2q-2 -15 0 -28t4.5 -26t4.5 -26.5t0 -27.5q-15 -3 -20 -2.5t-7.5 2.5t-7 4.5t-19.5 4.5q-18 2 -44.5 -6t-51.5 -16.5t-43.5 -12.5t-21.5 8zM45 265q3 0 3 -4.5t-3 -4.5q-4 0 -4 4.5t4 4.5zM287 323q0 -7 1.5 -18t3 -21t3 -17l1.5 -7
h161v9q-1 8 -3.5 28.5t-5 43.5t-5 43.5t-3.5 28.5q-17 1 -38 0t-42 -2.5t-40.5 -3.5t-32.5 -3q0 -5 -0.5 -16.5t-0.5 -24.5t0.5 -24.5t0.5 -15.5z" />
    <glyph glyph-name="dollar" unicode="$" horiz-adv-x="457" 
d="M170 54q-10 3 -11 17.5t1.5 32.5t6.5 34.5t3 22.5q-23 3 -52.5 17t-54 35t-39 47t-6.5 54q26 -4 40.5 -22t29 -38.5t34.5 -38t57 -18.5q7 8 12.5 29.5t9 48t5 55t1.5 53t-2.5 40t-7.5 16.5t-16 3.5t-24 5.5t-24.5 5.5t-15.5 3.5q-32 9 -47.5 32t-17.5 53t7 63.5
t25.5 63.5t39 52.5t46.5 31.5v153q0 2 3.5 5t5.5 4h6.5h11.5h11.5h6.5q5 1 19.5 9t31.5 17t33 15.5t24 3.5q2 -1 5.5 -4.5t3.5 -4.5v-242q54 -41 75 -76t22 -56.5t-11 -26.5t-23 15q-5 8 -9 18t-9 20t-11.5 19t-15.5 15q-2 -7 -5.5 -19t-12.5 -17v-144q43 -30 61 -55.5
t20 -49.5t-7 -48t-20.5 -50t-20.5 -55t-6 -64q0 -5 4 -17.5t8.5 -28.5t8.5 -33t4.5 -30.5t-3 -21t-13.5 -4.5zM332 386q0 -7 1.5 -25t3 -38t3 -38t1.5 -25q9 -9 17 3.5t11.5 34.5t1.5 47.5t-12 40.5l-3 4t-7 8t-8.5 6.5t-8.5 -0.5v-18zM126 493q14 -9 35.5 -10t35.5 1
q2 25 1 53.5t-4 57t-7 56t-8 49.5q-10 5 -24 -4.5t-27 -27.5t-23 -42.5t-12.5 -49t5 -47t28.5 -36.5z" />
    <glyph glyph-name="percent" unicode="%" horiz-adv-x="534" 
d="M161 18q-14 19 -34.5 29t-40.5 16t-37 11t-24 14.5t-1.5 26t30.5 46.5l305 619q12 25 27 33.5t33 7.5t38.5 -6.5t44.5 -7.5q4 -5 9 -16.5t0 -19.5l-45 -71l-215 -485l-63 -206l-9 -9l-9 9zM341 170q-16 24 -11 52t23.5 44.5t46.5 14t57 -38.5q11 -30 1 -55t-30 -37.5
t-44.5 -9.5t-42.5 30zM377 215q-1 -4 -1 -17.5t1 -18.5q9 -5 16.5 -3t14.5 6.5t12.5 11t10.5 12.5q3 4 -2 9.5t-12 10.5t-14 9.5t-8 6.5q-6 -4 -11.5 -12.5t-6.5 -14.5zM72 592q-14 21 -19 44t10 46q24 36 48.5 44t44 -2t31 -32t9.5 -46t-20.5 -44.5t-58.5 -27.5
q-19 -3 -27 -0.5t-18 18.5zM99 619q1 -2 4 -5t5 -4q6 3 16 9.5t19.5 15t15 18.5t2.5 20q-13 4 -30.5 1t-22.5 -19l-9 9q-9 -14 -9 -22.5t9 -22.5z" />
    <glyph glyph-name="ampersand" unicode="&#x26;" horiz-adv-x="453" 
d="M103 9q-28 9 -40.5 26.5t-15 39.5t2.5 46.5t10.5 49.5t8.5 48t-2 41q-9 30 -19.5 58t-16.5 56t-5.5 57.5t14.5 61.5q8 19 33.5 34t55 20t55.5 -2.5t35 -33.5q1 -2 1 -7.5v-13v-14.5t-1 -10q-2 -12 -12 -33.5t-18.5 -45t-12 -46t6.5 -36.5q6 -8 21 -28.5t32.5 -43.5
t33 -43.5t21.5 -28.5q2 -2 9 -2t9 2q6 6 4.5 22t-1.5 28.5t8 16.5t34 -13q11 -7 10.5 -20t-5.5 -26.5t-12.5 -25.5t-10.5 -17q1 -2 4 -5.5t5 -3.5q4 -3 14.5 -9.5t21.5 -13.5t21.5 -13.5t14.5 -8.5v-18q-3 -1 -11 -3.5t-16.5 -5.5t-16 -5.5l-10.5 -3.5q-31 -14 -45 -15
t-22.5 2.5t-15.5 8.5t-25 4q-24 -2 -39.5 -10.5t-30.5 -15.5t-33.5 -9t-48.5 8zM112 45q1 -2 4 -5t5 -4q16 -2 29.5 -2.5t25.5 1.5t23 8.5t20 19.5q-9 9 -24 22.5t-30.5 29.5t-29.5 32.5t-23 31.5h-9q-1 0 -2 -5t-2.5 -12t-3 -14.5t-1.5 -12.5q-2 -18 -2.5 -29t1 -20t6 -18
t13.5 -23zM139 466q0 -3 -0.5 -10.5t-0.5 -16t0.5 -16t0.5 -10.5h9l2.5 6t5 14.5t5.5 17.5l5 15q2 7 0.5 15.5t-9.5 11.5q-6 -4 -11.5 -12.5t-6.5 -14.5z" />
    <glyph glyph-name="quotesingle" unicode="'" horiz-adv-x="283" 
d="M132 469q-1 1 -1 4t1 5q28 31 50 60.5t33.5 61t11.5 67.5t-15 80q2 -19 0 -37t-9 -33t-20 -25t-33 -13q-43 -6 -71.5 5.5t-44.5 32.5t-20.5 48t1.5 53t21 47t38.5 30t53.5 1.5t66 -38.5q46 -39 61 -88t6.5 -99.5t-36.5 -97.5t-67 -82q-13 -9 -18.5 0.5t-7.5 17.5z" />
    <glyph glyph-name="parenleft" unicode="(" horiz-adv-x="323" 
d="M264 9q-72 29 -129.5 76.5t-88.5 108.5t-30.5 132.5t42.5 148.5q15 21 30.5 49t33.5 53t41.5 42.5t55.5 17.5q19 0 29.5 -11.5t-2.5 -33.5q-48 -27 -74 -66t-36.5 -84.5t-10 -96.5t4.5 -103q1 -5 6 -19.5t11.5 -31t13.5 -32.5t13 -24q3 -5 10 -13t14 -16.5t13 -15.5t8 -9
q3 -3 21 -12.5t35.5 -21.5t25.5 -25t-10 -22q-6 -3 -15 2.5t-12 6.5z" />
    <glyph glyph-name="parenright" unicode=")" horiz-adv-x="350" 
d="M94 9q-1 2 5 15.5t15.5 34t21.5 45.5t22 49.5t17 45.5t8 34q3 48 0 92t-14.5 84.5t-33.5 77.5t-59 69q-8 7 -21.5 11.5t-23 10.5t-12 15t11.5 26q85 7 142 -22.5t91 -83t46.5 -122.5t7.5 -140q0 -6 -7 -22t-11 -23q-22 -33 -38.5 -56.5t-34 -45t-38 -44t-50.5 -51.5
q-9 -6 -23 -9.5t-22 9.5z" />
    <glyph glyph-name="asterisk" unicode="*" horiz-adv-x="439" 
d="M309 9q-41 13 -62.5 13t-35.5 -4.5t-27 -9t-36 0.5v126q-5 -5 -14.5 -18t-20 -26t-20.5 -22t-17 -6q-8 22 5.5 38.5t30 32.5t27.5 32.5t0 39.5q-11 2 -29 -4.5t-36 -11.5t-33 -3.5t-19 19.5q-1 4 -1 11t1 7l114 21l-60 60v27q1 1 4 1t5 -1q2 -2 7.5 -7t11 -10.5t10.5 -11
t7 -7.5q4 15 -6 34t-19.5 37.5t-11.5 35.5t19 27q6 0 20 0.5t29.5 0.5t29.5 -0.5t19 -0.5q21 -2 29.5 -19t11 -40t2 -46.5t2.5 -37.5q26 23 45 49.5t45 49.5q10 -3 11 -11t-3 -16.5t-9.5 -16t-7.5 -10.5t-8.5 -11t-13.5 -16.5t-13.5 -16t-9.5 -10.5q27 -5 55 1.5t53 16.5
q14 -9 16.5 -17t-1.5 -13.5t-13.5 -9.5t-19.5 -5q-6 -1 -21.5 -3.5t-32.5 -5.5t-32.5 -5.5t-21.5 -3.5q-8 0 -9 -6t2 -14t8 -15t8 -10q6 -4 19 -13t27 -19t26.5 -18.5t17.5 -11.5q2 -1 9.5 -4.5t8.5 -4.5q2 -5 2 -18.5t-2 -17.5q-8 -4 -23 4t-30.5 20t-28.5 23.5t-17 14.5
v-8q0 -2 5 -12.5t12 -25t15 -29t13 -23.5q3 -5 13 -18.5t14 -17.5q-3 -8 -8.5 -9.5t-12.5 0t-13.5 4.5t-10.5 5z" />
    <glyph glyph-name="plus" unicode="+" horiz-adv-x="511" 
d="M170 218l-125 -39q-8 -2 -14 3t-9 13t-2 16t7 13q6 1 22.5 3.5t35.5 5.5t35.5 5.5t23.5 3.5q2 1 8.5 4t8.5 5q1 3 1 10.5v16.5v16.5t-1 10.5q0 2 -3 5t-5 4q-2 5 -6 17.5t-8.5 27t-8 27.5t-4.5 18q-4 14 1 25.5t15 18t22.5 7.5t23.5 -7h117l13 -18v-143q39 -2 79 -0.5
t78 9.5q17 -11 17 -23t-8.5 -20t-19.5 -9.5t-16 7.5q-5 0 -19 0.5t-29.5 0.5t-29.5 -0.5t-20 -0.5q-23 -2 -27.5 -14t0 -28.5t13.5 -34.5t14 -31q1 -3 4.5 -11.5t8 -18.5t8.5 -19t6 -13q7 -14 17 -25.5t10 -28.5q0 -4 -12 -1.5t-27.5 7t-30.5 8.5t-20 4q-6 -1 -29.5 -8
t-49 -14t-45.5 -10t-20 5v200z" />
    <glyph glyph-name="comma" unicode="," horiz-adv-x="247" 
d="M76 -126q-2 1 -5 4t-5.5 7t-2.5 8t4 8q1 1 6.5 3.5t11.5 5.5t11.5 5.5t6.5 3.5q14 10 28.5 27t25 36.5t15.5 40.5t2 39q-20 -15 -50 -20.5t-56.5 0.5t-41.5 26t-4 57q12 41 39 55t56.5 8t55.5 -28t37 -53q3 -43 -1 -75.5t-16.5 -60t-34.5 -53t-55 -53.5q-7 -2 -15 2
t-12 7z" />
    <glyph glyph-name="hyphen" unicode="-" 
d="M54 126q-2 11 -7.5 35.5t-10.5 51t-8.5 48t-0.5 26.5q3 6 7.5 8.5t9 4.5t9.5 4.5t10 9.5q1 -9 27.5 -10t66 2t85 8t85 8t66.5 2t29 -10q1 -17 3 -38t3.5 -44t2.5 -46t0 -42q-28 13 -54 9l-269 -45h-45q-2 0 -5 7t-4 11z" />
    <glyph glyph-name="period" unicode="." horiz-adv-x="224" 
d="M72 9q-40 28 -46.5 55.5t9 48.5t47.5 32t71 7q22 -15 31 -36t7.5 -42t-12 -40t-26.5 -30t-37 -11.5t-44 16.5z" />
    <glyph glyph-name="slash" unicode="/" horiz-adv-x="561" 
d="M67 81q-7 4 -17.5 8.5t-18 10.5t-9.5 14.5t9 20.5l12 12l19 19l19 19t13 12q9 12 29.5 42t43.5 64.5t43 65.5t27 44q1 3 10.5 21.5t21 42.5t23 48.5t17.5 39.5q2 3 5 13.5t4 13.5q15 1 33 0.5t36.5 -2t35.5 -3.5t29 -4q9 -2 23 -4.5t27 -5.5t22 -5.5l9 -2.5v-27
l-269 -403l-63 -126q-2 -5 -7 -8.5t-11 -0.5q-6 5 -22.5 16.5t-35 24.5t-35 24t-23.5 16z" />
    <glyph glyph-name="zero" unicode="0" horiz-adv-x="484" 
d="M144 9q-38 10 -63 45t-38.5 79.5t-17 89t1.5 73.5q1 10 6 36t11 56t11 57.5t8 38.5q16 74 48.5 111t72.5 43.5t83.5 -13t81.5 -58.5t66.5 -93t40 -116.5t0.5 -129t-52 -129.5q-22 -34 -51.5 -55.5t-63.5 -32.5t-71 -11t-74 9zM260 81q11 -18 22.5 -27t31.5 9
q57 51 83.5 121t22.5 142.5t-37.5 140.5t-95.5 116q-10 5 -19.5 -11.5t-18 -45t-15.5 -65t-12 -72t-7 -65.5t0 -46q1 -5 4.5 -25t7.5 -44.5t8.5 -47.5t6.5 -35q2 -10 7.5 -23t10.5 -22z" />
    <glyph glyph-name="one" unicode="1" horiz-adv-x="498" 
d="M56 -32q-2 4 -1.5 10t3 12t6.5 10t10 4h72l18 63v242l-9 45q-1 4 -10 0t-22 -12t-28.5 -16.5t-29 -14t-23.5 -5t-13 11.5q-1 4 -1 14.5t1 12.5q1 1 8.5 4.5t9.5 4.5q14 9 34.5 28t44 42.5t47.5 48.5t45 46t37.5 34.5t24.5 15.5q1 0 6.5 1t11.5 0.5t11.5 -2.5t6.5 -8
q2 -12 2.5 -55.5t1 -101t2.5 -121.5t6 -118t12 -89t21 -35h116q5 0 8.5 -7t0.5 -11q-2 -2 -8.5 -9t-9.5 -9q-15 1 -31 -1t-32.5 -4.5t-32 -4t-29.5 0.5l-224 -45q-20 -4 -36.5 -3t-26.5 21z" />
    <glyph glyph-name="two" unicode="2" 
d="M31 9q-3 2 -8 7.5t-1 10.5l233 350q10 16 15 39.5t6 48t-0.5 46.5t-2.5 36q-8 27 -20.5 34.5t-27.5 4t-32 -15t-33.5 -22.5t-31 -18t-25.5 -1q-6 32 11 58t45.5 42t64 21.5t68.5 -2t57.5 -30t31.5 -62.5q2 -12 5 -33.5t6 -42.5t5 -38t2 -20q0 -39 -11 -77.5t-27.5 -76
t-35.5 -73.5t-34 -69q-2 -3 -6.5 -15.5t-2.5 -20.5h153q2 0 5 -3.5t4 -5.5q1 -5 1 -15t-1 -12t-26.5 -6t-64.5 -9t-85 -10.5t-88.5 -10.5t-75.5 -10t-46 -8q-8 -2 -15 1.5t-12 7.5z" />
    <glyph glyph-name="three" unicode="3" horiz-adv-x="583" 
d="M227 -25q-69 16 -118.5 51t-78.5 101q-6 14 0 16t15.5 -1t19 -8.5t10.5 -6.5q54 -45 110.5 -58.5t104.5 -5t83 33.5t46 58t-7.5 69t-76.5 65q-5 0 -18 0.5t-27 0.5t-27 -0.5t-18 -0.5q-1 0 -6.5 -2t-11.5 -3.5t-11.5 -2.5t-6.5 -1q-14 2 -16.5 11t0 19.5t8 20t8.5 12.5
l99 89q16 15 18.5 38.5t-0.5 42.5q0 3 -4 6t-9 5.5l-9 4.5t-5 2q-44 15 -67.5 12.5t-40 -15t-31.5 -31.5t-40 -38q-2 -1 -5 -1t-4 1q-17 12 -22.5 26.5t-4.5 36.5q1 1 4 4.5t5 4.5q17 13 41 31t50.5 36.5t54 34.5t51.5 24q9 3 21.5 2.5t25 -3t24.5 -7t19 -10.5
q45 -40 65.5 -74.5t18 -68t-28 -68.5t-73.5 -76q4 -2 15.5 -5.5t24.5 -8t24.5 -8.5t16.5 -5q15 -6 29.5 -17.5t27.5 -25t23.5 -26.5t17.5 -21q11 -27 11.5 -58.5t-11.5 -58.5q-46 -101 -125 -135t-189 -8z" />
    <glyph glyph-name="four" unicode="4" horiz-adv-x="516" 
d="M443 9q-43 29 -88.5 45t-99.5 18q-15 7 -17.5 21.5t1 30.5t9 31t7.5 24q1 8 4 28.5t6 43.5t5 43.5t3 28.5q-16 2 -44 -2t-60.5 -9t-65.5 -10t-57.5 -5.5t-37 5t-4.5 21.5q8 8 27 29.5t40.5 46t40.5 46t27 30.5q2 3 8.5 13.5t8.5 13.5q19 37 44 73t52.5 70.5t56 68
t54.5 66.5q2 3 8.5 6t13.5 4t12.5 -1t5.5 -9v-421q5 0 19 -0.5t28.5 -3.5t26 -10t11.5 -22q0 -2 -3.5 -5.5t-5.5 -3.5h-71q-6 -80 14 -148.5t57 -138.5q4 -12 1.5 -18t-9 -7.5t-14.5 1t-14 6.5zM85 350q2 0 8.5 -0.5t13.5 -0.5t13.5 0.5t9.5 0.5q16 1 40.5 4t47 6t39 5
t16.5 3v197h-9z" />
    <glyph glyph-name="five" unicode="5" horiz-adv-x="529" 
d="M135 18q-11 4 -25 19.5t-27.5 35.5t-24 42t-13.5 39.5t2.5 27.5t24.5 6q21 -4 30.5 -18t17 -30.5t18 -31t32.5 -18.5q44 -9 80 -3.5t62 22t41 42.5t17.5 56.5t-9 65t-38.5 68.5q-19 24 -44.5 30.5t-52.5 5.5t-54 -5.5t-49.5 -3.5t-38.5 12t-21 42q-2 8 -6.5 38.5
t-10.5 67.5t-11 73t-8 54q-1 6 0.5 10t8.5 8q7 -1 25 -1.5t38 -0.5t38 0.5t25 1.5q4 0 22.5 3t40 6t39.5 5.5t23 3.5q11 1 25 -6.5t22.5 -17t8 -18.5t-19.5 -12q-25 -4 -43 -5.5t-33.5 -2t-31 -2.5t-36.5 -8q1 -17 2.5 -38t4 -43t7.5 -43t13 -38l10.5 -2.5t26 -6t34 -7.5
t35.5 -7.5t30 -7t17 -4.5q79 -33 114.5 -82t36.5 -104t-30 -112t-85 -106q-34 -6 -67 -11.5t-65 -7t-64 2.5t-64 16z" />
    <glyph glyph-name="six" unicode="6" horiz-adv-x="471" 
d="M112 54q-47 31 -69 84.5t-23 116t17 127t51 119t78 91.5t98 45q6 -2 20 -7t29.5 -10.5t29.5 -11t20 -7.5q2 -1 9 -4t9 -5q-1 -2 -4 -9t-5 -9q-25 -28 -59 -68.5t-63.5 -85.5t-47.5 -91.5t-10 -86.5q28 36 65.5 54.5t74.5 17t67.5 -25.5t44.5 -73q3 -12 2 -26.5t-4.5 -29
t-8 -28t-7.5 -23.5q-20 -54 -56 -79t-79.5 -29t-90.5 11.5t-88 42.5zM219 126q3 -5 12 -16.5t19 -24.5t19 -24.5t13 -15.5q14 -5 30 3.5t24 14.5q36 27 50.5 60.5t13 64t-16.5 54t-39 29t-54.5 -10.5t-61.5 -63q-12 -18 -17.5 -35t8.5 -36z" />
    <glyph glyph-name="seven" unicode="7" horiz-adv-x="498" 
d="M129 58q-5 2 -8 7.5t-1 10.5q4 12 13 44t19 67.5t18.5 67.5t11.5 45q2 7 4 18.5t3.5 24t2 25.5t-0.5 22q-12 4 -23.5 -1t-23.5 -12t-24.5 -12.5t-26.5 -1.5q-18 4 -16.5 10.5t13 14.5t30.5 16t36.5 15.5t30.5 14t13 10.5q4 34 9 60.5t10.5 51.5t12 49.5t13.5 53.5
q1 1 1 4t-1 5q-6 -2 -20 -7.5t-29.5 -11t-29.5 -10.5t-19 -7q-10 -3 -31 -13t-42 -16.5t-37 -4t-16 24.5q0 3 3.5 13.5t5.5 13.5q38 12 82 24.5t89 27.5t88.5 33t81.5 40q1 1 6.5 5t11.5 8.5t11 8.5t7 5q10 6 15.5 -2.5t8 -21.5t3 -25.5l0.5 -12.5q-1 -4 -5 -11t-8.5 -14
t-8.5 -12.5t-5 -7.5q-9 -22 -20 -49t-20 -55.5t-13.5 -57t-0.5 -54.5q22 -4 46.5 4.5t43.5 13.5q10 3 19.5 -2.5t10 -13.5t-13.5 -16.5t-52 -11.5q-12 -2 -31.5 -5.5t-31.5 -12.5q-2 -6 -5 -20t-5.5 -29.5t-5 -29.5t-2.5 -20q-1 -13 -1.5 -46t-0.5 -70.5t0.5 -70.5t1.5 -46
q-3 -11 -7.5 -23t-10.5 -22q-45 -7 -90 -10t-89 10z" />
    <glyph glyph-name="eight" unicode="8" horiz-adv-x="507" 
d="M151 -34q-33 11 -54 32.5t-45 48.5q-14 15 -20 37.5t-8 46.5t-1 46.5t2 39.5q3 49 27.5 91.5t53.5 78.5q-33 39 -43 79.5t-2 91.5q2 12 11 25.5t20 26t22.5 22.5t18.5 16q27 24 61.5 25t67.5 -14.5t60.5 -43.5t42 -62.5t12.5 -71t-29 -67.5q27 -7 45 -20t30.5 -31.5
t21.5 -41.5t19 -50q18 -48 14.5 -93.5t-23 -84.5t-52.5 -69.5t-74 -48.5t-87 -21t-91 12zM276 47q17 -4 39.5 -7.5t41.5 -1.5q28 21 46.5 50.5t27 63t6.5 69t-17 68.5q-22 50 -52.5 67t-61.5 10.5t-59 -32t-46.5 -61t-24 -76.5t9.5 -79q12 -29 36.5 -47t53.5 -24zM213 423
q17 -12 41 -13t40 13q4 3 10 9t12 11.5t10 10t4 5.5v90q0 2 -7 12t-11 15q-21 25 -38 29t-31 -5.5t-24 -29.5t-16 -43.5t-8 -46.5t0 -39z" />
    <glyph glyph-name="nine" unicode="9" horiz-adv-x="498" 
d="M282 77q1 16 4 49.5t6.5 76t7.5 89.5t7.5 89.5t6 76t4.5 49.5q-10 4 -21 -0.5t-23 -12t-23.5 -15t-22.5 -8.5q-43 -5 -78.5 7.5t-61 36t-39.5 56t-13.5 67t16.5 68.5t51 61q1 1 8 6t16 11t17 11t13 8q2 1 4.5 2.5t5.5 3.5q4 2 7 3h108q2 0 9 -3.5t9 -5.5q5 -5 18 -17.5
t27.5 -26.5t27 -27t17.5 -18q12 -41 19 -79t11.5 -76t8 -77t6.5 -82q3 -44 3.5 -88.5t3 -89t10.5 -88t27 -84.5q-3 -5 -12 -12t-14 -6q-2 0 -7 2.5t-11 6t-11.5 6.5t-6.5 3q-2 0 -6.5 0.5t-10.5 0.5t-11 -0.5t-8 -0.5q-5 -1 -18 -3t-27 -5t-27 -6t-18 -4q-2 0 -5 3.5t-4 5.5
v36zM139 525q16 -11 33.5 -13t34.5 2.5t31.5 14.5t25.5 23q25 31 43 57.5t22 51.5t-8.5 50.5t-47.5 55.5q-24 21 -50.5 15.5t-50 -26t-42 -53t-25 -66t0 -64t33.5 -48.5z" />
    <glyph glyph-name="colon" unicode=":" horiz-adv-x="332" 
d="M149 421q-21 7 -32.5 21t-14.5 31t2.5 34.5t18.5 31t33 21t47 4.5q19 -2 32.5 -16.5t19 -34.5t2.5 -41t-15.5 -36t-35.5 -21t-57 6zM149 155q-21 7 -32.5 21t-14.5 31t2.5 34.5t18.5 31t33 21t47 4.5q19 -2 32.5 -16.5t19 -34.5t2.5 -41t-15.5 -36t-35.5 -21t-57 6z" />
    <glyph glyph-name="semicolon" unicode=";" horiz-adv-x="193" 
d="M81 -274q-2 3 -2 13.5t2 13.5q7 5 21 17t27 27.5t21 32t3 30.5q-15 -5 -31 -8t-32 -1.5t-30 7.5t-24 20q-14 18 -12.5 41t13 44t29.5 35.5t38.5 16.5t40.5 -12.5t34 -52.5q12 -31 11 -63.5t-9.5 -61.5t-22.5 -53t-29 -38.5t-28.5 -17.5t-19.5 10zM63 85q-21 7 -32.5 21
t-14.5 31t2.5 34.5t18.5 31t33 21t47 4.5q19 -2 32.5 -16.5t19 -34.5t2.5 -41t-15.5 -36t-35.5 -21t-57 6z" />
    <glyph glyph-name="less" unicode="&#x3c;" horiz-adv-x="543" 
d="M377 45q-12 7 -30 15.5t-33 11.5q-7 1 -27.5 5.5t-48.5 10t-59 11.5t-58.5 11.5t-48.5 9.5t-27 6q-8 1 -19.5 4.5t-16.5 12.5q-1 2 -1 5.5t1 3.5l314 296q1 2 5 7.5t8.5 11t8 10.5t5.5 7q9 12 28 11.5t40.5 -9t42 -23t34.5 -31t17.5 -34t-10.5 -30.5l-251 -251
q11 -2 29 -6t37.5 -8.5t38 -10t30.5 -11.5q9 -4 22 -11t26 -14.5t22.5 -13t9.5 -6.5l9 -18l-36 -18h9q-4 3 -14 9.5t-21.5 13.5t-21.5 13.5t-14 8.5z" />
    <glyph glyph-name="equal" unicode="=" horiz-adv-x="502" 
d="M94 9q-13 9 -12.5 18.5t7 18t16.5 15.5t16 11q86 -3 170.5 4.5t169.5 4.5q15 -17 9 -36q-13 -1 -46 -3t-70.5 -5t-70.5 -6t-46 -4q-2 0 -13.5 -2.5t-26 -5.5t-28.5 -6t-21 -4q-9 -2 -15.5 -5t-12 -4t-11.5 0.5t-15 8.5zM58 179q-1 3 -5 16.5t-8.5 28.5t-8.5 28.5t-5 16.5
q0 1 -3.5 6.5t-5.5 11.5t-0.5 11t9.5 7l386 72q15 3 23 -7.5t11 -28.5t2 -40t-3 -43t-4.5 -37.5t-1.5 -23.5h-9q-42 16 -73 22t-59.5 5t-60.5 -8.5t-77 -18.5q-15 -4 -25.5 -12.5t-20 -16t-21.5 -11t-31 3.5q-2 2 -5 9t-4 9z" />
    <glyph glyph-name="greater" unicode="&#x3e;" horiz-adv-x="556" 
d="M36 161q0 7 -7 22.5t-11 22.5q10 6 40 20.5t68.5 33.5t79 40.5t70 41.5t42.5 36.5t-4 25.5l-206 107q-16 9 -9 27q7 1 17 0.5t20.5 -1.5t19.5 -3t14 -5l341 -179q21 -11 19 -27t-19 -27l-448 -296q-4 -3 -8.5 -0.5t-8.5 6.5t-7 8l-3 4v143z" />
    <glyph glyph-name="question" unicode="?" horiz-adv-x="558" 
d="M135 7q34 -12 57 -6t35.5 21t15.5 36t-2.5 41t-19 34.5t-32.5 16.5q-27 3 -47 -4.5t-33 -21t-18.5 -31t-2.5 -34.5t14.5 -31t32.5 -21zM109 223q3 77 15.5 133.5t29 97t35.5 67t37 42t32.5 23t21.5 10.5q49 35 69.5 75t-0.5 88q-9 21 -43 28t-75.5 2.5t-80.5 -19.5
t-58 -40q-24 -30 -38.5 -36.5t-19 1.5t2 26t24.5 36q60 60 125.5 81.5t125 17t106 -30.5t68.5 -61.5t14 -75t-59 -72.5q-57 -38 -109.5 -74.5t-91.5 -80.5t-59.5 -98.5t-14.5 -127.5q5 -8 -7 -10.5t-26.5 -3t-24 0.5t0.5 1z" />
    <glyph glyph-name="at" unicode="@" horiz-adv-x="623" 
d="M117 63q-18 11 -31 28t-22.5 36t-16 39.5t-11.5 39.5q-16 62 -8 126.5t26 124.5q19 62 62.5 102t99.5 62t117.5 29.5t115.5 4.5q2 -1 8.5 -4t8.5 -5q51 -44 79.5 -97t39.5 -106t7 -102.5t-18.5 -88.5t-36.5 -63t-46.5 -25.5t-50 23t-45.5 82.5q-15 -17 -32 -33
t-35.5 -27.5t-40 -17.5t-45.5 -3q-49 5 -72 36.5t-25.5 74t14 89.5t47 84t72 57t90.5 9q51 -12 72 -44t25.5 -74t-1 -89t-7.5 -89q16 -23 31 -22.5t27 18t20.5 48t10.5 67.5t-3 77t-19 75.5t-39 63.5t-63 41q-92 6 -163 -25t-116.5 -87.5t-62.5 -134.5t1 -166
q8 -40 29.5 -64.5t51.5 -38t66.5 -17t73.5 -1t73 9t65 13.5q13 3 27 11t28.5 15t29.5 11t31 -1v-45q-9 -3 -19.5 -9.5t-20.5 -13.5t-18.5 -13t-13.5 -9q-24 -15 -56.5 -24.5t-67.5 -14.5t-68.5 -6.5t-58.5 0.5q-7 3 -23.5 11.5t-35 18.5t-35 19.5t-22.5 13.5zM269 278
q1 -6 5.5 -14.5t12.5 -3.5q14 7 30.5 21t31.5 29t27.5 28.5t18.5 20.5q19 33 15.5 53t-19.5 27t-39 0.5t-43 -26.5t-32.5 -53.5t-7.5 -81.5z" />
    <glyph glyph-name="A" unicode="A" horiz-adv-x="632" 
d="M90 45q-2 6 -14 27.5t-23.5 46t-18 45t1.5 24.5l269 583q7 16 16.5 13t17.5 -13t13.5 -22t6.5 -14q38 -154 97.5 -306t126.5 -294q4 -7 11 -15t11.5 -16.5t4.5 -17t-9 -14.5q-11 -8 -20 -15.5t-18 -13.5t-19.5 -8t-23.5 1q-2 0 -5 3.5t-4 5.5q-4 77 -24.5 155.5
t-46.5 149.5q-6 -1 -20.5 -4.5t-30 -8t-29.5 -8.5t-19 -6q-11 -4 -28.5 -11l-35 -14t-30.5 -13t-14 -7l-9 -9q-2 -2 -9 -17t-15.5 -35.5l-17 -41t-12.5 -32.5q-2 -7 -7.5 -26t-11 -40.5t-10.5 -40.5t-6 -27q-3 -2 -15.5 -6.5t-20.5 -2.5q0 3 -1.5 9t-3 13.5t-2.5 13.5t-2 9z
M251 323q18 -4 32.5 4.5t30.5 13.5q15 5 37.5 8.5t41 10t28.5 19t1 34.5q-3 7 -9.5 21.5t-14 30t-13.5 29t-8 17.5q-1 2 -4 5t-5 4z" />
    <glyph glyph-name="B" unicode="B" horiz-adv-x="543" 
d="M112 9q-2 1 -5 4t-4 5q-6 72 -15.5 143.5t-20 143t-20.5 143.5t-16 144q-1 13 -0.5 23.5t9.5 21.5q44 20 96 35.5t101 9.5q45 -6 75.5 -27t49 -52.5t25 -69t3.5 -76.5q0 -2 -3.5 -9t-5.5 -9l-14.5 -14.5l-21.5 -21.5t-21.5 -21t-14.5 -14l9 -9q6 -2 22.5 -7t35.5 -10.5
t35.5 -11t23.5 -7.5q15 -5 27 -16.5t22 -25.5t18 -29.5t13 -27.5q16 -39 9 -73t-29 -60t-55 -43t-68 -21q-12 -2 -41 -4.5t-62 -5.5t-62.5 -5.5t-40.5 -2.5q-5 -7 -12 -8.5t-15 0t-15 4t-12 4.5zM237 108q1 -5 4 -13t6 -15t5 -12t3 -5h18q2 0 19.5 5t40.5 12t46.5 15
t37.5 13q49 18 63 45.5t3 56t-41.5 54.5t-70 41t-82.5 15t-79 -24q-3 -23 -1 -47.5t6.5 -49.5t10.5 -48.5t11 -42.5zM192 350q19 7 43.5 20.5t48 31t40.5 38.5t21 44q9 57 -5 87.5t-42.5 44t-68 14.5t-81.5 -2v-36z" />
    <glyph glyph-name="C" unicode="C" horiz-adv-x="570" 
d="M197 18q-42 23 -73 56t-51.5 72.5t-31.5 84.5t-14 92q-1 17 -1.5 39t0.5 45t3.5 45.5t6.5 40.5q8 34 16.5 62.5t20 53t28.5 46.5t43 45q8 7 21 9.5t26 3t24.5 -1t17.5 -2.5q20 -4 38 -19.5t32.5 -37t24 -44t13 -40.5t-0.5 -27t-17 -3q-2 4 -8 14t-14 21t-16.5 21.5
t-15.5 15.5q-6 4 -13.5 -4.5t-14.5 -21t-11.5 -24.5t-5.5 -13q-21 -60 -26 -123.5t8 -124.5t44.5 -115t81.5 -94q34 -6 58 4t41 30t28 47t18.5 56t13 56.5t11.5 48.5q1 6 6.5 8.5t11.5 2.5t11 -3t7 -8q0 -9 0.5 -30.5t0.5 -46t-0.5 -46t-0.5 -30.5q-2 -42 -25.5 -70
t-57.5 -46.5t-72 -31t-69 -22.5q-32 -11 -59 -9.5t-58 18.5z" />
    <glyph glyph-name="D" unicode="D" horiz-adv-x="596" 
d="M174 9q-1 2 -3.5 9t-5.5 15.5t-5 17t-3 12.5l-126 574q-3 15 11.5 24t35.5 14t41.5 6.5t28.5 0.5q11 -5 39 -17.5t59.5 -27t59.5 -27.5t39 -18q29 -14 53.5 -35.5t45 -46.5t38 -52.5t33.5 -53.5q35 -57 47 -102t3 -84.5t-38 -76.5t-74 -78q-12 -11 -27.5 -16.5t-30.5 -11
t-28.5 -13.5t-21.5 -22h-153q-3 0 -9.5 3.5t-8.5 5.5zM336 72q5 -17 24.5 -11.5t43.5 27.5t47.5 58.5t35.5 81t8 94.5t-34 100q-21 36 -53.5 65t-69 54t-75 46t-71.5 41q-3 -21 2 -42.5t12 -43t12 -43t1 -42.5z" />
    <glyph glyph-name="E" unicode="E" horiz-adv-x="614" 
d="M135 18l-108 646v9q0 1 16.5 6.5t39 12.5t47 14t40.5 11q6 1 29 6t51.5 11t56.5 11t43 8q11 2 19 -3.5t11 -14t0.5 -16.5t-12.5 -10q-7 -1 -23.5 -3.5t-35 -5.5t-35 -5.5t-23.5 -3.5q-9 -2 -22.5 -4t-25.5 -6.5t-19.5 -12.5t-4.5 -22l54 -233q5 -19 23 -19.5t42 6.5
t50.5 16.5t47 12t31 -8t4.5 -43.5q-6 -1 -20 -2t-29.5 -2.5t-29.5 -3t-20 -1.5h-18q-6 -2 -15 -6.5t-18 -8.5t-15 -7.5t-6 -4.5v-27l63 -242q4 -15 27 -14t54.5 8.5t67 17t64 11.5t45 -8t11.5 -42q-3 -19 -15.5 -22t-29.5 -5q-5 0 -32 -2.5t-61.5 -5.5t-68.5 -6t-53 -4h-18
q-20 1 -48.5 2t-55.5 3q-32 2 -66 4z" />
    <glyph glyph-name="F" unicode="F" horiz-adv-x="525" 
d="M108 9q-3 0 -10 10.5t-8 16.5q0 1 1 5t2.5 8.5t3.5 8.5t2 5q2 20 0.5 40t-4.5 40.5t-5 40.5t0 40l-72 422q-2 13 6.5 20t20.5 16q96 48 197 94.5t206 75.5q11 3 24.5 -4t22.5 -18t10 -23t-12 -18q-22 0 -59 -4.5t-75 -13.5t-70.5 -24.5t-46.5 -37.5q0 -7 -1 -24t-1 -38
t2 -43.5t6 -40t11 -27.5t19 -7l162 45q9 3 16.5 -4.5t13.5 -18.5t9.5 -22.5t4.5 -17.5q-8 0 -28.5 -0.5t-43 -2t-43 -3.5t-28.5 -3q-35 -6 -52.5 -20.5t-22.5 -35.5t-0.5 -48t12.5 -57l81 -305q4 -17 0 -24.5t-13 -9t-20 1t-21 5.5h-197zM197 686q-3 0 -3 -4.5t3 -4.5
q4 0 4 4.5t-4 4.5z" />
    <glyph glyph-name="G" unicode="G" horiz-adv-x="682" 
d="M228 9q-68 15 -112 63t-66 114.5t-24 144t13 151t45.5 136t72.5 99.5q38 34 87.5 41.5t92.5 -8.5t70 -54t19 -95q-3 -20 -11.5 -13.5t-20.5 25.5t-27.5 43t-32.5 39.5t-35 15.5t-35 -29q-28 -47 -46 -99.5t-24.5 -107t-0.5 -109.5t26 -106q33 -82 75.5 -125.5t86.5 -59
t85.5 -7t72 31t47 54.5t9.5 63.5t-40.5 58t-101.5 38.5l-18 18q1 6 6 8t10.5 2.5t11 -0.5t7.5 -1q31 -4 64 -6t60 -10t45 -26.5t20 -56.5q2 -34 1.5 -63t-3.5 -57.5t-9.5 -58t-15.5 -63.5q-5 -2 -16 1.5t-11 7.5v72q-42 -23 -88.5 -41t-94.5 -28.5t-97 -12t-97 9.5z" />
    <glyph glyph-name="H" unicode="H" horiz-adv-x="592" 
d="M117 36q-1 2 3 9t6 9v107l-72 431q-1 4 -6 17t-10 28t-9 30t-2 24q7 4 23.5 14t35.5 21t35.5 21.5t22.5 14.5q10 7 19 16.5t18.5 17t20 9.5t22.5 -7q-4 -46 -2 -98t8 -104t14 -101.5t16 -90.5q22 8 48 15t51 3q9 -2 12 -4t4 -3.5t3 -2t8 0.5q5 1 12.5 2t15 2.5t12.5 3
l5 1.5v26q-10 40 -20 88.5t-17.5 99.5t-10 102t2.5 96h27l80 -502q2 -7 7.5 -25t11 -38t10.5 -38t7 -25q2 -8 11.5 -29.5t17.5 -45.5t9.5 -44t-11.5 -24q-6 -2 -15.5 -0.5t-11.5 9.5l-89 305q-1 1 -14.5 1t-21.5 -1q-35 -3 -68 -10t-67 -17l90 -296q1 -2 1.5 -7.5t0 -11.5
t-3 -11t-7.5 -6q-8 0 -28.5 0.5t-43.5 0.5t-43.5 -0.5t-28.5 -0.5q-1 0 -11 -3t-22 -7t-23.5 -6.5t-14.5 -1.5q-2 1 -5 6t-5.5 11t-5 11.5t-2.5 7.5z" />
    <glyph glyph-name="I" unicode="I" horiz-adv-x="543" 
d="M54 9q-1 0 -1 3.5t1 5.5t4 9t5 9q6 1 22.5 4.5t35.5 8t35.5 8.5t22.5 6q7 2 17 5t10 4v80l-53 476q-1 7 -4.5 24.5t-7.5 36t-8 34.5t-7 21q-23 -9 -49.5 -10t-49.5 1q-10 5 -10 13.5t10 13.5q10 3 35.5 9.5t54 14t54 13.5t35.5 8q4 1 22.5 3.5t40 5.5t40 5.5t23.5 3.5
q14 2 23.5 5t19 5.5t20.5 2.5t27 -4q10 -11 15 -20q5 -8 5 -14t-11 -6h-81l-2.5 -4.5t-5.5 -11.5l-6 -14t-4 -11q-1 -1 -0.5 -4.5t0.5 -4.5q-10 -82 -17.5 -162t-7 -159t12 -157.5t39.5 -157.5q2 -6 9 -16.5t9 -10.5h107q1 0 8.5 -5.5t15.5 -13.5t12.5 -17.5t-0.5 -17.5
q-50 -14 -105.5 -21t-112.5 -9t-113.5 -0.5t-107.5 3.5q-4 0 -14.5 3.5t-12.5 5.5z" />
    <glyph glyph-name="J" unicode="J" horiz-adv-x="592" 
d="M255 9q-25 4 -50 24t-46.5 46t-38.5 53t-26 47q-5 10 -15.5 37t-22 57t-21.5 57t-13 38q0 1 14.5 7t32 12.5t33.5 12t19 4.5q4 -2 10.5 -5t7.5 -4q5 -11 3.5 -30.5t-5 -41t-6.5 -41t-1 -31.5q0 -2 3.5 -12.5t7.5 -23t8.5 -25.5t7.5 -20q7 -18 24.5 -39.5t40 -40.5
t48 -32.5t49 -15t42.5 11t29 45.5q0 1 2 8.5t4 18t3 20.5t0 15l-72 278q-1 3 -5.5 13t-10 21.5t-11.5 22t-9 15.5q-2 2 -15 19.5t-30 40.5t-35 46.5t-28 37.5q-3 4 -5.5 6t-4 4t-1.5 5.5t2 11.5q60 28 120.5 64t104.5 88q4 3 8.5 0.5t8.5 -6.5t7 -8l3 -4q18 -83 36 -158
t35 -148.5t33 -148t30 -155.5q7 -66 -20 -109t-73 -65.5t-102.5 -27.5t-109.5 5z" />
    <glyph glyph-name="K" unicode="K" horiz-adv-x="704" 
d="M363 592q-2 2 -5 6t-6.5 7.5t-7.5 5t-8 -0.5l-63 -108v-72q0 -1 4 -19.5t10 -46.5t14 -63.5t16 -70.5t15 -67.5t13 -54.5q0 -1 3.5 -9.5t7.5 -20.5t6.5 -23.5t0.5 -18.5q-16 -11 -34 -12t-37.5 4t-40 13t-41 13.5t-41 6.5t-39.5 -7q-5 2 -7.5 12t-5 37t-6.5 75.5
t-12 127.5t-22 193t-37 272l-18 36l17 12t38.5 27t42 29.5t28.5 21.5q30 21 43 17.5t17.5 -19.5t5 -39t5.5 -40q1 -10 3.5 -30t6 -46t7.5 -54t7.5 -54t6.5 -46t5 -30l18 18l206 323l27 -27q-8 -11 -27 -39t-40 -59.5t-40.5 -59.5t-26.5 -39q-3 -5 -4 -11t5 -24.5t21 -54
t45 -97.5t77 -156.5t116 -230.5q29 -37 35.5 -59t2 -31.5t-14.5 -8.5t-14 9z" />
    <glyph glyph-name="L" unicode="L" horiz-adv-x="632" 
d="M13 576v17q0 3 -1.5 16.5t-3 28.5t-3 28.5t-1.5 16.5q-2 24 1 35t10.5 17.5t20.5 13.5t31 24q6 5 20 19l29.5 29.5t29.5 30t19 20.5q6 2 15.5 0.5t11.5 -9.5q1 -2 1 -12t-1 -15q0 -4 -1.5 -18.5t-3 -31t-3 -31t-1.5 -18.5q0 -15 -0.5 -40t-0.5 -54v-59v-56t0.5 -44.5
t0.5 -24.5q1 -18 3 -41t4 -47.5t5 -48t6 -41.5q3 -19 10 -48t14 -56t13 -46.5t8 -19.5h9l278 62q2 1 9 -4.5t14.5 -13t13.5 -15.5t8 -14q-55 -34 -122.5 -55.5t-133.5 -34t-124 -17.5t-95 -5.5t-47 2t20 5.5z" />
    <glyph glyph-name="M" unicode="M" horiz-adv-x="747" 
d="M103 1q-20 156 -38 267t-31.5 186t-21 119t-6 66t13.5 26.5t38 0.5q32 -33 69 -63t75 -59t75 -59.5t69 -63.5q4 4 14.5 25l23.5 47t25 51t19 39q5 10 17 35.5t25 55t24 55.5t15 37h64l160 -743q-20 -9 -26 -10.5t-8 -0.5t-6 2t-20 -2l-164 608q-3 3 -9.5 -5t-21.5 -38
t-41.5 -87t-68.5 -152q-19 12 -40.5 31.5t-43.5 39t-42 36t-36 22.5v-15l82 -314l37 -106q-9 -1 -32.5 -4t-49.5 -7t-49.5 -7.5t-32.5 -4.5q-5 -1 -14.5 -7.5t-18.5 -11t-16.5 -3.5t-8.5 14z" />
    <glyph glyph-name="N" unicode="N" horiz-adv-x="821" 
d="M224 18q-2 3 -5 8t-5.5 11t-5 10.5t-2.5 6.5v13.5v22.5v22.5v13.5q-2 16 -8.5 51.5t-13.5 74t-13.5 72t-9.5 44.5q-1 4 -8.5 28t-17.5 55.5t-20 63.5t-16 50l-9 18q-8 21 -20.5 54.5t-24 65t-19.5 54t-8 23.5v27q0 1 9.5 3.5t22 5.5t26.5 5.5t23 3.5q16 2 32 1t29.5 -7
t23 -17.5t13.5 -30.5l180 -224l287 -251q2 -2 15.5 -8.5t20.5 -9.5h9v18l-135 628q-3 12 5 33.5t20.5 41t28 33.5t27.5 11.5t17.5 -25.5t0.5 -76q-2 -21 -4 -46t-3.5 -51.5t-2 -52.5t0.5 -48q18 -141 48 -281t77 -275q5 -19 1 -26.5t-13 -7.5t-20.5 5t-21.5 11
q-41 28 -82.5 61t-81.5 68t-78 70.5t-71 69.5q-4 3 -13.5 15t-22.5 27.5t-27.5 33.5t-27 34t-22.5 27.5t-13 15.5q-2 2 -7 7.5t-10.5 11t-11 10.5t-7.5 7v-18l108 -440q1 -3 6.5 -16.5t12.5 -29t14 -30.5t12 -22q4 -7 11 -14t13.5 -14.5t10 -16t0.5 -18.5q0 -2 -3.5 -5.5
t-4.5 -3.5h-198q-2 0 -8.5 7t-9.5 11z" />
    <glyph glyph-name="O" unicode="O" horiz-adv-x="628" 
d="M246 9q-56 13 -94 40.5t-62.5 65t-37 83.5t-17.5 94.5t-5 97.5t1 94q1 24 2.5 58.5t6 72.5t13 76.5t23 71t36.5 56.5t54 33q8 2 24 6.5t33 8.5t31.5 7.5t18.5 4.5q21 4 35.5 0.5t26 -11.5t22 -19.5t24.5 -23.5q32 -27 57.5 -55t47 -58t39.5 -64t35 -74l4 -12t6 -19
t5.5 -19t2.5 -13q1 -5 4.5 -33t7.5 -63.5t8.5 -71.5t6.5 -56q3 -24 -2.5 -47t-15.5 -43q-2 -3 -8.5 -17.5t-14 -31.5t-14 -31.5t-8.5 -17.5q-24 -38 -58.5 -59.5t-74 -31.5t-82 -9t-81.5 10zM318 81q23 -20 47 -24.5t47 3t44 24.5t38.5 38.5t29.5 46t18 46.5t9 42t3.5 39.5
t-0.5 41t-3 48.5q-3 37 -12.5 73t-23 70.5t-30 68.5t-32.5 66q-2 2 -7 7.5t-11 11t-11 10.5l-7 7q-11 8 -18.5 21t-15 26.5t-16.5 25t-22 16.5q-23 9 -43.5 -1.5t-37 -30.5t-28 -43.5t-17.5 -40.5q-3 -11 -9 -32.5t-11.5 -44.5t-10 -42t-5.5 -25q0 -5 -0.5 -25.5t-0.5 -46
t0.5 -51t0.5 -38.5q2 -39 12.5 -79.5t28 -78t41.5 -70.5t53 -59z" />
    <glyph glyph-name="P" unicode="P" horiz-adv-x="614" 
d="M130 9q6 85 1 169t-16 168t-24.5 168t-23.5 168q-2 15 -5 38.5t-6 46.5q-4 26 -7 54q-4 15 5.5 26.5t24.5 19.5t32 13t28 8q134 34 246 -5.5t193 -147.5q13 -33 11.5 -70t-14 -74t-34 -71.5t-49.5 -62t-61 -46.5t-68 -25q-32 -14 -51 -20t-27 -14.5t-6.5 -26.5t12.5 -56
q3 -13 13 -46.5t21.5 -70.5t22 -70t15.5 -46q2 -7 -2.5 -15t-6.5 -12q-5 -1 -18 -2.5t-27 -3t-27 -2.5t-18 -1q-14 0 -35 -0.5t-41 -0.5t-34.5 0.5l-14.5 0.5zM273 395q109 60 163 123t68.5 120.5t-2.5 104.5t-50 73q-14 11 -37 19t-47.5 13t-48 8t-37.5 5q-17 2 -40.5 1.5
t-40.5 -10.5l18 -54z" />
    <glyph glyph-name="Q" unicode="Q" horiz-adv-x="839" 
d="M260 9q-85 14 -137 60t-76 110.5t-22.5 140.5t22.5 150t60 139t90 108q50 42 101 54.5t98.5 2.5t89 -39.5t73.5 -71t52.5 -93t25.5 -104.5q0 -6 0.5 -30t0.5 -54t-0.5 -59.5t-0.5 -44.5q0 -3 -1.5 -13.5t-3 -22.5t-3 -22.5t-1.5 -13.5q-2 -17 8 -23.5t28 -21.5
q6 -5 17 -13t22 -16.5t20.5 -15.5t12.5 -8q18 -11 36.5 -15t30 -10.5t12 -18.5t-16.5 -37q-1 -2 -5 -7t-9 -9t-11 -5.5t-11 3.5l-143 126l-18 8q-63 -85 -152 -118t-189 -16zM404 72q11 -10 25 -9.5t27.5 6.5t25.5 15l20 15q27 19 43.5 36t18 32.5t-13 29t-48.5 27.5
q-16 7 -22.5 5t-10 -3.5t-7 0.5t-13.5 16q-2 3 2 18.5t12 31t18 24t21 -1.5l81 -81l9 9q1 1 2 10.5t2.5 22t3 26t1.5 22.5q1 23 0 55.5t-5 69t-11.5 74.5t-21 71.5t-33 59t-46.5 38.5q-2 1 -10 1t-17 -0.5t-16.5 -0.5h-9.5q-41 4 -72 -11t-53 -43.5t-36 -66.5t-21.5 -78.5
t-9 -80t2.5 -70.5q4 -42 19 -79t36.5 -70.5t49 -63t57.5 -56.5z" />
    <glyph glyph-name="R" unicode="R" horiz-adv-x="664" 
d="M156 25v73l-107 625q-19 15 -13 32.5t29 35t57.5 32t72 22.5t73 7.5t59.5 -13.5q2 -2 10 -9t17 -16t17.5 -18.5t12.5 -14.5q41 -52 54.5 -107t6.5 -110.5t-30.5 -111t-54.5 -107.5q-2 -3 -6.5 -8.5t-10 -12t-10 -12.5t-6.5 -8q2 -4 20 -13.5t45.5 -23t61 -30t65.5 -34
t59 -36.5t42.5 -37t15 -34.5t-22.5 -29.5q-5 7 -16 16.5t-23 19.5t-22 18t-13 11l-179 91q-19 -3 -36.5 4t-37.5 4q-5 -26 1 -57t16 -63t21.5 -63t18.5 -55q1 -2 1 -8.5t-1 -8.5h-8q-18 3 -46 8.5t-54 11t-45 9.5l-19 4zM253 394q24 21 42 39t32 44q14 25 23.5 68t10.5 88.5
t-8.5 86t-33.5 61.5q-13 11 -29.5 24t-36.5 9q-3 -1 -11 -3t-17 -5t-17.5 -5.5t-11.5 -3.5q-4 -48 1 -98t13.5 -100.5t18.5 -100t16 -96.5z" />
    <glyph glyph-name="S" unicode="S" horiz-adv-x="578" 
d="M253 21q-25 12 -50.5 28t-49.5 36t-44.5 45t-33.5 54q-9 18 -18 37.5t-15 39.5t-6.5 40t8.5 39q1 1 3 7.5t3 7.5q3 2 12.5 2t12.5 -2q2 -68 24.5 -122.5t59.5 -92t85 -55.5t101 -12q14 2 30.5 11t24.5 26q3 56 -9 101.5t-34.5 84t-53 71t-64 61.5t-68.5 56.5t-65 55.5
q-40 37 -51.5 91.5t0 108.5t41 99t70 64t89 3t96.5 -84q15 -21 20 -41t1.5 -29t-15.5 -2t-31 42q-15 28 -34.5 33.5t-38 -4t-33.5 -30t-22 -43.5q-9 -27 -11.5 -59t1.5 -63.5t15 -60t31 -47.5q9 -5 30 -17.5t44.5 -27t44.5 -27.5t29 -18q34 -21 68.5 -43.5t66.5 -51.5
q12 -11 23 -33t13 -42q7 -47 -3 -87t-32.5 -72t-54 -54t-67.5 -32.5t-73 -9t-70 17.5z" />
    <glyph glyph-name="T" unicode="T" horiz-adv-x="550" 
d="M350 -65q-2 1 -4 3.5t-2 3.5v184l-103 581q-3 14 -4.5 18t-13.5 2q-9 -2 -25 -5t-31.5 -6t-28 -6t-14.5 -3q-3 -1 -12 -5.5t-19 -9t-19 -8.5t-12 -5q-2 -1 -9 -1t-9 1q-6 11 0.5 20.5t18 16.5t24.5 11.5t19 6.5l295 68q6 -2 14 2t11 4q5 1 18.5 4.5t28 7t28 6t18.5 3.5
q11 -8 12 -15t-6 -18q-5 -2 -18.5 -4.5t-28 -6t-28 -6.5t-18.5 -4q-11 -3 -15 -16t-5 -28.5t0 -30t2 -21.5q1 -16 3.5 -48.5t5.5 -72.5t6 -82.5t6 -78t5 -60t3 -27.5q2 -14 10 -48t18 -72t19 -72t14 -47q4 -6 10 -20.5t10.5 -30t5 -28.5t-6.5 -16q-45 5 -85.5 -4.5
t-75.5 -43.5q-1 1 -5.5 3t-6.5 4z" />
    <glyph glyph-name="U" unicode="U" horiz-adv-x="558" 
d="M213 31q-17 7 -30.5 20.5t-25 30.5t-20 36t-14.5 39q-31 136 -48.5 272t-35.5 273q22 9 41 25.5t37 36.5t34.5 42t33.5 42q3 1 7.5 3.5t9.5 4t9.5 0t6.5 -7.5v-83q1 -18 2.5 -44.5t3 -57.5t3.5 -62t3.5 -57t2.5 -44t2 -22q2 -14 8 -47.5t13 -71.5t14 -71.5t10 -46.5
q39 -81 72 -103t57 0t39.5 82t19.5 144t-3 186t-28 208v35q2 -1 8.5 -5t8.5 -9l17 -70q8 -43 16.5 -98t14.5 -115t6.5 -121.5t-7.5 -118t-27 -104t-53 -79t-85 -44t-123 1.5z" />
    <glyph glyph-name="V" unicode="V" horiz-adv-x="504" 
d="M115 801l7 7q21 -14 32 -35.5t21 -43.5q3 -6 11.5 -29t18.5 -49t18.5 -48.5t11.5 -28.5q3 -8 14.5 -30t25.5 -47.5t27 -49t19 -34.5q2 -3 9.5 -14t17 -25t19 -27t14.5 -20q2 -2 6.5 -7t6.5 -7q2 15 7.5 52t12 78.5t12 78.5t8.5 52q13 76 18 153.5t16 154.5q1 6 6.5 8
t12 0.5t11 -7.5t3.5 -15q-15 -160 -29.5 -279.5t-27 -207.5t-23 -149.5t-17.5 -106t-9.5 -77t-0.5 -62.5h-20l-349 628z" />
    <glyph glyph-name="W" unicode="W" horiz-adv-x="647" 
d="M491 -41l-11 11t-16 17t-15 17t-10 11q-10 20 -24 49.5t-29 61t-28 60t-22 45.5q-5 -11 -17.5 -38t-26.5 -57t-27 -56.5t-18 -36.5q-1 -3 -4.5 -9t-7.5 -12.5t-8 -12.5t-6 -8q-8 -2 -15 -2q-6 0 -11 2t-6 7q-2 12 -10 42t-17 63t-18 62.5t-13 41.5q-2 6 -10 25.5
t-18 42.5t-20 45l-15 33q-2 3 -8.5 14.5t-14 24t-14.5 24t-8 14.5q-3 6 -12 28t-18 47.5t-15 48t-3 30.5q2 4 7.5 13.5t11.5 21t11.5 21t7.5 13.5q4 7 11.5 24.5t16.5 37t18.5 36t17.5 21.5q9 5 19 0t13 -14q2 -11 9.5 -42t17.5 -71.5t21.5 -86t22 -86t18.5 -71t11 -41.5
q4 -15 10.5 -36t15 -43.5t18 -43.5t20.5 -37l44 97q8 17 14.5 17t12 -8t8.5 -19.5t4 -17.5q13 -33 27.5 -70t31.5 -73.5t38.5 -69.5t49.5 -58l126 716q2 11 7 11t10 -7t8 -18t1 -21l-127 -744q0 -2 -7 -2t-11 2q-2 1 -9.5 6.5t-9.5 7.5z" />
    <glyph glyph-name="X" unicode="X" horiz-adv-x="742" 
d="M172 -49q0 1 -4 5t-9 8.5t-9 8t-4 4.5q23 32 37.5 58t34.5 55q3 5 15 22.5t26.5 37.5t26.5 37t15 21q9 13 7.5 19t-15.5 16q-5 3 -23.5 16t-40 28.5t-40.5 28.5t-24 16q-11 9 -36 27t-51 39t-47 41t-24 32q28 20 45 40t30.5 41t28 43.5t39.5 47.5q3 -6 11.5 -19.5t18 -29
t18 -29t12.5 -19.5q16 -23 48.5 -54t66.5 -59t60 -45.5t29 -13.5l158 241l44 -11q-23 -37 -49.5 -70t-49.5 -65.5t-39.5 -67.5t-18.5 -76q65 -45 135 -86t136 -93q-32 -37 -62.5 -73.5t-66.5 -66.5l-247 195q-40 -57 -67.5 -96t-46 -64.5t-30 -40.5t-18 -23.5t-11 -14
t-9.5 -11.5z" />
    <glyph glyph-name="Y" unicode="Y" horiz-adv-x="515" 
d="M265 29l-9 5q2 38 1.5 83t-4 91t-10.5 91.5t-17 85.5q-51 58 -98 113t-95 112q-2 3 -8 8.5t-10.5 12.5t-4.5 13t9 9l97 117q68 -79 106 -126t59 -72t31.5 -33.5t22.5 -10.5l136 212q14 -2 33.5 -4t28.5 -6q-12 -26 -37.5 -63t-52 -75.5t-47 -73.5t-22.5 -57l68 -421
q3 -11 -2.5 -14t-14.5 -2.5t-19.5 3t-17.5 2.5h-123z" />
    <glyph glyph-name="Z" unicode="Z" horiz-adv-x="604" 
d="M24 19l184 372l64 184l-166 -53q-10 -3 -15.5 1t-7 10.5t0.5 14t8 10.5q37 25 83 43t94.5 31t98 21t93.5 13q8 5 14 3.5t9.5 -6t4.5 -10.5t0 -10q-2 -6 -5 -16t-6.5 -19.5t-6 -17t-3.5 -8.5l-184 -371l-41 -124l308 52q6 1 13 -1t11 -6.5t3.5 -10.5t-8.5 -12
q-72 -8 -138.5 -19.5t-130.5 -27t-127.5 -35t-129.5 -44.5q-3 -2 -11.5 1t-8.5 5v30z" />
    <glyph glyph-name="bracketleft" unicode="[" horiz-adv-x="395" 
d="M63 9q-2 1 -5 4t-4 5q-1 20 -3 63t-5 97t-5.5 113.5t-5.5 113.5t-5 96.5t-3 63.5q0 3 -0.5 8t-0.5 11t2 10.5t8 6.5l233 63q9 2 18 -0.5t14.5 -8t5 -13t-10.5 -14.5q-5 -1 -16.5 -3.5t-24 -5.5t-24.5 -5.5t-16 -3.5q-2 -1 -9 -4t-9 -5q-4 -20 -6.5 -43.5t-3.5 -47
t-1 -46.5t2 -42q1 -14 3.5 -43t6 -65t7.5 -76t8 -76.5t6.5 -65t4.5 -42.5q11 -1 38.5 4t55.5 6.5t47 -3.5t12 -25q-1 -2 -4 -5t-5 -4q-75 -11 -144 -14.5t-143 -12.5q-2 1 -9 4t-9 5z" />
    <glyph glyph-name="backslash" unicode="\" horiz-adv-x="565" 
d="M390 9q-59 115 -130.5 225t-147.5 214q-4 5 -19.5 16.5t-32 24.5t-29 24t-9.5 16q20 7 34 18t25 24.5t20 30t20 35.5q18 4 35 -7.5t32.5 -31t29.5 -44t27 -48t24.5 -42t21.5 -25.5q6 -9 19 -27t30 -41t35.5 -48.5t35.5 -48.5t30 -41.5t20 -26.5q4 -5 14 -15l21.5 -21.5
l21.5 -21.5t15 -13q2 -4 2 -14t-2 -13q-1 -1 -10.5 -9.5t-24 -21t-31 -26.5t-31.5 -25.5t-25.5 -19t-11.5 -6.5q-2 1 -5 4t-4 5z" />
    <glyph glyph-name="bracketright" unicode="]" horiz-adv-x="381" 
d="M40 18q-2 2 -2 9t2 9q7 1 20.5 3.5t29.5 6.5t31.5 8t26.5 9q1 7 2 25t2.5 38t2.5 37.5t1 24.5q0 17 0.5 52t0.5 79.5v93.5v93t-0.5 79t-0.5 52q-9 1 -31 -2.5t-45 -5t-43 3.5t-24 22q-1 3 2.5 9.5t6.5 8.5q8 1 28.5 3.5t43 5.5t43 5.5t28.5 3.5q26 3 52.5 11.5t48 10.5
t36 -7t16.5 -42l22 -328t5 -327q-8 0 -27 0.5t-40.5 0.5t-41 -0.5t-26.5 -0.5q-11 0 -34.5 -4.5t-50 -6.5t-50 1.5t-35.5 18.5z" />
    <glyph glyph-name="asciicircum" unicode="^" horiz-adv-x="430" 
d="M40 126q-9 7 -16.5 15.5t-10.5 19.5q2 2 7.5 7t11 10.5t10.5 11t7 7.5q8 11 27.5 38t41 57t40 56.5t25.5 37.5q1 1 4.5 8t8 15.5t8.5 16.5t6 13q12 26 21 35.5t16 7.5t12 -12.5t9 -24t7.5 -27.5t6.5 -23q22 -60 54.5 -113t71.5 -103v-27q-19 -6 -36.5 12.5t-33.5 44.5
t-30 52t-26 35q-33 -38 -57.5 -70t-43.5 -64.5t-33 -69.5t-27 -83q-5 -10 -13.5 -10t-13.5 10z" />
    <glyph glyph-name="underscore" unicode="_" horiz-adv-x="556" 
d="M27 27q1 7 3.5 26.5t5.5 40.5t5.5 40t3.5 27q12 10 17 9t19 0q13 1 40.5 3t62 5t72.5 5.5t72.5 5.5t62 5t40.5 3q7 2 20.5 5.5t28 7t28 5.5t21.5 0q0 -3 -2 -22.5t-7.5 -45.5t-13 -53.5t-17.5 -45.5t-22.5 -21.5t-26.5 18.5q-98 5 -200 -4t-195 -41q-3 0 -9.5 3.5
t-8.5 5.5v18z" />
    <glyph glyph-name="grave" unicode="`" horiz-adv-x="833" 
d="M92 595q1 7 3.5 26.5t5.5 40.5t5.5 40t3.5 27q12 10 17 9t19 0q13 1 41.5 -11.5t65.5 -32t77.5 -42t77 -42t65.5 -32t42 -11.5q7 2 16.5 -0.5t19.5 -7t19.5 -9t17.5 -6.5q4 -65 -8 -95.5t-36.5 -36.5t-58 6.5t-72.5 34t-81 47t-82 45t-76 28t-64 -4.5q-3 0 -9.5 3.5
t-8.5 5.5v18z" />
    <glyph glyph-name="a" unicode="a" horiz-adv-x="457" 
d="M173 -46q-47 7 -69.5 27.5t-26 47t9.5 56.5t36.5 55.5t55 43.5t66.5 21q1 12 2.5 37.5t3 57.5t3.5 67t3.5 67t3 57t2.5 37q0 9 -1.5 21.5t-4.5 25.5t-8.5 24.5t-12.5 18.5q-4 4 -11.5 2t-15 -6.5t-13 -9l-5.5 -4.5l-17 -17t-22.5 -22t-20.5 -20.5t-11 -12.5
q-1 -1 -4.5 -7.5t-8 -15t-8.5 -17.5t-6 -14q-1 -1 -2 -5t-2.5 -8.5t-2.5 -8.5t-2 -5q-10 -6 -23.5 -0.5t-24 16.5t-16 24t0.5 23q13 21 36.5 46t51.5 48.5t57 41.5t52 25q39 12 73.5 3.5t60 -31t40.5 -55.5t15 -69v-493q18 -12 18 -21t-9 -15.5t-22.5 -10.5t-22.5 -7
q-19 -6 -31.5 -11l-22.5 -9t-20 -6t-25 -1q-9 1 -24.5 2t-31 2.5t-28 3t-15.5 1.5zM182 -1q17 -13 27 -9.5t16 15.5t8 28.5t3 28.5q0 4 0.5 15.5t0.5 24.5t-0.5 24t-0.5 16q-19 9 -38 -5.5t-30 -39.5t-10 -53t24 -45z" />
    <glyph glyph-name="b" unicode="b" horiz-adv-x="471" 
d="M139 9q-17 6 -29.5 19t-20.5 29.5t-13.5 35t-8.5 33.5q-2 7 -6 26.5t-8.5 40.5t-8 40t-4.5 27q0 13 0.5 41.5t0.5 63.5v74.5v74.5t-0.5 63t-0.5 42q0 6 -1.5 29.5t-3 51t-3 51t-1.5 29.5v45q1 10 10 18t20.5 15t23 14.5t18.5 15.5q4 6 19.5 26.5t34 42t36 36.5t26.5 11
q0 -4 0.5 -14t0.5 -21.5t-0.5 -21.5t-0.5 -14q-1 -8 -3.5 -33t-6 -58t-8 -70.5t-8.5 -70.5t-6.5 -58t-3.5 -33q0 -7 -0.5 -31t-0.5 -53t0.5 -56t0.5 -40q0 -3 1.5 -10.5t3 -16t2.5 -16t2 -10.5q42 47 87 57.5t82.5 -5.5t62.5 -54.5t27 -89.5t-24 -109t-91 -113
q-40 -35 -92.5 -53t-104.5 -1zM246 143q3 -7 10 -20.5t8 -14.5q9 -9 31.5 4t46.5 39t44 60t23.5 66t-14 57t-68.5 34q-20 3 -37.5 -1t-33.5 -13t-29.5 -22t-25.5 -27q2 -1 5.5 -4t3.5 -5q4 -23 6.5 -41t5.5 -34.5t8.5 -35t15.5 -42.5z" />
    <glyph glyph-name="c" unicode="c" horiz-adv-x="475" 
d="M195 72q-44 5 -81.5 40t-63.5 86.5t-38 114.5t-5 125t36.5 117.5t85.5 92.5q22 10 43.5 3.5t40 -23t33 -39t22 -45t7 -41t-11.5 -25.5q-11 -8 -20.5 1t-18 19.5t-16.5 16t-17 -9.5q-39 -58 -55 -112.5t-14.5 -100t17.5 -80.5t42.5 -54.5t60.5 -21t70 19t72.5 66.5
t67.5 121q12 -37 6.5 -72.5t-24 -67t-47 -57.5t-61 -43.5t-67 -26t-64.5 -4.5z" />
    <glyph glyph-name="d" unicode="d" horiz-adv-x="507" 
d="M269 72q-65 -5 -112.5 13t-77.5 50t-44 74t-12.5 86t18 85t46.5 71t73.5 45t99.5 6q5 58 -7 118.5t-29 114.5q-1 4 -5.5 17t-10.5 27t-11.5 27t-8.5 19q-14 30 -12 44.5t14.5 22.5t33.5 14t45 18q13 6 31.5 20t37 22.5t34 5.5t23.5 -30q-18 -64 -26 -139.5t-8.5 -152.5
t6.5 -152t19 -139q7 -36 23.5 -74t32.5 -76.5t26.5 -77.5t6.5 -77q-10 2 -28.5 -2.5t-41.5 -12t-47 -16t-44 -14t-32.5 -6.5t-12.5 6v63zM162 135q26 -14 58 -12.5t58 3.5q0 7 0.5 26.5t0.5 40.5t-0.5 40t-0.5 27q-1 23 -0.5 58t-6 65t-25.5 48t-58 8q-36 -9 -61.5 -30.5
t-39 -50t-16 -61t7 -63t30 -57t53.5 -42.5z" />
    <glyph glyph-name="e" unicode="e" horiz-adv-x="537" 
d="M105 76q-15 7 -27 20t-20 29.5t-13 34.5t-6 33q-8 80 8.5 147.5t47.5 119.5t72.5 88.5t83.5 55t80 17.5t63 -23.5t31.5 -67.5t-13.5 -114q-1 -1 -5 -8.5t-9.5 -16.5t-11.5 -18.5t-9 -15.5q-2 -3 -6 -8t-5 -5l-116 15l-3 -5t-7 -12.5t-8 -15.5t-6 -13q-16 -37 -20.5 -72.5
t-8.5 -77.5q15 -25 39.5 -36t53.5 -11.5t60 7t60 20.5t52.5 29t38.5 32q13 2 22 -2t12 -11.5t0 -16.5t-13 -18q-41 -36 -91.5 -62t-105.5 -38t-111.5 -8t-108.5 28zM307 448q-2 -3 -7 -10t-10 -15t-10 -15t-7 -10l72 -10q1 0 4.5 3t5.5 5q2 3 5.5 8t7 10.5t6.5 9.5t3 5
q1 3 2.5 12t3 19t2 19t0.5 12q-11 6 -22.5 2.5t-22 -12t-19.5 -18t-14 -15.5z" />
    <glyph glyph-name="f" unicode="f" horiz-adv-x="448" 
d="M156 -54q2 17 2.5 53t-0.5 81t-3.5 93.5t-7.5 90.5t-11.5 72.5t-14.5 39.5q-3 3 -22 -3t-40 -10.5t-36 -3.5t-10 17q2 4 5 11t4 7l99 36q1 0 -2 27.5t-7.5 69.5t-8 93.5t-3 100t7 89t22.5 60.5q3 3 10 11t15.5 16.5t16.5 15.5t11 10q9 -4 10.5 1.5t7.5 7.5q31 13 59 12
t51.5 -13.5t41 -35t28.5 -52.5q-1 -5 -7.5 -15t-10.5 -12q-10 -5 -17 8.5t-17 30t-25 26.5t-40 -2q-10 -13 -14.5 -32.5t-5.5 -39.5t0 -39.5t2 -32.5q1 -14 4.5 -50t8 -75.5t8.5 -75.5t6 -50q10 4 27.5 11.5t37.5 14t41 10t38 0.5q5 -1 7 -6.5t2 -11.5t-2.5 -11.5t-6.5 -6.5
l-135 -45q-7 -2 -9.5 -10.5t-2.5 -17.5t1.5 -17t1.5 -9q1 -7 3.5 -21t5.5 -28t5.5 -25.5t3.5 -14.5l108 -287v-45q-11 -2 -38 -7t-57 -10.5t-56.5 -11t-37.5 -7.5t-17.5 -5t-12.5 -4t-11.5 3t-12.5 15v9z" />
    <glyph glyph-name="g" unicode="g" horiz-adv-x="448" 
d="M174 -463q-36 7 -61.5 36.5t-41 67.5t-22 78.5t-4.5 68t12 35.5t27 -17q1 -5 4.5 -18t8 -27.5t8.5 -27t6 -17.5q7 -18 14.5 -42.5t19.5 -45.5t29.5 -33t43.5 -4q50 13 75.5 48.5t35 83.5t7 104t-9.5 111.5t-13.5 105t-4.5 85.5l-9 9q-12 -11 -28.5 -28.5t-34 -34
t-35.5 -27t-34 -7.5q-56 16 -89.5 49t-49 75.5t-13.5 90.5t17.5 94t43 86t63.5 65.5t79 33t90 -10.5q21 -3 33.5 -11.5t22.5 -19t19.5 -21.5t23.5 -20q1 -32 -2 -63.5l-6 -63t-4.5 -62.5t3.5 -62l63 -404q10 -69 -9 -123t-59.5 -88.5t-97.5 -47.5t-121 -1zM141 104
q16 -11 38 -0.5t44 29t42 39t34 29.5q8 102 -27 197q-24 41 -49.5 52.5t-49 2t-44 -35.5t-34.5 -61t-20.5 -74.5t-2 -75t21 -63t47.5 -39.5z" />
    <glyph glyph-name="h" unicode="h" horiz-adv-x="578" 
d="M179 9q2 22 2.5 36.5t-1.5 29t-6 32.5t-11 46t-17.5 70.5t-24.5 106t-32 151t-40 207.5q-4 7 -9 15.5t-9 17.5t-4.5 18t4.5 16q25 23 48.5 48t46 50.5t45.5 50.5t48 48q10 7 17 1.5t11.5 -16t6.5 -22.5t1 -17q-19 -31 -24.5 -81.5t-4 -104.5t7 -104t8.5 -79l9 -27
q31 28 66 39t68.5 6t63.5 -25.5t53 -55.5q3 -4 6.5 -11t7.5 -14t6.5 -12.5t2.5 -6.5l9 -364q20 -35 25 -53.5t1 -24.5t-14 -1.5t-21 14.5t-19 23t-8 25l-9 363l-4.5 8.5t-11 20t-13.5 23.5t-11 19q-18 29 -46 35.5t-55.5 -2.5t-50 -30t-28.5 -48q0 -2 -0.5 -8t-0.5 -13
t0.5 -13.5t0.5 -9.5q12 -71 32 -132.5t49 -127.5q2 -10 -7.5 -25.5t-26.5 -31.5t-38 -30.5t-41 -24t-36 -12t-22 6.5z" />
    <glyph glyph-name="i" unicode="i" horiz-adv-x="260" 
d="M22 27q2 5 6 17.5t8.5 27t8 27.5t4.5 18q4 23 10.5 61t12.5 75.5t9.5 65.5t3.5 31l-18 116l9 18q12 3 27 10t30 11.5t28 3t22 -15.5q0 -13 1.5 -46t3 -70.5t2.5 -70.5t2 -46q1 -24 10 -52.5t18 -56t15 -51t2 -37.5q-42 -5 -84 -12t-77 -33q-5 -4 -15.5 -11t-11.5 -7
q-5 1 -15.5 11.5t-11.5 15.5zM58 610q-10 21 -7 39.5t14 35.5t26.5 32t29.5 27q11 8 20 -0.5t15.5 -26.5t9.5 -41t1.5 -44t-8.5 -35t-20 -14h-63q-2 0 -8.5 10.5t-9.5 16.5z" />
    <glyph glyph-name="j" unicode="j" horiz-adv-x="323" 
d="M54 -583q-35 13 -58 37t-35.5 54t-16 64t1.5 69q1 6 6 8t11 2.5t11.5 0t7.5 -1.5l3.5 -17.5t5.5 -27t5.5 -27.5t3.5 -18q15 -58 31.5 -79t35.5 -14.5t40 37t45 74.5q21 39 26.5 97t1 125t-17.5 139t-29.5 139t-34.5 124.5t-33 95.5q-17 6 -13.5 15t15 19t25 18t17.5 11
q6 4 22 19.5t34.5 29.5t37.5 20.5t32 -6.5q1 -1 1 -4.5t-1 -4.5q26 -83 46.5 -188.5t34 -217t18 -219t-1.5 -194.5q-11 -34 -22 -65.5t-28 -57t-43.5 -43t-68.5 -22.5q-27 -3 -58.5 -2t-57.5 11zM29 478q-9 9 -11.5 25.5t0 35.5t9 38.5t16.5 33.5t22 20t26 -1q24 -12 35 -34
t11.5 -46.5t-8.5 -47t-23.5 -35.5t-34.5 -12t-42 23z" />
    <glyph glyph-name="k" unicode="k" horiz-adv-x="641" 
d="M144 9q-8 5 -13 15t-8 21t-4.5 21t-1.5 15l-81 771q-4 11 -7.5 26t-1.5 28q17 12 37 29t35 34q9 10 17.5 28.5t19 34t23 22.5t29.5 -5q-2 -68 -1 -140t3.5 -144t6.5 -143t9 -138l27 27l189 314q4 7 10 4.5t10.5 -9.5t7 -16t-0.5 -15l-126 -224l18 -9l269 -457v-18
q-23 -6 -33 5.5t-21 30.5q-3 5 -11 20t-19 35.5t-23.5 43t-23.5 43t-19 35.5t-11 20q-8 12 -28 43t-43 65.5t-43.5 64.5t-29.5 42q-7 7 -21.5 -13.5t-28.5 -51.5t-23.5 -64t-7.5 -50q6 -45 12.5 -82.5t15.5 -73.5t22 -72t31 -77v-36l-143 -9q-2 0 -8.5 3.5t-9.5 5.5z" />
    <glyph glyph-name="l" unicode="l" horiz-adv-x="377" 
d="M162 9q-29 5 -49.5 21.5t-34 39t-21.5 49t-12 51.5q-12 79 -14 155t2.5 151t15 150t23.5 154q5 32 23 55.5t42.5 42.5t52 36t52.5 37q6 2 11 -1t7 -8q6 -29 3.5 -51t-9 -43t-15 -43t-15.5 -52q-30 -133 -39 -263t-6 -266q1 -6 12 -33t25.5 -57t29.5 -52.5t23 -18.5l54 27
q1 1 5 -2t8.5 -7t8 -9t5.5 -9q2 -3 -2 -10t-7 -8q-4 -4 -15 -11t-23.5 -14.5t-24.5 -13t-18 -6.5q-3 0 -15.5 0.5t-28 2l-31 3t-23.5 3.5z" />
    <glyph glyph-name="m" unicode="m" horiz-adv-x="776" 
d="M45 -96q3 13 7.5 37.5t9 52t7.5 56t3 51.5q0 16 1 48t1.5 73t2 85.5t2 85.5t1.5 73t1 48q2 0 13 5.5l27 13.5t35 16.5t37 15.5t33.5 10.5t24.5 1.5q-8 -29 -15.5 -61t-2.5 -65q13 18 32 37.5t41 36.5t44.5 28.5t43 13t37.5 -10.5t27 -41q71 68 118 88t76 5t43 -59.5
t20 -105t7 -131t3.5 -138.5t10 -127.5t26.5 -97.5q-2 -6 -14.5 -11t-28 -8t-28.5 -2.5t-15 6.5q-1 74 1 145t4 141.5t3 141.5t-2 143q-5 28 -20.5 44t-36.5 21t-44.5 0.5t-44 -17.5t-35 -32t-17.5 -43q-11 -37 -14.5 -81t-3 -89.5t4.5 -90.5t8 -82.5t6 -65t-1 -38.5
q-1 0 -12.5 -0.5t-24.5 -1t-23.5 -1t-10.5 0.5q13 47 20.5 101.5t8.5 109.5t-3.5 105.5t-16 88t-29 58t-42.5 15.5t-56.5 -39.5t-70.5 -106.5q-2 -69 -0.5 -134.5t9.5 -134.5q5 -38 13 -75t5 -77q-72 -22 -112.5 -31t-60.5 -11t-26 0.5t-7 5.5z" />
    <glyph glyph-name="n" unicode="n" horiz-adv-x="520" 
d="M72 9q-8 5 -9 7.5t0 10.5q4 67 8.5 136t3 137.5t-12 135t-35.5 129.5q-1 2 -1 9t1 9q22 10 40.5 20t36 20t35.5 20.5t40 20.5q19 -7 24 -18.5t3 -26.5t-6.5 -31t-2.5 -32q11 16 30 43.5t42.5 55t49 48t49.5 23.5q40 5 66.5 -9.5t40.5 -40.5t18 -60.5t0 -68.5l-44 -377
q-2 -18 0.5 -31.5t7.5 -25.5t12.5 -23.5t14.5 -26.5q3 -5 -2 -15.5t-7 -11.5q-10 -6 -20 0.5t-18.5 18.5t-15 25t-8.5 19q-1 9 -1.5 30.5t-0.5 45.5t0.5 45.5t1.5 30.5q0 6 3 25.5t6.5 45t8 55t8.5 55t6.5 45t3.5 25.5q1 13 1.5 34.5t0.5 43t-0.5 38t-1.5 19.5l-27 54
q-1 1 -6.5 1.5t-12.5 0.5t-14.5 -0.5t-11.5 -1.5q-2 -1 -12 -7.5t-15 -10.5q-37 -29 -68 -62.5t-53 -71.5t-33 -80.5t-8 -90.5q1 -16 3.5 -46.5t5.5 -62t5.5 -57t3.5 -32.5q1 -3 4.5 -15t7.5 -26.5t8.5 -28l6.5 -19.5q13 -34 19 -52t6 -24t-6 -4t-16.5 6.5t-25 8.5t-31.5 2
q-9 -1 -23.5 -5t-30 -7t-30 -3t-23.5 6z" />
    <glyph glyph-name="o" unicode="o" 
d="M159 115q-19 2 -31 11.5t-23 24.5q-25 35 -42.5 82t-24.5 98.5t-1.5 103t25 96t54 77t87.5 45.5q39 10 80 -1.5t75.5 -37t56.5 -62t22 -78.5v-225q0 -2 -2 -8.5t-5 -13.5t-6 -13t-5 -9q-12 -18 -23.5 -35.5t-24.5 -31.5t-29.5 -23t-39.5 -9q-6 0 -26 1t-42.5 2.5t-44 3
t-30.5 2.5zM266 205q23 -16 44.5 -6t37.5 36t26 62.5t10 73.5t-10.5 69.5t-35.5 51.5q-4 2 -11 9t-7 9q-4 12 -3 19.5t2.5 13.5t0.5 12t-9 17q-10 13 -20 11.5t-19 -10t-15.5 -20t-8.5 -17.5q-1 -3 -3.5 -11.5t-5.5 -18.5t-5.5 -19t-3.5 -13t-2 -13.5t-2.5 -19.5t-3 -18.5
t-1.5 -11.5q-1 -18 -2 -47t2.5 -59.5t13.5 -58t31 -41.5z" />
    <glyph glyph-name="p" unicode="p" horiz-adv-x="453" 
d="M121 -502q-3 10 -1.5 18.5t4.5 16.5t5 17t1 20l-81 762q0 3 -1.5 9.5t-3 14t-2.5 13.5t-2 8q0 1 -3 6.5t-6.5 11.5t-6 11t-2.5 7q0 15 19 30.5t44.5 28t51 21t37.5 9.5q7 1 23.5 1h35.5h35.5t22.5 -1q41 -14 68 -41.5t41.5 -63t17.5 -76t-4 -80.5t-22.5 -77t-37.5 -65
q-24 -30 -45 -48t-37.5 -31t-28 -24t-17.5 -28t-5.5 -43t7.5 -68q5 -15 17.5 -52t27 -78.5t27.5 -78.5t18 -51q13 -36 14 -50t-9.5 -17t-32.5 -1.5t-53 -3.5q-3 0 -20.5 -8t-38 -15.5t-38 -10t-19.5 6.5zM192 72q0 -3 1.5 -9t3 -13.5t3 -13.5t1.5 -9h9q3 2 13.5 8.5
t13.5 9.5q49 39 86.5 90.5t51.5 107t-2 111t-73 104.5q-2 2 -9 5.5t-9 3.5q-5 0 -17.5 0.5t-27 0.5t-27.5 -0.5t-18 -0.5q2 -50 0 -99.5t-4 -98.5t-2 -98t6 -99z" />
    <glyph glyph-name="q" unicode="q" horiz-adv-x="507" 
d="M342 -320l-0.5 16.5t-1.5 44t-2 61.5t-2 69t-2 67t-1 56v54q0 9 -1.5 32t-3 48.5t-2.5 48.5t-2 32q-21 -12 -48 -23t-55 -16.5t-55 -1.5t-48 23q-41 36 -60.5 78.5t-21 86t14.5 85t45.5 75.5t71.5 57.5t93 30.5h9q43 -12 78 -24t60 -30.5t40 -48t19 -77.5l45 -484
q-4 -16 -7.5 -39t-1.5 -42h9q30 34 54 47t36 9.5t7 -21t-34 -44.5q-17 -16 -44.5 -41t-54.5 -49.5t-48 -42.5t-23 -19l-54 -27zM145 245q32 -8 64 -10.5t61 19.5q5 4 14 12.5t18 19t15.5 21t6.5 19.5v143q0 33 -18.5 52t-46.5 22.5t-59.5 -8t-57.5 -39.5t-41 -72.5
t-10 -106.5q2 -30 13.5 -47.5t40.5 -24.5z" />
    <glyph glyph-name="r" unicode="r" horiz-adv-x="516" 
d="M18 549q-3 11 5.5 16.5t26.5 17.5t46 36t65 73q6 6 10.5 5t8.5 -5t6 -9.5t2 -8.5v-125q23 25 55 52.5t67 42t69 8t61 -48.5q12 -19 23.5 -43.5t19.5 -50.5t11.5 -53t-1.5 -51q0 -2 -3.5 -5t-5.5 -4q-15 41 -30.5 84t-36.5 72.5t-50 39t-71 -15.5q-8 -5 -22 -16t-28 -24.5
t-25.5 -27t-14.5 -22.5q7 -33 19.5 -70.5t27.5 -77t30 -80t26.5 -80.5t16.5 -78.5t1 -72.5q-7 -1 -25 -3.5t-38 -5.5t-38 -5.5t-25 -3.5q-2 0 -12 -4t-21 -6t-20 -1t-9 11z" />
    <glyph glyph-name="s" unicode="s" horiz-adv-x="520" 
d="M205 -28q-40 8 -70.5 19.5t-53.5 29.5t-38.5 45.5t-25.5 66.5q-1 3 -0.5 9t2.5 11.5t6 8t10 -1.5q14 -9 21.5 -24t14 -30.5t14 -30t22.5 -22.5q26 -15 60 -25t68 -9t64.5 14.5t49.5 46.5q19 34 15 63.5t-23.5 56.5t-49 52t-60.5 51t-59 53.5t-44 59t-15.5 68t26.5 79.5
q30 50 69 69t72 11t53 -42.5t13 -91.5q-12 -6 -21 2t-18 19t-19 19.5t-23 4.5q-14 -5 -21 -20.5t-7.5 -34t5 -36t14.5 -25.5q23 -20 56.5 -53.5t67.5 -71.5t62 -76t41 -68q19 -44 14 -77.5t-26 -57.5t-54.5 -39t-70.5 -22t-74.5 -7t-66.5 6z" />
    <glyph glyph-name="t" unicode="t" horiz-adv-x="561" 
d="M295 86q-55 28 -83.5 73.5t-41.5 99.5t-17 112t-10 110q-15 4 -28 0.5t-25.5 -8t-25.5 -6.5t-29 5q12 20 24.5 27.5t27 11t30.5 7t35 16.5q1 13 4.5 45t8 67.5t8 67.5t5.5 45q1 7 3.5 19t5.5 23t5.5 19.5t3.5 9.5l171 162q5 4 15 1t12 -10q1 -7 1 -24t-1 -21l-95 -341h23
l126 45q14 5 25.5 1t11.5 -12.5t-16.5 -20t-56.5 -22.5q-5 -1 -18 -4.5t-27.5 -8t-27 -8.5t-17.5 -6q-14 -18 -17.5 -49.5t-2 -67.5t5.5 -72t5 -62q6 -37 20.5 -69t33 -54t40 -31t41 0.5t36 39.5t26.5 87q25 -14 27 -39.5t-11.5 -54.5t-40 -56.5t-58.5 -45t-67 -20t-65 18.5
zM295 234q-3 0 -3 -4.5t3 -4.5q4 0 4 4.5t-4 4.5z" />
    <glyph glyph-name="u" unicode="u" horiz-adv-x="462" 
d="M233 38q-16 2 -33 10.5t-32 20.5t-26.5 27.5t-17.5 30.5l-17.5 52.5t-26.5 80t-26.5 80.5t-17.5 53q-24 74 -20.5 123t23.5 77.5t51 38t63 3.5l71 -371q13 -54 34.5 -85.5t45 -42.5t46.5 -3.5t39 31.5t22 63t-4 91l-56 291q-2 8 6 15t18 10t19 0t10 -15q9 -40 22 -102
t21 -130t5.5 -135t-24.5 -118t-68.5 -79t-126.5 -17z" />
    <glyph glyph-name="v" unicode="v" horiz-adv-x="511" 
d="M54 475q-25 17 -31.5 30.5t-3 28.5t14.5 33t20 43l8 24t11 30.5t13.5 28.5t16.5 18t19 -1t22 -28l15.5 -31t23.5 -47.5t28 -56t28 -56t23.5 -47.5l15.5 -31q3 -5 12 -16.5t19 -24.5t19 -24.5t13 -15.5l9 -9l9 -9l89 332q1 2 7.5 2t10.5 -2q12 -6 14.5 -23t-0.5 -40
t-10.5 -49t-15 -50t-14.5 -43t-9 -28q-2 -5 -5.5 -22.5t-7.5 -39t-8 -42t-6 -31.5q-1 -2 -0.5 -9t0.5 -9q-4 -27 -10 -68t-11.5 -79.5t-10 -66.5l-4.5 -28l-18 -18l-27 27z" />
    <glyph glyph-name="w" unicode="w" horiz-adv-x="668" 
d="M92 323l-72 143v9q3 4 11 14.5t16.5 21.5t16 21.5t10.5 14.5q5 7 12.5 23t17 33t20.5 31.5t22 20.5q9 4 17 2t13.5 -8t9 -14.5t4.5 -15.5q1 -8 5 -38t8.5 -65t8.5 -65.5t5 -38.5q4 -18 11 -48t14 -58.5t12.5 -50t7.5 -22.5l9 -9q12 6 18 18t9.5 26t7 29t10.5 26
q21 -7 36 -27q17 -60 43 -121t64 -112q24 112 62 219.5t91 210.5q19 7 25 -6.5t2 -29.5q-5 -10 -17 -35t-25 -53.5t-24 -54.5t-15 -36q-2 -6 -8.5 -26.5t-13.5 -44.5t-13.5 -47t-9.5 -35q-1 -3 -3.5 -17.5t-5.5 -31t-5.5 -31t-3.5 -18.5q-2 -7 -9.5 -17t-17 -16.5
t-19.5 -6.5t-16 13l-99 206q-2 -1 -5 -4t-4 -5t-5 -11.5t-8.5 -20t-8.5 -20t-5 -11.5q-4 -8 -15.5 -28.5t-24.5 -43.5t-24.5 -43t-16.5 -28q-2 -5 -7 -8t-11 -3t-11.5 2.5t-6.5 8.5z" />
    <glyph glyph-name="x" unicode="x" horiz-adv-x="753" 
d="M565 9q-37 7 -70.5 29.5t-63 52.5t-54.5 63t-45 61h-9l-99 -188q-5 -11 -15 -11.5t-21 2.5q-15 4 -11.5 18.5t13 31t21 31t13.5 18.5q3 4 10 18.5t15.5 31.5l16.5 33l12 24q8 18 2.5 38t-19.5 39t-35 36.5t-43.5 29.5t-44.5 17.5t-39 1.5l-6.5 -5.5t-15 -12.5t-18.5 -13
t-18 -8t-12.5 2t-1.5 19q0 7 -1.5 26.5t-3 40.5t-3 40t-1.5 27q-1 23 11 34t31.5 13t43.5 -2.5t47.5 -12.5t43 -17t29.5 -15q16 -10 32 -23.5t31.5 -28t29 -29t24.5 -26.5h9l125 260q4 7 14.5 4t17.5 -13.5t4 -27t-27 -35.5l-107 -242q0 -1 2.5 -7.5t7 -15t9.5 -17.5t8 -14
q21 -34 42 -57t44.5 -40.5t52.5 -32.5t67 -31q3 -1 9 -1.5t13.5 -0.5t13.5 0.5t9 1.5q1 0 5 4t8.5 9t8 9t5.5 4q16 5 26 -2.5t14 -22t3 -34.5t-5 -38.5t-12 -33.5t-17 -21q-36 -3 -63.5 -0.5t-62.5 9.5z" />
    <glyph glyph-name="y" unicode="y" horiz-adv-x="520" 
d="M136 -273q-29 11 -50.5 23.5t-36.5 29t-24.5 38t-13.5 50.5q-1 6 3.5 13.5t11.5 12.5t15 6.5t14 -3.5q30 -71 70.5 -103.5t82.5 -34.5t80.5 22t64.5 66t34.5 97t-9.5 115q-2 9 -6.5 32t-10.5 48.5t-11 48.5t-8 32q-5 -5 -19 -16.5t-30 -24t-30 -24.5t-20 -16
q-34 -27 -64.5 -23t-55 25.5t-42 53.5t-26.5 61q-12 41 -19 86t-8.5 91t0.5 91t8 86q0 9 8.5 11.5t19 1t19 -6t8.5 -10.5q-15 -154 0.5 -251.5t45.5 -142t65 -37t59 62.5q12 43 23 88.5t13 90.5q4 60 -0.5 114.5t-8.5 110.5q2 12 22.5 21t45 13.5t45 3t22.5 -10.5
q0 -10 0.5 -34t2 -51.5t3 -51.5t3.5 -34q11 -54 25 -121t24.5 -138.5t15 -144t-2.5 -137t-29 -117.5t-64 -86t-106.5 -42t-158.5 15z" />
    <glyph glyph-name="z" unicode="z" horiz-adv-x="534" 
d="M22 27q1 3 2 8.5t2.5 11.5t3 10.5t1.5 5.5l260 574l9 27q-17 2 -32 -5t-31 -4l-161 -45q-6 -2 -13.5 1t-13.5 9t-9 13t0 13q5 9 16.5 12.5t19.5 5.5q50 12 92.5 23t82.5 20.5t80 16.5t86 11q7 1 16.5 -0.5t17.5 -5t11.5 -11t-1.5 -18.5l-224 -548v-17q3 0 9 -0.5
t13.5 -0.5t13.5 0.5t9 0.5q5 1 21 3.5t37.5 6t45 8t45 8t37 6t20.5 3.5q19 3 24.5 -5.5t2.5 -20.5t-13 -23t-23 -13l-188 -36q-8 -6 -23 -12t-32 -10t-34 -5.5t-28 0.5l-116 -45q-13 -5 -21 1.5t-15 16.5v9z" />
    <glyph glyph-name="braceleft" unicode="{" horiz-adv-x="453" 
d="M121 9q-38 19 -53 54.5t-13.5 76t17 80.5t40.5 67q-27 2 -50 7.5t-40 28.5q3 4 11 14t16.5 21.5t16 21.5t10.5 15q2 2 5 9t4 9q-4 5 -11 18.5t-14 29.5t-13 30t-7 20q-9 35 0 80.5t32 83.5t58 59.5t80 9.5q4 -1 10 -4.5t12 -8t10 -8.5t4 -6v-107q0 -9 -9.5 -10.5
t-23 -1.5h-27t-21.5 -6q-27 -22 -36 -42t-9 -39t6 -38.5t9 -40.5t-0.5 -43.5t-22.5 -47.5q3 0 19 2.5t33 1.5t29 -7.5t8 -23.5q-8 -31 -20 -66t-14 -67.5t12 -59t58 -40.5q7 -1 23.5 -1.5t35 -0.5t35 0.5t23.5 1.5q2 0 10 2.5t17 6t17 6.5t10 3q1 0 8 -3.5t10 -5.5
q22 -15 12 -28.5t-39.5 -25t-71 -20t-82.5 -12.5t-75.5 -3t-48.5 8z" />
    <glyph glyph-name="bar" unicode="|" horiz-adv-x="350" 
d="M112 350l-45 197q-2 10 -13.5 24t-20.5 27.5t-10 26t17 21.5l134 63h27q0 -10 -0.5 -31.5t-0.5 -48v-55.5v-55.5t0.5 -48t0.5 -31.5q0 -5 2.5 -20.5t5 -34.5t5.5 -36t5 -25q4 -17 11 -44t14 -52.5t13 -45t7 -20.5l45 -53q-9 -5 -8.5 -17t4 -24t8.5 -21.5l5 -9.5l-9 -9
q-6 1 -21 1.5t-32.5 0.5t-33 -0.5t-21.5 -1.5q-2 0 -11.5 -4t-20 -9t-19.5 -9t-11 -5q-8 -3 -17.5 4t-9.5 14v332z" />
    <glyph glyph-name="braceright" unicode="}" horiz-adv-x="489" 
d="M157 9q-2 1 -5.5 4t-3.5 5q-4 15 -8.5 33t-7.5 37t-4 37.5t2 35.5q1 9 11.5 10t15.5 -1q29 -34 59 -44t57 -3.5t48.5 25.5t34 44.5t13 53t-14.5 50.5q-14 20 -30.5 35t-32 28t-26 25.5t-12 26.5t8.5 31.5t38 41.5q-17 -6 -35.5 -8.5t-36.5 -0.5q-1 4 -3.5 13t-5.5 19
t-5.5 19t-3.5 12q0 3 5 24t9.5 47t4.5 49.5t-10 32.5l-5.5 0.5t-13 0.5t-15 -0.5t-11.5 -0.5q-14 -2 -28.5 -15.5t-29 -32t-28 -38.5t-25 -34.5t-20 -20t-12.5 5.5q1 23 -4 59t-4.5 71.5t13.5 64.5t49 38q31 2 67 2t68 -9t56.5 -30.5t32.5 -60.5q6 -26 2.5 -60t-20.5 -57
h108q11 0 11.5 -14t-4 -31t-12 -33.5t-13.5 -20.5q-3 -2 -12 -8.5t-19.5 -14t-20 -14t-11.5 -8.5q-1 -1 -4.5 -4t-4.5 -4q4 -3 14.5 -9t21.5 -13.5t21.5 -13.5t14.5 -9l9 -9q27 -48 47.5 -93t21.5 -84.5t-24 -72.5t-90 -55q-25 -9 -48.5 -14.5t-45.5 -11.5t-43.5 -14.5
t-42.5 -22.5h9q-2 1 -8.5 4t-8.5 5z" />
    <glyph glyph-name="asciitilde" unicode="~" horiz-adv-x="659" 
d="M192 170q-44 21 -81.5 51.5t-60 68.5t-25 82t23.5 94q18 34 52 53t72.5 23t75.5 -8t60 -41q2 1 5 4t4 5q1 3 7.5 13.5t14 23t14.5 23t9 12.5q16 19 35.5 40t42 38t48 28t53.5 11q31 0 50 -23t29 -54t12 -63t-1 -49q-22 -109 -38.5 -185t-28.5 -127t-20.5 -81t-14 -48.5
t-9.5 -29t-6 -22.5zM354 188q36 -21 62 -39t44.5 -24.5t30.5 1.5t19 40q5 20 12.5 52.5t16 71.5t17 81.5t15.5 83t11.5 76t4.5 61.5q0 24 -12.5 32t-32 5t-42 -13.5t-43.5 -23.5t-37 -26t-21 -19q-15 -19 -25.5 -35.5t-17.5 -34t-11.5 -37t-8.5 -45.5q-4 -13 -15.5 -10.5
t-24 10.5t-24.5 17t-17 10q-30 6 -40 -6.5t-6 -35.5t19 -52.5t36 -57.5t45 -50.5t45 -31.5z" />
    <glyph glyph-name="exclamdown" unicode="&#xa1;" horiz-adv-x="327" 
d="M147.43 830.141q-18.6299 -13.8105 -25.9199 -40.0508t-4.0498 -53.8623q3.24023 -27.6211 16.2002 -50.1787t35.6396 -29.0029q6.47949 -1.84082 10.125 -1.38086q3.64453 0.459961 7.29004 2.30176q3.64453 1.8418 7.69434 4.14355q4.05078 2.30176 10.5303 3.22266
q1.62012 0 8.09961 -0.460938q6.48047 -0.459961 13.7705 -0.459961h13.7695q6.48047 0 8.10059 0.920898q21.8701 8.28613 32.8047 31.3037q10.9346 23.0186 12.1504 50.6396q1.21484 27.6211 -7.69531 54.7822t-27.54 42.8135t-46.5752 14.7314
q-27.9443 -0.920898 -64.3945 -29.4629zM96.4004 590.755q1.61914 -11.0488 4.0498 -33.6064q2.42969 -22.5576 5.26465 -51.0996t6.0752 -59.8467q3.24023 -31.3037 6.0752 -59.8467q2.83496 -28.542 4.85938 -51.0996q2.02539 -22.5576 2.83496 -33.6055
q3.24023 -42.3535 0 -79.1816q-3.23926 -36.8291 -14.5801 -77.3398q-0.80957 -2.7627 -5.26465 -13.8115q-4.45508 -11.0479 -9.31445 -23.4775q-4.86035 -12.4297 -9.31543 -23.4785t-5.26465 -13.8105q-1.62012 -4.60352 8.09961 -10.5889
q9.71973 -5.98438 25.9199 -12.4297q16.2002 -6.44434 36.8545 -11.9688q20.6553 -5.52441 40.5 -9.66797q19.8447 -4.14258 36.8555 -5.52441q17.0098 -1.38086 25.9199 0.460938q5.66992 4.60352 5.26465 17.0332t-3.24023 25.7803q-2.83496 13.3496 -6.07422 25.3193
q-3.24023 11.9697 -3.24023 14.7314q-4.86035 63.5293 -6.0752 122.915q-1.21484 59.3867 4.45508 117.392t19.8447 115.09q14.1748 57.084 40.0947 115.089q4.86035 5.52441 1.21484 8.74707q-3.64453 3.22266 -9.71973 5.06348q-6.0752 1.8418 -12.5547 2.30176
q-6.48047 0.460938 -8.09961 0.460938q-1.62012 0 -7.29004 -4.14355q-5.6709 -4.14258 -7.29004 -4.14258q-19.4404 -1.8418 -45.7656 5.06348q-26.3242 6.90527 -51.4346 12.8896q-25.1094 5.98535 -44.5498 5.98535q-19.4395 0 -25.1094 -15.6523z" />
    <glyph glyph-name="cent" unicode="&#xa2;" horiz-adv-x="475" 
d="M195 72q-44 5 -81.5 40t-63.5 86.5t-38 114.5t-5 125t36.5 117.5t85.5 92.5q73 5 125 -5t83 -27.5t41.5 -40t1 -43t-39 -36t-77.5 -18.5q-11 -8 -20.5 1t-18 19.5t-16.5 16t-17 -9.5q-39 -58 -55 -112.5t-14.5 -100t17.5 -80.5t42.5 -54.5t60.5 -21t70 19t72.5 66.5
t67.5 121q12 -37 6.5 -72.5t-24 -67t-47 -57.5t-61 -43.5t-67 -26t-64.5 -4.5zM224 333l-37 231q-2 10 -13.5 33.5t-20.5 48.5t-10 47t17 31l97 -15l-3 -15q0 -10 2 -30t5 -45t7 -52.5t7.5 -52.5t6 -45t2.5 -30q0 -5 2.5 -20.5t5 -34.5t5.5 -36t5 -25q4 -17 11 -44t14 -52.5
t13 -45t7 -20.5q8 -25 17.5 -47.5t17.5 -39.5t13.5 -27.5l5.5 -10.5l-9 -9q-6 1 -21 1.5t-32.5 0.5t-33 -0.5t-21.5 -1.5q-2 0 -11.5 -4t-20 -9t-19.5 -9t-11 -5q-4 -2 -3 -0.5t3.5 4t5.5 6.5t3 7z" />
    <glyph glyph-name="yen" unicode="&#xa5;" horiz-adv-x="515" 
d="M265 29l-9 5q2 38 1.5 83t-4 91t-10.5 91.5t-17 85.5q-51 58 -98 113t-95 112q-2 3 -8 8.5t-10.5 12.5t-4.5 13t9 9l97 117q68 -79 106 -126t59 -72t31.5 -33.5t22.5 -10.5l136 212q14 -2 33.5 -4t28.5 -6q-12 -26 -37.5 -63t-52 -75.5t-47 -73.5t-22.5 -57l68 -421
q3 -11 -2.5 -14t-14.5 -2.5t-19.5 3t-17.5 2.5h-123zM173 146q-26 19 -28 38t11 27q43 -2 81 5t75.5 15.5t76 15t80.5 5.5q36 0 29.5 -9t-37.5 -22.5t-77.5 -28.5t-91.5 -27t-79 -18t-40 -1zM129 248q-2 7 -7 22.5t-7 22.5q0 1 -3.5 6.5t-5.5 11.5t-0.5 11t9.5 7l315 48
q38 -30 41 -46t-18.5 -24.5t-60.5 -12t-85.5 -8t-93.5 -12.5t-84 -26z" />
    <glyph glyph-name="dieresis" unicode="&#xa8;" horiz-adv-x="660" 
d="M167 642q-40 28 -46.5 55.5t9 48.5t47.5 32t71 7q22 -15 31 -36t7.5 -42t-12 -40t-26.5 -30t-37 -11.5t-44 16.5zM405 639q-40 28 -46.5 55.5t9 48.5t47.5 32t71 7q22 -15 31 -36t7.5 -42t-12 -40t-26.5 -30t-37 -11.5t-44 16.5z" />
    <glyph glyph-name="twosuperior" unicode="&#xb2;" horiz-adv-x="289" 
d="M24.4561 342.745q-1.68848 1.05469 -4.50488 3.9541q-2.81543 2.89941 -0.5625 5.53613l131.204 184.527q5.63184 8.43555 8.44727 20.8252t3.37793 25.3066q0.563477 12.917 -0.28125 24.5156t-1.40723 18.9805q-4.50488 14.2344 -11.5439 18.1885t-15.4854 2.10938
q-8.44727 -1.8457 -18.0195 -7.9082q-9.57324 -6.06348 -18.8643 -11.8623q-9.29199 -5.7998 -17.457 -9.49023t-14.3594 -0.527344q-3.37793 16.8711 6.19434 30.5791q9.57324 13.707 25.6221 22.1426t36.0391 11.3359q19.9902 2.89941 38.5723 -1.05469
q18.583 -3.9541 32.3789 -15.8164q13.7969 -11.8623 17.7383 -32.9521q1.12598 -6.32617 2.81543 -17.6611q1.68945 -11.3359 3.37891 -22.4072t2.81543 -20.0342t1.12598 -10.5449q0 -20.5615 -6.19434 -40.8594q-6.19336 -20.2979 -15.4854 -40.0693
q-9.29102 -19.7705 -19.9902 -38.75q-10.6992 -18.9805 -19.1455 -36.3789q-1.12598 -1.58105 -3.66016 -8.17188q-2.53418 -6.58984 -1.4082 -10.8076h86.1562q1.12598 0 2.81543 -1.8457q1.68945 -1.84473 2.25293 -2.89941q0.5625 -2.63672 0.5625 -7.9082
q0 -5.27246 -0.5625 -6.32715q-0.563477 -1.05371 -14.9229 -3.16309t-36.3203 -4.74512q-21.9619 -2.63574 -47.8643 -5.53613q-25.9033 -2.89941 -49.8359 -5.53516q-23.9316 -2.63672 -42.5146 -5.27246t-25.9033 -4.21777q-4.50488 -1.05469 -8.44629 0.791016
q-3.94238 1.84473 -6.75781 3.9541z" />
    <glyph glyph-name="threesuperior" unicode="&#xb3;" horiz-adv-x="282" 
d="M108.157 319.517q-30.4443 7.98926 -52.2842 25.4658q-21.8408 17.4766 -34.6367 50.4326q-2.64648 6.99023 0 7.98926q2.64746 0.998047 6.83887 -0.5q4.19238 -1.49805 8.38379 -4.24414t4.63281 -3.24512q23.8262 -22.4697 48.7549 -29.2109
q24.9297 -6.74121 46.1084 -2.49707t36.6211 16.7275q15.4434 12.4834 20.2959 28.9609q4.85352 16.4785 -3.30859 34.4541q-8.16309 17.9756 -33.7539 32.4561q-2.20605 0 -7.94141 0.25q-5.73633 0.25 -11.9131 0.25q-6.17773 0 -11.9131 -0.25
q-5.73633 -0.25 -7.94238 -0.25q-0.441406 0 -2.86816 -0.998047q-2.42676 -0.999023 -5.07422 -1.74805q-2.64648 -0.749023 -5.07324 -1.24805t-2.86816 -0.499023q-6.17773 0.998047 -7.28027 5.49219q-1.10352 4.49414 0 9.7373q1.10254 5.24219 3.5293 9.98633
q2.42676 4.74316 3.75098 6.24121l43.6807 44.4404q7.05957 7.49023 8.16309 19.2246q1.10254 11.7334 -0.220703 21.2207q0 1.49805 -1.76465 2.99609q-1.76562 1.49805 -3.97168 2.74609q-2.20605 1.24902 -3.9707 2.24707q-1.76465 0.999023 -2.20605 0.999023
q-19.4141 7.49023 -29.7822 6.24121q-10.3691 -1.24805 -17.6494 -7.48926q-7.28027 -6.24219 -13.8984 -15.7295t-17.6484 -18.9746q-0.882812 -0.499023 -2.20703 -0.499023q-1.32324 0 -1.76465 0.499023q-7.50098 5.99219 -9.92773 13.2324t-1.98535 18.2256
q0.441406 0.499023 1.76562 2.24707q1.32324 1.74805 2.20605 2.24707q7.5 6.49121 18.0898 15.4795q10.5889 8.9873 22.2812 18.2256q11.6924 9.2373 23.8262 17.2266t22.7236 11.9834q3.9707 1.49805 9.48633 1.24902q5.51465 -0.25 11.0303 -1.49805
q5.51562 -1.24902 10.8096 -3.49609q5.29492 -2.24609 8.38379 -5.24219q19.8545 -19.9736 28.8994 -37.2002q9.0459 -17.2266 7.94238 -33.9541q-1.10254 -16.7275 -12.3545 -34.2041q-11.251 -17.4766 -32.4297 -37.9492q1.76465 -0.999023 6.83887 -2.74609
q5.07422 -1.74805 10.8105 -3.99512q5.73535 -2.24707 10.8096 -4.24414t7.28027 -2.49609q6.61816 -2.99609 13.0156 -8.73828q6.39844 -5.74316 12.1338 -12.4834q5.73633 -6.74121 10.3691 -13.2324t7.72168 -10.4863q4.85254 -13.4814 5.07324 -29.21
q0.220703 -15.7295 -5.07324 -29.2109q-20.2969 -50.4326 -55.1533 -67.4092q-34.8564 -16.9775 -83.3916 -3.99512z" />
    <glyph glyph-name="acute" unicode="&#xb4;" horiz-adv-x="833" 
d="M106 503q1 7 3.5 26.5t5.5 40.5t5.5 40t3.5 27q12 10 17 9t19 0q13 1 52 16.5t91.5 38t111 49t111 49t92 38t52.5 16.5q7 2 6.5 -12t-2.5 -32t-2 -33.5t8 -17.5q-63 -56 -126.5 -91.5t-122 -58.5t-111.5 -36.5t-95.5 -25.5t-73 -25.5t-45.5 -35.5v18z" />
    <glyph glyph-name="cedilla" unicode="&#xb8;" 
d="M194 -303q-39 -2 -57.5 6t-20.5 21t10.5 28.5t33.5 27.5t49.5 19t59.5 3q4 14 -1.5 26.5t-16 23t-22.5 19.5t-22 16q-1 0 -7 2t-13 4.5t-13.5 5.5t-7.5 5q-16 37 -19 65t4.5 37t25.5 -6.5t44 -67.5q41 6 68 -8t39.5 -39t11 -57t-18 -60t-48 -48.5t-79.5 -22.5z" />
    <glyph glyph-name="onesuperior" unicode="&#xb9;" horiz-adv-x="221" 
d="M38.4844 265.672q-0.732422 2.04102 -0.548828 5.10254q0.182617 3.06152 1.09668 6.12305q0.915039 3.06152 2.37793 5.10254t3.6582 2.04102h26.3359l6.58398 32.1465v123.48l-3.29199 22.9619q-0.365234 2.04102 -3.65723 0q-3.29297 -2.04102 -8.04785 -6.12305
t-10.4248 -8.41895q-5.66992 -4.33789 -10.6074 -7.14355q-4.93848 -2.80664 -8.5957 -2.55176q-3.6582 0.255859 -4.75586 5.86816q-0.365234 2.04102 -0.365234 7.39844q0 5.3584 0.365234 6.37793q0.366211 0.510742 3.10938 2.29688q2.74316 1.78516 3.47461 2.2959
q5.12109 4.59277 12.6201 14.2871q7.49805 9.69434 16.0947 21.6855q8.5957 11.9912 17.374 24.7471q8.7793 12.7568 16.4609 23.4727q7.68066 10.7148 13.7168 17.6035q6.03516 6.88867 8.96191 7.9082q0.365234 0 2.37695 0.510742t4.20703 0.254883
q2.19434 -0.254883 4.20605 -1.27539t2.37793 -4.08203q0.731445 -6.12305 0.914062 -28.3193t0.366211 -51.5352q0.182617 -29.3398 0.914062 -61.9961t2.19434 -60.21q1.46387 -27.5537 4.38965 -45.4121q2.92676 -17.8594 7.68164 -17.8594h42.4307
q1.8291 0 3.10938 -3.57227q1.28027 -3.57129 0.182617 -5.6123q-0.731445 -1.02051 -3.1084 -4.59277q-2.37793 -3.57129 -3.47559 -4.5918q-5.48633 0.509766 -11.3389 -0.509766q-5.85254 -1.02148 -11.8877 -2.29688q-6.03613 -1.27539 -11.7051 -2.04102
q-5.66992 -0.765625 -10.791 0.255859l-81.9355 -22.9619q-7.31543 -2.04102 -13.3516 -1.53027q-6.03516 0.509766 -9.69238 10.7148z" />
    <glyph glyph-name="onequarter" unicode="&#xbc;" horiz-adv-x="581" 
d="M39.0303 333.26q-0.822266 1.59277 -0.617188 3.98145q0.206055 2.38867 1.23438 4.77734t2.67285 3.98145t4.1123 1.59277h29.6104l7.40234 25.082v96.3477l-3.70117 17.916q-0.411133 1.59277 -4.1123 0q-3.70117 -1.5918 -9.04785 -4.77734
q-5.3457 -3.18457 -11.7207 -6.56934q-6.37402 -3.38379 -11.9258 -5.57324q-5.55273 -2.19043 -9.66504 -1.99121t-5.3457 4.5791q-0.411133 1.5918 -0.411133 5.77246t0.411133 4.97656q0.411133 0.398438 3.49512 1.79199q3.08496 1.39355 3.90723 1.79102
q5.75781 3.58398 14.1885 11.1484t18.0947 16.9199q9.66504 9.35645 19.5352 19.3096t18.5059 18.3145q8.63672 8.36035 15.4219 13.7354q6.78613 5.375 10.0762 6.1709q0.411133 0 2.67285 0.398438t4.72949 0.199219t4.72949 -0.996094
q2.26172 -0.795898 2.67383 -3.18457q0.822266 -4.77734 1.02734 -22.0967q0.206055 -17.3184 0.411133 -40.2109q0.206055 -22.8926 1.02832 -48.373t2.46777 -46.9795t4.93457 -35.4336q3.29102 -13.9346 8.63672 -13.9346h47.7061q2.05566 0 3.49512 -2.78711
t0.206055 -4.37988q-0.823242 -0.795898 -3.49609 -3.58301t-3.90723 -3.58301q-6.16797 0.397461 -12.748 -0.398438t-13.3662 -1.79199q-6.78613 -0.995117 -13.1602 -1.5918q-6.37402 -0.597656 -12.1318 0.199219l-92.1211 -17.916q-8.22559 -1.59277 -15.0107 -1.19434
q-6.78613 0.397461 -10.8984 8.36035zM202.212 86.542q-3.15625 4.27344 -7.89062 9.08203q-4.73535 4.80762 -8.11719 11.2178q-3.38184 6.41113 -4.28418 15.4922q-0.901367 9.08203 4.05859 21.9023q1.35352 3.20605 5.41113 12.8213q4.05859 9.61621 8.56738 20.2998
q4.50977 10.6846 8.56836 20.3008q4.05859 9.61523 5.86133 12.8203q4.05859 12.8213 13.3027 44.874t19.6152 68.9131t19.3906 69.9814q9.01758 33.1211 12.1748 47.0107q0.450195 3.20508 4.73438 22.9707t9.46973 45.4082q5.18555 25.6416 10.3711 51.8184
q5.18555 26.1758 7.8916 42.2021q0.901367 3.20605 2.25488 14.4238q1.35254 11.2188 1.80273 14.4238q6.76465 1.06836 14.8809 0.53418q8.11719 -0.53418 16.459 -2.13672t16.0078 -3.73926t13.0771 -4.27441q4.05859 -2.13672 10.3711 -4.80762
q6.31348 -2.6709 12.1748 -5.87598q5.8623 -3.20508 9.9209 -5.87695l4.05859 -2.6709v-28.8467l-121.3 -430.574l-28.4082 -134.62q-0.902344 -5.34277 -3.15625 -9.08203q-2.25488 -3.73926 -4.96094 -0.53418q-2.70508 5.3418 -10.1455 17.6289t-15.7822 26.1768
q-8.34277 13.8887 -15.7832 25.6416q-7.43945 11.7529 -10.5967 17.0947zM515.661 51.5146q-15.1094 11.3271 -31.0967 17.5762q-15.9883 6.24902 -34.9629 7.03027q-5.27051 2.7334 -6.14941 8.39648q-0.87793 5.66309 0.351562 11.9121q1.23047 6.24902 3.16309 12.1074
t2.63477 9.37402q0.351562 3.12402 1.40527 11.1309q1.05469 8.00684 2.1084 16.9893q1.05469 8.9834 1.75684 16.9902q0.703125 8.00586 1.05469 11.1309q-5.62207 0.78125 -15.4609 -0.78125t-21.2588 -3.51562q-11.4199 -1.95215 -23.0146 -3.90527
q-11.5957 -1.95312 -20.2051 -2.14844q-8.6084 -0.194336 -13.001 1.95312q-4.3916 2.14844 -1.58105 8.39746q2.81152 3.12402 9.4873 11.5215q6.67676 8.39746 14.2314 17.9658q7.55469 9.56934 14.2305 17.9658q6.67578 8.39746 9.4873 11.9121
q0.703125 1.17188 2.98633 5.27246q2.28418 4.10156 2.9873 5.27344q6.67578 14.4502 15.46 28.5107q8.78516 14.0605 18.4482 27.5352t19.6768 26.5576q10.0146 13.084 19.1504 25.9727q0.703125 1.17188 2.98633 2.34375q2.28418 1.17188 4.74414 1.5625
q2.45898 0.390625 4.3916 -0.390625t1.93262 -3.51562v-164.427q1.75781 0 6.67676 -0.195312t10.0146 -1.36719q5.09473 -1.17188 9.13574 -3.90625q4.04004 -2.7334 4.04004 -8.5918q0 -0.78125 -1.22949 -2.14844t-1.93262 -1.36719h-24.9473
q-2.1084 -31.2451 4.91895 -57.998q7.02734 -26.7539 20.0283 -54.0938q1.40527 -4.68652 0.527344 -7.03027q-0.878906 -2.34277 -3.16211 -2.92871q-2.28418 -0.585938 -5.0957 0.390625q-2.81055 0.976562 -4.91895 2.53809zM389.867 184.697
q0.703125 0 2.98633 -0.195312q2.28418 -0.195312 4.74414 -0.195312t4.74316 0.195312q2.28418 0.195312 3.33887 0.195312q5.62207 0.390625 14.2305 1.5625t16.5146 2.34375q7.90625 1.1709 13.7041 1.95215t5.79785 1.17188v76.9414h-3.16309z" />
    <glyph glyph-name="onehalf" unicode="&#xbd;" horiz-adv-x="598" 
d="M38.1211 346.969q-0.717773 1.50391 -0.538086 3.75977t1.07715 4.51172q0.898438 2.25586 2.33594 3.75977t3.59277 1.50391h25.8711l6.46777 23.6865v90.9863l-3.23438 16.9189q-0.359375 1.50391 -3.59277 0t-7.90527 -4.51172q-4.6709 -3.00781 -10.2402 -6.20312
q-5.56934 -3.19629 -10.4199 -5.26367q-4.85059 -2.06836 -8.44434 -1.88086q-3.59277 0.188477 -4.6709 4.32422q-0.359375 1.50391 -0.359375 5.45117q0 3.94824 0.359375 4.7002q0.359375 0.375977 3.05469 1.69238q2.69434 1.31543 3.41309 1.69141
q5.03027 3.38379 12.3965 10.5273t15.8096 15.9785q8.44434 8.83594 17.0674 18.2354q8.62402 9.39941 16.1689 17.2949q7.5459 7.89551 13.4746 12.9717q5.92871 5.0752 8.80273 5.82715q0.359375 0 2.33594 0.375977t4.13184 0.1875q2.15625 -0.1875 4.13281 -0.939453
q1.97559 -0.751953 2.33496 -3.00781q0.71875 -4.51172 0.898438 -20.8672q0.179688 -16.3545 0.359375 -37.9727q0.179688 -21.6191 0.898438 -45.6816t2.15625 -44.3652q1.43652 -20.3027 4.31152 -33.4619q2.87402 -13.1592 7.54492 -13.1592h41.6807
q1.79688 0 3.05469 -2.63184q1.25684 -2.63184 0.179688 -4.13574q-0.71875 -0.751953 -3.05469 -3.38379q-2.33496 -2.63184 -3.41309 -3.38379q-5.38965 0.375977 -11.1387 -0.375977t-11.6777 -1.69238q-5.92871 -0.939453 -11.498 -1.50391
q-5.56934 -0.563477 -10.5996 0.188477l-80.4863 -16.9189q-7.18652 -1.50391 -13.1152 -1.12793t-9.52246 7.89551zM179.178 62.5977q-2.83984 4.22754 -7.09863 8.98242q-4.25879 4.75586 -7.30176 11.0957q-3.04199 6.34082 -3.85352 15.3232
q-0.810547 8.98242 3.65137 21.6641q1.2168 3.16992 4.86719 12.6807q3.65137 9.51172 7.70703 20.0791q4.05664 10.5674 7.70703 20.0781q3.65137 9.51074 5.27344 12.6816q3.65137 12.6807 11.9668 44.3838t17.6455 68.1611q9.3291 36.458 17.4424 69.2178
q8.1123 32.7598 10.9521 46.498q0.405273 3.16992 4.25879 22.7197q3.85352 19.5508 8.51855 44.9131t9.33008 51.2529t7.09863 41.7422q0.811523 3.16992 2.02832 14.2656q1.2168 11.0967 1.62207 14.2666q6.08496 1.05664 13.3867 0.52832
q7.30078 -0.52832 14.8057 -2.11328q7.50391 -1.58496 14.4004 -3.69922q6.89551 -2.11328 11.7637 -4.22656q3.65039 -2.11328 9.3291 -4.75586q5.67871 -2.6416 10.9521 -5.81152q5.27344 -3.1709 8.92383 -5.8125l3.65137 -2.6416v-28.5332l-109.117 -425.875
l-25.5557 -133.152q-0.810547 -5.28418 -2.83887 -8.98242t-4.46191 -0.52832q-2.43457 5.28418 -9.12695 17.4365q-6.69336 12.1533 -14.1973 25.8906q-7.50488 13.7383 -14.1982 25.3623q-6.69238 11.625 -9.53223 16.9082zM361.139 50.8281
q-1.46484 0.850586 -3.90723 3.19043q-2.44141 2.33887 -0.488281 4.46582l113.784 148.874q4.88379 6.80566 7.3252 16.8018t2.92969 20.417t-0.244141 19.7783q-0.732422 9.3584 -1.2207 15.3135q-3.90625 11.4844 -10.0107 14.6748q-6.10449 3.18945 -13.4297 1.70117
q-7.3252 -1.48926 -15.627 -6.38086t-16.3594 -9.57031t-15.1387 -7.65625t-12.4531 -0.424805q-2.92969 13.6113 5.37207 24.6699q8.30176 11.0596 22.2197 17.8652t31.2539 9.14453q17.3359 2.33984 33.4512 -0.850586q16.1152 -3.18945 28.0801 -12.7607
q11.9639 -9.57031 15.3828 -26.584q0.976562 -5.10449 2.44141 -14.25q1.46484 -9.14453 2.92969 -18.0771q1.46582 -8.93262 2.44238 -16.1631q0.976562 -7.23145 0.976562 -8.50781q0 -16.5889 -5.37207 -32.9648q-5.37109 -16.376 -13.4287 -32.3262
q-8.05762 -15.9512 -17.3369 -31.2637q-9.27832 -15.3135 -16.6035 -29.3496q-0.976562 -1.27637 -3.17383 -6.59277q-2.19727 -5.31738 -1.2207 -8.71973h74.7158q0.976562 0 2.44238 -1.48926q1.46484 -1.48828 1.95312 -2.33887q0.488281 -2.12695 0.488281 -6.38086
q0 -4.25293 -0.488281 -5.10449q-0.488281 -0.850586 -12.9414 -2.55176t-31.498 -3.82812t-41.5088 -4.46582q-22.4639 -2.33984 -43.2188 -4.4668q-20.7539 -2.12695 -36.8701 -4.25391q-16.1152 -2.12598 -22.4629 -3.40234q-3.90723 -0.850586 -7.3252 0.637695
q-3.41895 1.48926 -5.86035 3.19043z" />
    <glyph glyph-name="threequarters" unicode="&#xbe;" horiz-adv-x="673" 
d="M105.691 296.687q-29.6943 8.52051 -50.9971 27.1592t-33.7832 53.7861q-2.58301 7.45508 0 8.52051q2.58203 1.06445 6.66992 -0.533203q4.08887 -1.59766 8.17676 -4.52637q4.08887 -2.92871 4.51953 -3.46094q23.2393 -23.9639 47.5547 -31.1533
q24.3145 -7.18945 44.9717 -2.66309t35.7197 17.8398t19.7969 30.8867q4.73438 17.5742 -3.22754 36.7451t-32.9229 34.6143q-2.15137 0 -7.74609 0.266602t-11.6201 0.266602q-6.02441 0 -11.6191 -0.266602t-7.74707 -0.266602q-0.429688 0 -2.79688 -1.06445
q-2.36719 -1.06543 -4.94922 -1.86426t-4.94922 -1.33105t-2.79688 -0.532227q-6.02539 1.06445 -7.10156 5.85742q-1.0752 4.79297 0 10.3848q1.07617 5.59082 3.44336 10.6504q2.36719 5.05859 3.6582 6.65625l42.6055 47.3955q6.88574 7.98828 7.96094 20.5029
q1.07617 12.5137 -0.214844 22.6318q0 1.59766 -1.72168 3.19531q-1.7207 1.59766 -3.87305 2.92871q-2.15137 1.33203 -3.87305 2.39648q-1.72168 1.06543 -2.15137 1.06543q-18.9365 7.98828 -29.0498 6.65625q-10.1133 -1.33105 -17.2139 -7.9873
q-7.10156 -6.65723 -13.5566 -16.7754t-17.2148 -20.2363q-0.860352 -0.532227 -2.15137 -0.532227t-1.72168 0.532227q-7.31543 6.39062 -9.68262 14.1123t-1.93652 19.4375q0.429688 0.532227 1.7207 2.39648q1.29199 1.86426 2.15234 2.39648
q7.31641 6.92285 17.6445 16.5088q10.3291 9.58496 21.7334 19.4375q11.4043 9.85156 23.2393 18.3721t22.1631 12.7803q3.87402 1.59766 9.25293 1.33203q5.37988 -0.266602 10.7588 -1.59766q5.37988 -1.33203 10.5439 -3.72852q5.16406 -2.39551 8.17676 -5.59082
q19.3662 -21.3018 28.1885 -39.6738t7.74707 -36.2119q-1.07617 -17.8398 -12.0508 -36.4785q-10.9736 -18.6387 -31.6309 -40.4727q1.72168 -1.06543 6.6709 -2.92871q4.94824 -1.86426 10.543 -4.26074t10.5439 -4.52637t7.10156 -2.66211
q6.45508 -3.19531 12.6953 -9.31934q6.24023 -6.125 11.835 -13.3135q5.59473 -7.18945 10.1133 -14.1123t7.53125 -11.1836q4.73438 -14.3779 4.94922 -31.1523q0.214844 -16.7754 -4.94922 -31.1533q-19.7969 -53.7861 -53.7949 -71.8916
q-33.998 -18.1064 -81.3379 -4.26074zM211.363 47.7969q-3.38086 4.92773 -8.45312 10.4717q-5.07227 5.54492 -8.69434 12.9365q-3.62305 7.39258 -4.58887 17.8652q-0.966797 10.4727 4.34668 25.2568l5.79688 14.7852q4.34668 11.0889 9.17773 23.4092
q4.83008 12.3203 9.17773 23.4092q4.34668 11.0879 6.2793 14.7842q4.34668 14.7852 14.249 51.7461q9.90234 36.9619 21.0117 79.4678q11.1104 42.5059 20.7705 80.7002q9.66113 38.1934 13.042 54.21q0.483398 3.69629 5.07227 26.4893t10.1436 52.3623t11.1094 59.7549
t8.45312 48.666q0.96582 3.69629 2.41504 16.6328t1.93262 16.6328q7.24512 1.23242 15.9395 0.616211q8.69531 -0.616211 17.6309 -2.46387q8.93652 -1.84863 17.1475 -4.3125q8.21191 -2.46387 14.0078 -4.92871q4.34766 -2.46387 11.1104 -5.54395t13.042 -6.77637
t10.627 -6.77637l4.34668 -3.08008v-33.2656l-129.936 -496.519l-30.4307 -155.238q-0.966797 -6.16113 -3.38184 -10.4727q-2.41504 -4.3125 -5.31348 -0.616211q-2.89746 6.16016 -10.8682 20.3291q-7.96973 14.1689 -16.9062 30.1855q-8.93555 16.0166 -16.9053 29.5693
q-7.9707 13.5527 -11.3516 19.7129zM602.341 22.2422q-22.1641 13.6699 -45.6162 21.2119q-23.4531 7.54199 -51.2871 8.48535q-7.73145 3.29883 -9.02051 10.1338q-1.28809 6.83496 0.515625 14.377q1.80469 7.54199 4.63965 14.6133q2.83496 7.07031 3.86523 11.3125
q0.515625 3.77148 2.06152 13.4346q1.54688 9.66309 3.09277 20.5049q1.54688 10.8408 2.57715 20.5039q1.03125 9.66406 1.54688 13.4346q-8.24707 0.942383 -22.6797 -0.942383q-14.4326 -1.88574 -31.1846 -4.24316q-16.752 -2.35645 -33.7607 -4.71289
q-17.0098 -2.35742 -29.6387 -2.59277q-12.6279 -0.235352 -19.0713 2.35645q-6.44238 2.59277 -2.31934 10.1348q4.12402 3.77148 13.917 13.9053q9.79395 10.1348 20.876 21.6836t20.875 21.6836q9.79297 10.1338 13.917 14.377q1.03125 1.41406 4.38086 6.36328
q3.35059 4.94922 4.38184 6.36328q9.79297 17.4414 22.6787 34.4102q12.8867 16.9697 27.0615 33.2324t28.8643 32.0537q14.6904 15.791 28.0918 31.3457q1.03125 1.41406 4.38086 2.82812q3.35059 1.41406 6.95898 1.88574q3.60742 0.47168 6.44238 -0.47168
q2.83496 -0.942383 2.83496 -4.24219v-198.448q2.57812 0 9.79395 -0.236328q7.21582 -0.235352 14.6904 -1.64941q7.47363 -1.41406 13.4014 -4.71387q5.92676 -3.2998 5.92676 -10.3701q0 -0.942383 -1.80371 -2.59277q-1.80371 -1.64941 -2.83496 -1.64941h-36.5957
q-3.09277 -37.71 7.21582 -69.999t29.3799 -65.2852q2.06152 -5.65723 0.773438 -8.48535q-1.28906 -2.82812 -4.63867 -3.53516q-3.35059 -0.707031 -7.47461 0.47168q-4.12305 1.17773 -7.21582 3.06348zM417.812 182.981q1.03125 0 4.38086 -0.236328
q3.35059 -0.235352 6.95898 -0.235352t6.95801 0.235352q3.35059 0.236328 4.89746 0.236328q8.24707 0.470703 20.875 1.88477t24.2256 2.8291q11.5977 1.41406 20.1025 2.35645t8.50488 1.41406v92.8604h-4.63965z" />
    <glyph glyph-name="questiondown" unicode="&#xbf;" horiz-adv-x="558" 
d="M149.467 728.38q28.0742 9.63477 47.0645 4.81738t29.3115 -16.8604t12.7979 -28.9023q2.47754 -16.8604 -2.06348 -32.917q-4.54199 -16.0576 -15.6885 -27.6992q-11.1465 -11.6406 -26.834 -13.2471q-22.2939 -2.4082 -38.8076 3.61328t-27.2471 16.8594
q-10.7344 10.8389 -15.2754 24.8887t-2.06445 27.6992q2.47656 13.6484 11.9727 24.8877q9.49512 11.2402 26.834 16.8604zM128 554.963q2.47656 -61.8203 12.7979 -107.182t23.9443 -77.877q13.624 -32.5156 29.3125 -53.791q15.6875 -21.2754 30.5498 -33.7197
t26.835 -18.4658t17.752 -8.42969q40.459 -28.1006 57.3848 -60.2148q16.9268 -32.1143 -0.412109 -70.6514q-7.43164 -16.8604 -35.5049 -22.4795q-28.0732 -5.62012 -62.3389 -2.00781q-34.2656 3.61328 -66.4678 15.6562t-47.8896 32.1143
q-19.8164 24.085 -31.7891 29.3037t-15.6875 -1.2041q-3.71582 -6.42285 1.65137 -20.874q5.36621 -14.4512 20.2295 -28.9033q49.541 -48.1709 103.623 -65.4326t103.21 -13.6484t87.5225 24.4873t56.5596 49.376q18.165 28.501 11.5596 60.2139t-48.7148 58.207
q-47.0645 30.5088 -90.4131 59.8125q-43.3486 29.3047 -75.5498 64.6299q-32.2012 35.3262 -49.1279 79.082t-11.9727 102.364q4.12793 6.42285 -5.78027 8.42969t-21.8799 2.4082q-11.9727 0.401367 -19.8164 -0.401367q-7.84473 -0.802734 0.413086 -0.802734z" />
    <glyph glyph-name="Agrave" unicode="&#xc0;" horiz-adv-x="632" 
d="M90 45q-2 6 -14 27.5t-23.5 46t-18 45t1.5 24.5l269 583q7 16 16.5 13t17.5 -13t13.5 -22t6.5 -14q38 -154 97.5 -306t126.5 -294q4 -7 11 -15t11.5 -16.5t4.5 -17t-9 -14.5q-11 -8 -20 -15.5t-18 -13.5t-19.5 -8t-23.5 1q-2 0 -5 3.5t-4 5.5q-4 77 -24.5 155.5
t-46.5 149.5q-6 -1 -20.5 -4.5t-30 -8t-29.5 -8.5t-19 -6q-11 -4 -28.5 -11l-35 -14t-30.5 -13t-14 -7l-9 -9q-2 -2 -9 -17t-15.5 -35.5l-17 -41t-12.5 -32.5q-2 -7 -7.5 -26t-11 -40.5t-10.5 -40.5t-6 -27q-3 -2 -15.5 -6.5t-20.5 -2.5q0 3 -1.5 9t-3 13.5t-2.5 13.5t-2 9z
M251 323q18 -4 32.5 4.5t30.5 13.5q15 5 37.5 8.5t41 10t28.5 19t1 34.5q-3 7 -9.5 21.5t-14 30t-13.5 29t-8 17.5q-1 2 -4 5t-5 4zM75 949q1 7 3.5 26.5t5.5 40.5t5.5 40t3.5 27q12 10 17 9t19 0q13 1 41.5 -11.5t65.5 -32t77.5 -42t77 -42t65.5 -32t42 -11.5
q7 2 16.5 -0.5t19.5 -7t19.5 -9t17.5 -6.5q4 -65 -8 -95.5t-36.5 -36.5t-58 6.5t-72.5 34t-81 47t-82 45t-76 28t-64 -4.5q-3 0 -9.5 3.5t-8.5 5.5v18z" />
    <glyph glyph-name="Aacute" unicode="&#xc1;" horiz-adv-x="632" 
d="M90 45q-2 6 -14 27.5t-23.5 46t-18 45t1.5 24.5l269 583q7 16 16.5 13t17.5 -13t13.5 -22t6.5 -14q38 -154 97.5 -306t126.5 -294q4 -7 11 -15t11.5 -16.5t4.5 -17t-9 -14.5q-11 -8 -20 -15.5t-18 -13.5t-19.5 -8t-23.5 1q-2 0 -5 3.5t-4 5.5q-4 77 -24.5 155.5
t-46.5 149.5q-6 -1 -20.5 -4.5t-30 -8t-29.5 -8.5t-19 -6q-11 -4 -28.5 -11l-35 -14t-30.5 -13t-14 -7l-9 -9q-2 -2 -9 -17t-15.5 -35.5l-17 -41t-12.5 -32.5q-2 -7 -7.5 -26t-11 -40.5t-10.5 -40.5t-6 -27q-3 -2 -15.5 -6.5t-20.5 -2.5q0 3 -1.5 9t-3 13.5t-2.5 13.5t-2 9z
M251 323q18 -4 32.5 4.5t30.5 13.5q15 5 37.5 8.5t41 10t28.5 19t1 34.5q-3 7 -9.5 21.5t-14 30t-13.5 29t-8 17.5q-1 2 -4 5t-5 4zM26 727q1 7 3.5 26.5t5.5 40.5t5.5 40t3.5 27q12 10 17 9t19 0q13 1 52 16.5t91.5 38t111 49t111 49t92 38t52.5 16.5q7 2 6.5 -12t-2.5 -32
t-2 -33.5t8 -17.5q-63 -56 -126.5 -91.5t-122 -58.5t-111.5 -36.5t-95.5 -25.5t-73 -25.5t-45.5 -35.5v18z" />
    <glyph glyph-name="Acircumflex" unicode="&#xc2;" horiz-adv-x="632" 
d="M90 45q-2 6 -14 27.5t-23.5 46t-18 45t1.5 24.5l269 583q7 16 16.5 13t17.5 -13t13.5 -22t6.5 -14q38 -154 97.5 -306t126.5 -294q4 -7 11 -15t11.5 -16.5t4.5 -17t-9 -14.5q-11 -8 -20 -15.5t-18 -13.5t-19.5 -8t-23.5 1q-2 0 -5 3.5t-4 5.5q-4 77 -24.5 155.5
t-46.5 149.5q-6 -1 -20.5 -4.5t-30 -8t-29.5 -8.5t-19 -6q-11 -4 -28.5 -11l-35 -14t-30.5 -13t-14 -7l-9 -9q-2 -2 -9 -17t-15.5 -35.5l-17 -41t-12.5 -32.5q-2 -7 -7.5 -26t-11 -40.5t-10.5 -40.5t-6 -27q-3 -2 -15.5 -6.5t-20.5 -2.5q0 3 -1.5 9t-3 13.5t-2.5 13.5t-2 9z
M251 323q18 -4 32.5 4.5t30.5 13.5q15 5 37.5 8.5t41 10t28.5 19t1 34.5q-3 7 -9.5 21.5t-14 30t-13.5 29t-8 17.5q-1 2 -4 5t-5 4zM127 874q-9 7 -16.5 15.5t-10.5 19.5q2 2 7.5 7t11 10.5t10.5 11t7 7.5q8 11 27.5 38t41 57t40 56.5t25.5 37.5q1 1 4.5 8t8 15.5t8.5 16.5
t6 13q12 26 21 35.5t16 7.5t12 -12.5t9 -24t7.5 -27.5t6.5 -23q11 -30 31 -66.5t43.5 -73t47.5 -70.5t44 -59v-27q-13 -4 -28 7.5t-30.5 31.5t-31 44.5t-30 48t-26.5 41.5t-20 24q-33 -38 -57.5 -70t-43.5 -64.5t-33 -69.5t-27 -83q-5 -10 -13.5 -10t-13.5 10z" />
    <glyph glyph-name="Atilde" unicode="&#xc3;" horiz-adv-x="632" 
d="M90 45q-2 6 -14 27.5t-23.5 46t-18 45t1.5 24.5l269 583q7 16 16.5 13t17.5 -13t13.5 -22t6.5 -14q38 -154 97.5 -306t126.5 -294q4 -7 11 -15t11.5 -16.5t4.5 -17t-9 -14.5q-11 -8 -20 -15.5t-18 -13.5t-19.5 -8t-23.5 1q-2 0 -5 3.5t-4 5.5q-4 77 -24.5 155.5
t-46.5 149.5q-6 -1 -20.5 -4.5t-30 -8t-29.5 -8.5t-19 -6q-11 -4 -28.5 -11l-35 -14t-30.5 -13t-14 -7l-9 -9q-2 -2 -9 -17t-15.5 -35.5l-17 -41t-12.5 -32.5q-2 -7 -7.5 -26t-11 -40.5t-10.5 -40.5t-6 -27q-3 -2 -15.5 -6.5t-20.5 -2.5q0 3 -1.5 9t-3 13.5t-2.5 13.5t-2 9z
M251 323q18 -4 32.5 4.5t30.5 13.5q15 5 37.5 8.5t41 10t28.5 19t1 34.5q-3 7 -9.5 21.5t-14 30t-13.5 29t-8 17.5q-1 2 -4 5t-5 4zM83 698l-76 161l12 12.5t29 30t35.5 35.5t31.5 30q2 2 12.5 9t14.5 9q27 4 46.5 5.5t36 -1.5t33 -10.5t36.5 -20.5q22 -14 35 -35.5
t26 -43.5t29.5 -40t44.5 -25q11 -3 25.5 0.5t28.5 10t26 16t18 18.5q2 4 7.5 14t11 21.5t10.5 21.5t7 15q8 19 7.5 31.5t-2 23t0 22.5t12.5 31q4 7 12 8.5t15.5 -1.5t13 -10t4.5 -15q-1 -11 -2 -31.5t-3.5 -43t-7.5 -44t-14 -34.5q-20 -28 -50 -51t-64.5 -34t-70 -7.5
t-66.5 29.5l-13.5 13.5l-22.5 22.5l-22.5 22.5l-13.5 13.5q-7 6 -17 8.5t-19 0.5q-31 -27 -49.5 -56t-29 -61t-16.5 -67.5t-12 -75.5z" />
    <glyph glyph-name="Adieresis" unicode="&#xc4;" horiz-adv-x="632" 
d="M90 45q-2 6 -14 27.5t-23.5 46t-18 45t1.5 24.5l269 583q7 16 16.5 13t17.5 -13t13.5 -22t6.5 -14q38 -154 97.5 -306t126.5 -294q4 -7 11 -15t11.5 -16.5t4.5 -17t-9 -14.5q-11 -8 -20 -15.5t-18 -13.5t-19.5 -8t-23.5 1q-2 0 -5 3.5t-4 5.5q-4 77 -24.5 155.5
t-46.5 149.5q-6 -1 -20.5 -4.5t-30 -8t-29.5 -8.5t-19 -6q-11 -4 -28.5 -11l-35 -14t-30.5 -13t-14 -7l-9 -9q-2 -2 -9 -17t-15.5 -35.5l-17 -41t-12.5 -32.5q-2 -7 -7.5 -26t-11 -40.5t-10.5 -40.5t-6 -27q-3 -2 -15.5 -6.5t-20.5 -2.5q0 3 -1.5 9t-3 13.5t-2.5 13.5t-2 9z
M251 323q18 -4 32.5 4.5t30.5 13.5q15 5 37.5 8.5t41 10t28.5 19t1 34.5q-3 7 -9.5 21.5t-14 30t-13.5 29t-8 17.5q-1 2 -4 5t-5 4zM167 836q-40 28 -46.5 55.5t9 48.5t47.5 32t71 7q22 -15 31 -36t7.5 -42t-12 -40t-26.5 -30t-37 -11.5t-44 16.5zM405 833
q-40 28 -46.5 55.5t9 48.5t47.5 32t71 7q22 -15 31 -36t7.5 -42t-12 -40t-26.5 -30t-37 -11.5t-44 16.5z" />
    <glyph glyph-name="Aring" unicode="&#xc5;" horiz-adv-x="632" 
d="M90 45q-2 6 -14 27.5t-23.5 46t-18 45t1.5 24.5l269 583q7 16 16.5 13t17.5 -13t13.5 -22t6.5 -14q38 -154 97.5 -306t126.5 -294q4 -7 11 -15t11.5 -16.5t4.5 -17t-9 -14.5q-11 -8 -20 -15.5t-18 -13.5t-19.5 -8t-23.5 1q-2 0 -5 3.5t-4 5.5q-4 77 -24.5 155.5
t-46.5 149.5q-6 -1 -20.5 -4.5t-30 -8t-29.5 -8.5t-19 -6q-11 -4 -28.5 -11l-35 -14t-30.5 -13t-14 -7l-9 -9q-2 -2 -9 -17t-15.5 -35.5l-17 -41t-12.5 -32.5q-2 -7 -7.5 -26t-11 -40.5t-10.5 -40.5t-6 -27q-3 -2 -15.5 -6.5t-20.5 -2.5q0 3 -1.5 9t-3 13.5t-2.5 13.5t-2 9z
M251 323q18 -4 32.5 4.5t30.5 13.5q15 5 37.5 8.5t41 10t28.5 19t1 34.5q-3 7 -9.5 21.5t-14 30t-13.5 29t-8 17.5q-1 2 -4 5t-5 4zM278 731q-13 1 -21 5t-16 12q-26 27 -38.5 66t-7 77t32.5 69t80 41q26 5 53.5 -1t50.5 -18.5t38 -31t15 -39.5v-114q0 -2 -5 -10.5t-7 -11.5
q-8 -9 -15.5 -17.5t-16.5 -16t-20 -12t-27 -4.5q-4 0 -17 0.5t-28.5 1.5t-30 2t-20.5 2zM350 775q24 -12 43.5 4t29 42.5t5.5 55.5t-29 43q-3 1 -8 4.5t-5 4.5q-3 6 -2 9.5t2 6.5t0.5 6.5t-5.5 8.5q-7 7 -14 6.5t-13 -5t-10.5 -10.5t-5.5 -9q-2 -3 -6 -15.5t-6 -15.5
q-2 -5 -3.5 -17t-2.5 -15q0 -9 -1 -23.5t1 -30t8.5 -29.5t21.5 -21z" />
    <glyph glyph-name="AE" unicode="&#xc6;" horiz-adv-x="1017" 
d="M90 45q-2 6 -14 27.5t-23.5 46t-18 45t1.5 24.5l269 583q7 16 16.5 13t17.5 -13t13.5 -22t6.5 -14q38 -154 97.5 -306t126.5 -294q4 -7 11 -15t11.5 -16.5t4.5 -17t-9 -14.5q-11 -8 -20 -15.5t-18 -13.5t-19.5 -8t-23.5 1q-2 0 -5 3.5t-4 5.5q-4 77 -24.5 155.5
t-46.5 149.5q-6 -1 -20.5 -4.5t-30 -8t-29.5 -8.5t-19 -6q-11 -4 -28.5 -11l-35 -14t-30.5 -13t-14 -7l-9 -9q-2 -2 -9 -17t-15.5 -35.5l-17 -41t-12.5 -32.5q-2 -7 -7.5 -26t-11 -40.5t-10.5 -40.5t-6 -27q-3 -2 -15.5 -6.5t-20.5 -2.5q0 3 -1.5 9t-3 13.5t-2.5 13.5t-2 9z
M251 323q18 -4 32.5 4.5t30.5 13.5q15 5 37.5 8.5t41 10t28.5 19t1 34.5q-3 7 -9.5 21.5t-14 30t-13.5 29t-8 17.5q-1 2 -4 5t-5 4zM512 100l-108 646v9q0 1 16.5 6.5t39 12.5t47 14t40.5 11q6 1 29 6t51.5 11t56.5 11t43 8q11 2 19 -3.5t11 -14t0.5 -16.5t-12.5 -10
q-7 -1 -23.5 -3.5t-35 -5.5t-35 -5.5t-23.5 -3.5q-9 -2 -22.5 -4t-25.5 -6.5t-19.5 -12.5t-4.5 -22l54 -233q5 -19 23 -19.5t42 6.5t50.5 16.5t47 12t31 -8t4.5 -43.5q-6 -1 -20 -2t-29.5 -2.5t-29.5 -3t-20 -1.5h-18q-6 -2 -15 -6.5t-18 -8.5t-15 -7.5t-6 -4.5v-27l63 -242
q4 -15 27 -14t54.5 8.5t67 17t64 11.5t45 -8t11.5 -42q-3 -19 -15.5 -22t-29.5 -5q-5 0 -32 -2.5t-61.5 -5.5t-68.5 -6t-53 -4h-18q-20 1 -48.5 2t-55.5 3q-32 2 -66 4z" />
    <glyph glyph-name="Ccedilla" unicode="&#xc7;" horiz-adv-x="570" 
d="M197 18q-42 23 -73 56t-51.5 72.5t-31.5 84.5t-14 92q-1 17 -1.5 39t0.5 45t3.5 45.5t6.5 40.5q8 34 16.5 62.5t20 53t28.5 46.5t43 45q8 7 21 9.5t26 3t24.5 -1t17.5 -2.5q20 -4 38 -19.5t32.5 -37t24 -44t13 -40.5t-0.5 -27t-17 -3q-2 4 -8 14t-14 21t-16.5 21.5
t-15.5 15.5q-6 4 -13.5 -4.5t-14.5 -21t-11.5 -24.5t-5.5 -13q-21 -60 -26 -123.5t8 -124.5t44.5 -115t81.5 -94q34 -6 58 4t41 30t28 47t18.5 56t13 56.5t11.5 48.5q1 6 6.5 8.5t11.5 2.5t11 -3t7 -8q0 -9 0.5 -30.5t0.5 -46t-0.5 -46t-0.5 -30.5q-2 -42 -25.5 -70
t-57.5 -46.5t-72 -31t-69 -22.5q-32 -11 -59 -9.5t-58 18.5zM279 -279q-39 -2 -57.5 6t-20.5 21t10.5 28.5t33.5 27.5t49.5 19t59.5 3q4 14 -1.5 26.5t-16 23t-22.5 19.5t-22 16q-1 0 -7 2t-13 4.5t-13.5 5.5t-7.5 5q-16 37 -19 65t4.5 37t25.5 -6.5t44 -67.5q41 6 68 -8
t39.5 -39t11 -57t-18 -60t-48 -48.5t-79.5 -22.5z" />
    <glyph glyph-name="Egrave" unicode="&#xc8;" horiz-adv-x="614" 
d="M135 18l-108 646v9q0 1 16.5 6.5t39 12.5t47 14t40.5 11q6 1 29 6t51.5 11t56.5 11t43 8q11 2 19 -3.5t11 -14t0.5 -16.5t-12.5 -10q-7 -1 -23.5 -3.5t-35 -5.5t-35 -5.5t-23.5 -3.5q-9 -2 -22.5 -4t-25.5 -6.5t-19.5 -12.5t-4.5 -22l54 -233q5 -19 23 -19.5t42 6.5
t50.5 16.5t47 12t31 -8t4.5 -43.5q-6 -1 -20 -2t-29.5 -2.5t-29.5 -3t-20 -1.5h-18q-6 -2 -15 -6.5t-18 -8.5t-15 -7.5t-6 -4.5v-27l63 -242q4 -15 27 -14t54.5 8.5t67 17t64 11.5t45 -8t11.5 -42q-3 -19 -15.5 -22t-29.5 -5q-5 0 -32 -2.5t-61.5 -5.5t-68.5 -6t-53 -4h-18
q-20 1 -48.5 2t-55.5 3q-32 2 -66 4zM52 939q1 7 3.5 26.5t5.5 40.5t5.5 40t3.5 27q12 10 17 9t19 0q13 1 41.5 -11.5t65.5 -32t77.5 -42t77 -42t65.5 -32t42 -11.5q7 2 16.5 -0.5t19.5 -7t19.5 -9t17.5 -6.5q4 -65 -8 -95.5t-36.5 -36.5t-58 6.5t-72.5 34t-81 47t-82 45
t-76 28t-64 -4.5q-3 0 -9.5 3.5t-8.5 5.5v18z" />
    <glyph glyph-name="Eacute" unicode="&#xc9;" horiz-adv-x="614" 
d="M135 18l-108 646v9q0 1 16.5 6.5t39 12.5t47 14t40.5 11q6 1 29 6t51.5 11t56.5 11t43 8q11 2 19 -3.5t11 -14t0.5 -16.5t-12.5 -10q-7 -1 -23.5 -3.5t-35 -5.5t-35 -5.5t-23.5 -3.5q-9 -2 -22.5 -4t-25.5 -6.5t-19.5 -12.5t-4.5 -22l54 -233q5 -19 23 -19.5t42 6.5
t50.5 16.5t47 12t31 -8t4.5 -43.5q-6 -1 -20 -2t-29.5 -2.5t-29.5 -3t-20 -1.5h-18q-6 -2 -15 -6.5t-18 -8.5t-15 -7.5t-6 -4.5v-27l63 -242q4 -15 27 -14t54.5 8.5t67 17t64 11.5t45 -8t11.5 -42q-3 -19 -15.5 -22t-29.5 -5q-5 0 -32 -2.5t-61.5 -5.5t-68.5 -6t-53 -4h-18
q-20 1 -48.5 2t-55.5 3q-32 2 -66 4zM-20 711q1 7 3.5 26.5t5.5 40.5t5.5 40t3.5 27q12 10 17 9t19 0q13 1 52 16.5t91.5 38t111 49t111 49t92 38t52.5 16.5q7 2 6.5 -12t-2.5 -32t-2 -33.5t8 -17.5q-63 -56 -126.5 -91.5t-122 -58.5t-111.5 -36.5t-95.5 -25.5t-73 -25.5
t-45.5 -35.5v18z" />
    <glyph glyph-name="Ecircumflex" unicode="&#xca;" horiz-adv-x="614" 
d="M135 18l-108 646v9q0 1 16.5 6.5t39 12.5t47 14t40.5 11q6 1 29 6t51.5 11t56.5 11t43 8q11 2 19 -3.5t11 -14t0.5 -16.5t-12.5 -10q-7 -1 -23.5 -3.5t-35 -5.5t-35 -5.5t-23.5 -3.5q-9 -2 -22.5 -4t-25.5 -6.5t-19.5 -12.5t-4.5 -22l54 -233q5 -19 23 -19.5t42 6.5
t50.5 16.5t47 12t31 -8t4.5 -43.5q-6 -1 -20 -2t-29.5 -2.5t-29.5 -3t-20 -1.5h-18q-6 -2 -15 -6.5t-18 -8.5t-15 -7.5t-6 -4.5v-27l63 -242q4 -15 27 -14t54.5 8.5t67 17t64 11.5t45 -8t11.5 -42q-3 -19 -15.5 -22t-29.5 -5q-5 0 -32 -2.5t-61.5 -5.5t-68.5 -6t-53 -4h-18
q-20 1 -48.5 2t-55.5 3q-32 2 -66 4zM-21 853q-9 7 -16.5 15.5t-10.5 19.5q2 2 7.5 7t11 10.5t10.5 11t7 7.5q8 11 27.5 38t41 57t40 56.5t25.5 37.5q1 1 4.5 8t8 15.5t8.5 16.5t6 13q12 26 21 35.5t16 7.5t12 -12.5t9 -24t7.5 -27.5t6.5 -23q11 -30 31 -66.5t43.5 -73
t47.5 -70.5t44 -59v-27q-13 -4 -28 7.5t-30.5 31.5t-31 44.5t-30 48t-26.5 41.5t-20 24q-33 -38 -57.5 -70t-43.5 -64.5t-33 -69.5t-27 -83q-5 -10 -13.5 -10t-13.5 10z" />
    <glyph glyph-name="Edieresis" unicode="&#xcb;" horiz-adv-x="614" 
d="M135 18l-108 646v9q0 1 16.5 6.5t39 12.5t47 14t40.5 11q6 1 29 6t51.5 11t56.5 11t43 8q11 2 19 -3.5t11 -14t0.5 -16.5t-12.5 -10q-7 -1 -23.5 -3.5t-35 -5.5t-35 -5.5t-23.5 -3.5q-9 -2 -22.5 -4t-25.5 -6.5t-19.5 -12.5t-4.5 -22l54 -233q5 -19 23 -19.5t42 6.5
t50.5 16.5t47 12t31 -8t4.5 -43.5q-6 -1 -20 -2t-29.5 -2.5t-29.5 -3t-20 -1.5h-18q-6 -2 -15 -6.5t-18 -8.5t-15 -7.5t-6 -4.5v-27l63 -242q4 -15 27 -14t54.5 8.5t67 17t64 11.5t45 -8t11.5 -42q-3 -19 -15.5 -22t-29.5 -5q-5 0 -32 -2.5t-61.5 -5.5t-68.5 -6t-53 -4h-18
q-20 1 -48.5 2t-55.5 3q-32 2 -66 4zM80 819q-40 28 -46.5 55.5t9 48.5t47.5 32t71 7q22 -15 31 -36t7.5 -42t-12 -40t-26.5 -30t-37 -11.5t-44 16.5zM318 816q-40 28 -46.5 55.5t9 48.5t47.5 32t71 7q22 -15 31 -36t7.5 -42t-12 -40t-26.5 -30t-37 -11.5t-44 16.5z" />
    <glyph glyph-name="Igrave" unicode="&#xcc;" horiz-adv-x="543" 
d="M54 9q-1 0 -1 3.5t1 5.5t4 9t5 9q6 1 22.5 4.5t35.5 8t35.5 8.5t22.5 6q7 2 17 5t10 4v80l-53 476q-1 7 -4.5 24.5t-7.5 36t-8 34.5t-7 21q-23 -9 -49.5 -10t-49.5 1q-10 5 -10 13.5t10 13.5q10 3 35.5 9.5t54 14t54 13.5t35.5 8q4 1 22.5 3.5t40 5.5t40 5.5t23.5 3.5
q14 2 23.5 5t19 5.5t20.5 2.5t27 -4q10 -11 15 -20q5 -8 5 -14t-11 -6h-81l-2.5 -4.5t-5.5 -11.5l-6 -14t-4 -11q-1 -1 -0.5 -4.5t0.5 -4.5q-10 -82 -17.5 -162t-7 -159t12 -157.5t39.5 -157.5q2 -6 9 -16.5t9 -10.5h107q1 0 8.5 -5.5t15.5 -13.5t12.5 -17.5t-0.5 -17.5
q-50 -14 -105.5 -21t-112.5 -9t-113.5 -0.5t-107.5 3.5q-4 0 -14.5 3.5t-12.5 5.5zM-23 1033q1 7 3.5 26.5t5.5 40.5t5.5 40t3.5 27q12 10 17 9t19 0q13 1 41.5 -11.5t65.5 -32t77.5 -42t77 -42t65.5 -32t42 -11.5q7 2 16.5 -0.5t19.5 -7t19.5 -9t17.5 -6.5q4 -65 -8 -95.5
t-36.5 -36.5t-58 6.5t-72.5 34t-81 47t-82 45t-76 28t-64 -4.5q-3 0 -9.5 3.5t-8.5 5.5v18z" />
    <glyph glyph-name="Iacute" unicode="&#xcd;" horiz-adv-x="543" 
d="M54 9q-1 0 -1 3.5t1 5.5t4 9t5 9q6 1 22.5 4.5t35.5 8t35.5 8.5t22.5 6q7 2 17 5t10 4v80l-53 476q-1 7 -4.5 24.5t-7.5 36t-8 34.5t-7 21q-23 -9 -49.5 -10t-49.5 1q-10 5 -10 13.5t10 13.5q10 3 35.5 9.5t54 14t54 13.5t35.5 8q4 1 22.5 3.5t40 5.5t40 5.5t23.5 3.5
q14 2 23.5 5t19 5.5t20.5 2.5t27 -4q10 -11 15 -20q5 -8 5 -14t-11 -6h-81l-2.5 -4.5t-5.5 -11.5l-6 -14t-4 -11q-1 -1 -0.5 -4.5t0.5 -4.5q-10 -82 -17.5 -162t-7 -159t12 -157.5t39.5 -157.5q2 -6 9 -16.5t9 -10.5h107q1 0 8.5 -5.5t15.5 -13.5t12.5 -17.5t-0.5 -17.5
q-50 -14 -105.5 -21t-112.5 -9t-113.5 -0.5t-107.5 3.5q-4 0 -14.5 3.5t-12.5 5.5zM-36 776q1 7 3.5 26.5t5.5 40.5t5.5 40t3.5 27q12 10 17 9t19 0q13 1 52 16.5t91.5 38t111 49t111 49t92 38t52.5 16.5q7 2 6.5 -12t-2.5 -32t-2 -33.5t8 -17.5q-63 -56 -126.5 -91.5
t-122 -58.5t-111.5 -36.5t-95.5 -25.5t-73 -25.5t-45.5 -35.5v18z" />
    <glyph glyph-name="Icircumflex" unicode="&#xce;" horiz-adv-x="543" 
d="M54 9q-1 0 -1 3.5t1 5.5t4 9t5 9q6 1 22.5 4.5t35.5 8t35.5 8.5t22.5 6q7 2 17 5t10 4v80l-53 476q-1 7 -4.5 24.5t-7.5 36t-8 34.5t-7 21q-23 -9 -49.5 -10t-49.5 1q-10 5 -10 13.5t10 13.5q10 3 35.5 9.5t54 14t54 13.5t35.5 8q4 1 22.5 3.5t40 5.5t40 5.5t23.5 3.5
q14 2 23.5 5t19 5.5t20.5 2.5t27 -4q10 -11 15 -20q5 -8 5 -14t-11 -6h-81l-2.5 -4.5t-5.5 -11.5l-6 -14t-4 -11q-1 -1 -0.5 -4.5t0.5 -4.5q-10 -82 -17.5 -162t-7 -159t12 -157.5t39.5 -157.5q2 -6 9 -16.5t9 -10.5h107q1 0 8.5 -5.5t15.5 -13.5t12.5 -17.5t-0.5 -17.5
q-50 -14 -105.5 -21t-112.5 -9t-113.5 -0.5t-107.5 3.5q-4 0 -14.5 3.5t-12.5 5.5zM-7 932q-9 7 -16.5 15.5t-10.5 19.5q2 2 7.5 7t11 10.5t10.5 11t7 7.5q8 11 27.5 38t41 57t40 56.5t25.5 37.5q1 1 4.5 8t8 15.5t8.5 16.5t6 13q12 26 21 35.5t16 7.5t12 -12.5t9 -24
t7.5 -27.5t6.5 -23q11 -30 31 -66.5t43.5 -73t47.5 -70.5t44 -59v-27q-13 -4 -28 7.5t-30.5 31.5t-31 44.5t-30 48t-26.5 41.5t-20 24q-33 -38 -57.5 -70t-43.5 -64.5t-33 -69.5t-27 -83q-5 -10 -13.5 -10t-13.5 10z" />
    <glyph glyph-name="Idieresis" unicode="&#xcf;" horiz-adv-x="543" 
d="M54 9q-1 0 -1 3.5t1 5.5t4 9t5 9q6 1 22.5 4.5t35.5 8t35.5 8.5t22.5 6q7 2 17 5t10 4v80l-53 476q-1 7 -4.5 24.5t-7.5 36t-8 34.5t-7 21q-23 -9 -49.5 -10t-49.5 1q-10 5 -10 13.5t10 13.5q10 3 35.5 9.5t54 14t54 13.5t35.5 8q4 1 22.5 3.5t40 5.5t40 5.5t23.5 3.5
q14 2 23.5 5t19 5.5t20.5 2.5t27 -4q10 -11 15 -20q5 -8 5 -14t-11 -6h-81l-2.5 -4.5t-5.5 -11.5l-6 -14t-4 -11q-1 -1 -0.5 -4.5t0.5 -4.5q-10 -82 -17.5 -162t-7 -159t12 -157.5t39.5 -157.5q2 -6 9 -16.5t9 -10.5h107q1 0 8.5 -5.5t15.5 -13.5t12.5 -17.5t-0.5 -17.5
q-50 -14 -105.5 -21t-112.5 -9t-113.5 -0.5t-107.5 3.5q-4 0 -14.5 3.5t-12.5 5.5zM109 897q-40 28 -46.5 55.5t9 48.5t47.5 32t71 7q22 -15 31 -36t7.5 -42t-12 -40t-26.5 -30t-37 -11.5t-44 16.5zM347 894q-40 28 -46.5 55.5t9 48.5t47.5 32t71 7q22 -15 31 -36t7.5 -42
t-12 -40t-26.5 -30t-37 -11.5t-44 16.5z" />
    <glyph glyph-name="Eth" unicode="&#xd0;" horiz-adv-x="596" 
d="M174 9q-1 2 -3.5 9t-5.5 15.5t-5 17t-3 12.5l-126 574q-3 15 11.5 24t35.5 14t41.5 6.5t28.5 0.5q11 -5 39 -17.5t59.5 -27t59.5 -27.5t39 -18q29 -14 53.5 -35.5t45 -46.5t38 -52.5t33.5 -53.5q35 -57 47 -102t3 -84.5t-38 -76.5t-74 -78q-12 -11 -27.5 -16.5t-30.5 -11
t-28.5 -13.5t-21.5 -22h-153q-3 0 -9.5 3.5t-8.5 5.5zM336 72q5 -17 24.5 -11.5t43.5 27.5t47.5 58.5t35.5 81t8 94.5t-34 100q-21 36 -53.5 65t-69 54t-75 46t-71.5 41q-3 -21 2 -42.5t12 -43t12 -43t1 -42.5zM143 238q119 28 178.5 48.5t72.5 35t-13.5 22t-79.5 10
t-125.5 -0.5t-151.5 -10q2 -11 -3 -23t-9 -24.5t-3.5 -23.5t13 -19t41 -12.5t80.5 -2.5z" />
    <glyph glyph-name="Ntilde" unicode="&#xd1;" horiz-adv-x="821" 
d="M224 18q-2 3 -5 8t-5.5 11t-5 10.5t-2.5 6.5v13.5v22.5v22.5v13.5q-2 16 -8.5 51.5t-13.5 74t-13.5 72t-9.5 44.5q-1 4 -8.5 28t-17.5 55.5t-20 63.5t-16 50l-9 18q-8 21 -20.5 54.5t-24 65t-19.5 54t-8 23.5v27q0 1 9.5 3.5t22 5.5t26.5 5.5t23 3.5q16 2 32 1t29.5 -7
t23 -17.5t13.5 -30.5l180 -224l287 -251q2 -2 15.5 -8.5t20.5 -9.5h9v18l-135 628q-3 12 5 33.5t20.5 41t28 33.5t27.5 11.5t17.5 -25.5t0.5 -76q-2 -21 -4 -46t-3.5 -51.5t-2 -52.5t0.5 -48q18 -141 48 -281t77 -275q5 -19 1 -26.5t-13 -7.5t-20.5 5t-21.5 11
q-41 28 -82.5 61t-81.5 68t-78 70.5t-71 69.5q-4 3 -13.5 15t-22.5 27.5t-27.5 33.5t-27 34t-22.5 27.5t-13 15.5q-2 2 -7 7.5t-10.5 11t-11 10.5t-7.5 7v-18l108 -440q1 -3 6.5 -16.5t12.5 -29t14 -30.5t12 -22q4 -7 11 -14t13.5 -14.5t10 -16t0.5 -18.5q0 -2 -3.5 -5.5
t-4.5 -3.5h-198q-2 0 -8.5 7t-9.5 11zM34 929l-76 161l12 12.5t29 30t35.5 35.5t31.5 30q2 2 12.5 9t14.5 9q27 4 46.5 5.5t36 -1.5t33 -10.5t36.5 -20.5q22 -14 35 -35.5t26 -43.5t29.5 -40t44.5 -25q11 -3 25.5 0.5t28.5 10t26 16t18 18.5q2 4 7.5 14t11 21.5t10.5 21.5
t7 15q8 19 7.5 31.5t-2 23t0 22.5t12.5 31q4 7 12 8.5t15.5 -1.5t13 -10t4.5 -15q-1 -11 -2 -31.5t-3.5 -43t-7.5 -44t-14 -34.5q-20 -28 -50 -51t-64.5 -34t-70 -7.5t-66.5 29.5l-13.5 13.5l-22.5 22.5l-22.5 22.5l-13.5 13.5q-7 6 -17 8.5t-19 0.5q-31 -27 -49.5 -56
t-29 -61t-16.5 -67.5t-12 -75.5z" />
    <glyph glyph-name="Ograve" unicode="&#xd2;" horiz-adv-x="628" 
d="M246 9q-56 13 -94 40.5t-62.5 65t-37 83.5t-17.5 94.5t-5 97.5t1 94q1 24 2.5 58.5t6 72.5t13 76.5t23 71t36.5 56.5t54 33q8 2 24 6.5t33 8.5t31.5 7.5t18.5 4.5q21 4 35.5 0.5t26 -11.5t22 -19.5t24.5 -23.5q32 -27 57.5 -55t47 -58t39.5 -64t35 -74l4 -12t6 -19
t5.5 -19t2.5 -13q1 -5 4.5 -33t7.5 -63.5t8.5 -71.5t6.5 -56q3 -24 -2.5 -47t-15.5 -43q-2 -3 -8.5 -17.5t-14 -31.5t-14 -31.5t-8.5 -17.5q-24 -38 -58.5 -59.5t-74 -31.5t-82 -9t-81.5 10zM318 81q23 -20 47 -24.5t47 3t44 24.5t38.5 38.5t29.5 46t18 46.5t9 42t3.5 39.5
t-0.5 41t-3 48.5q-3 37 -12.5 73t-23 70.5t-30 68.5t-32.5 66q-2 2 -7 7.5t-11 11t-11 10.5l-7 7q-11 8 -18.5 21t-15 26.5t-16.5 25t-22 16.5q-23 9 -43.5 -1.5t-37 -30.5t-28 -43.5t-17.5 -40.5q-3 -11 -9 -32.5t-11.5 -44.5t-10 -42t-5.5 -25q0 -5 -0.5 -25.5t-0.5 -46
t0.5 -51t0.5 -38.5q2 -39 12.5 -79.5t28 -78t41.5 -70.5t53 -59zM63 1024q1 7 3.5 26.5t5.5 40.5t5.5 40t3.5 27q12 10 17 9t19 0q13 1 41.5 -11.5t65.5 -32t77.5 -42t77 -42t65.5 -32t42 -11.5q7 2 16.5 -0.5t19.5 -7t19.5 -9t17.5 -6.5q4 -65 -8 -95.5t-36.5 -36.5
t-58 6.5t-72.5 34t-81 47t-82 45t-76 28t-64 -4.5q-3 0 -9.5 3.5t-8.5 5.5v18z" />
    <glyph glyph-name="Oacute" unicode="&#xd3;" horiz-adv-x="628" 
d="M246 9q-56 13 -94 40.5t-62.5 65t-37 83.5t-17.5 94.5t-5 97.5t1 94q1 24 2.5 58.5t6 72.5t13 76.5t23 71t36.5 56.5t54 33q8 2 24 6.5t33 8.5t31.5 7.5t18.5 4.5q21 4 35.5 0.5t26 -11.5t22 -19.5t24.5 -23.5q32 -27 57.5 -55t47 -58t39.5 -64t35 -74l4 -12t6 -19
t5.5 -19t2.5 -13q1 -5 4.5 -33t7.5 -63.5t8.5 -71.5t6.5 -56q3 -24 -2.5 -47t-15.5 -43q-2 -3 -8.5 -17.5t-14 -31.5t-14 -31.5t-8.5 -17.5q-24 -38 -58.5 -59.5t-74 -31.5t-82 -9t-81.5 10zM318 81q23 -20 47 -24.5t47 3t44 24.5t38.5 38.5t29.5 46t18 46.5t9 42t3.5 39.5
t-0.5 41t-3 48.5q-3 37 -12.5 73t-23 70.5t-30 68.5t-32.5 66q-2 2 -7 7.5t-11 11t-11 10.5l-7 7q-11 8 -18.5 21t-15 26.5t-16.5 25t-22 16.5q-23 9 -43.5 -1.5t-37 -30.5t-28 -43.5t-17.5 -40.5q-3 -11 -9 -32.5t-11.5 -44.5t-10 -42t-5.5 -25q0 -5 -0.5 -25.5t-0.5 -46
t0.5 -51t0.5 -38.5q2 -39 12.5 -79.5t28 -78t41.5 -70.5t53 -59zM-10 816q1 7 3.5 26.5t5.5 40.5t5.5 40t3.5 27q12 10 17 9t19 0q13 1 52 16.5t91.5 38t111 49t111 49t92 38t52.5 16.5q7 2 6.5 -12t-2.5 -32t-2 -33.5t8 -17.5q-63 -56 -126.5 -91.5t-122 -58.5
t-111.5 -36.5t-95.5 -25.5t-73 -25.5t-45.5 -35.5v18z" />
    <glyph glyph-name="Ocircumflex" unicode="&#xd4;" horiz-adv-x="628" 
d="M246 9q-56 13 -94 40.5t-62.5 65t-37 83.5t-17.5 94.5t-5 97.5t1 94q1 24 2.5 58.5t6 72.5t13 76.5t23 71t36.5 56.5t54 33q8 2 24 6.5t33 8.5t31.5 7.5t18.5 4.5q21 4 35.5 0.5t26 -11.5t22 -19.5t24.5 -23.5q32 -27 57.5 -55t47 -58t39.5 -64t35 -74l4 -12t6 -19
t5.5 -19t2.5 -13q1 -5 4.5 -33t7.5 -63.5t8.5 -71.5t6.5 -56q3 -24 -2.5 -47t-15.5 -43q-2 -3 -8.5 -17.5t-14 -31.5t-14 -31.5t-8.5 -17.5q-24 -38 -58.5 -59.5t-74 -31.5t-82 -9t-81.5 10zM318 81q23 -20 47 -24.5t47 3t44 24.5t38.5 38.5t29.5 46t18 46.5t9 42t3.5 39.5
t-0.5 41t-3 48.5q-3 37 -12.5 73t-23 70.5t-30 68.5t-32.5 66q-2 2 -7 7.5t-11 11t-11 10.5l-7 7q-11 8 -18.5 21t-15 26.5t-16.5 25t-22 16.5q-23 9 -43.5 -1.5t-37 -30.5t-28 -43.5t-17.5 -40.5q-3 -11 -9 -32.5t-11.5 -44.5t-10 -42t-5.5 -25q0 -5 -0.5 -25.5t-0.5 -46
t0.5 -51t0.5 -38.5q2 -39 12.5 -79.5t28 -78t41.5 -70.5t53 -59zM-8 922q-9 7 -16.5 15.5t-10.5 19.5q2 2 7.5 7t11 10.5t10.5 11t7 7.5q8 11 27.5 38t41 57t40 56.5t25.5 37.5q1 1 4.5 8t8 15.5t8.5 16.5t6 13q12 26 21 35.5t16 7.5t12 -12.5t9 -24t7.5 -27.5t6.5 -23
q11 -30 31 -66.5t43.5 -73t47.5 -70.5t44 -59v-27q-13 -4 -28 7.5t-30.5 31.5t-31 44.5t-30 48t-26.5 41.5t-20 24q-33 -38 -57.5 -70t-43.5 -64.5t-33 -69.5t-27 -83q-5 -10 -13.5 -10t-13.5 10z" />
    <glyph glyph-name="Otilde" unicode="&#xd5;" horiz-adv-x="628" 
d="M246 9q-56 13 -94 40.5t-62.5 65t-37 83.5t-17.5 94.5t-5 97.5t1 94q1 24 2.5 58.5t6 72.5t13 76.5t23 71t36.5 56.5t54 33q8 2 24 6.5t33 8.5t31.5 7.5t18.5 4.5q21 4 35.5 0.5t26 -11.5t22 -19.5t24.5 -23.5q32 -27 57.5 -55t47 -58t39.5 -64t35 -74l4 -12t6 -19
t5.5 -19t2.5 -13q1 -5 4.5 -33t7.5 -63.5t8.5 -71.5t6.5 -56q3 -24 -2.5 -47t-15.5 -43q-2 -3 -8.5 -17.5t-14 -31.5t-14 -31.5t-8.5 -17.5q-24 -38 -58.5 -59.5t-74 -31.5t-82 -9t-81.5 10zM318 81q23 -20 47 -24.5t47 3t44 24.5t38.5 38.5t29.5 46t18 46.5t9 42t3.5 39.5
t-0.5 41t-3 48.5q-3 37 -12.5 73t-23 70.5t-30 68.5t-32.5 66q-2 2 -7 7.5t-11 11t-11 10.5l-7 7q-11 8 -18.5 21t-15 26.5t-16.5 25t-22 16.5q-23 9 -43.5 -1.5t-37 -30.5t-28 -43.5t-17.5 -40.5q-3 -11 -9 -32.5t-11.5 -44.5t-10 -42t-5.5 -25q0 -5 -0.5 -25.5t-0.5 -46
t0.5 -51t0.5 -38.5q2 -39 12.5 -79.5t28 -78t41.5 -70.5t53 -59zM-1 847l-76 161l12 12.5t29 30t35.5 35.5t31.5 30q2 2 12.5 9t14.5 9q27 4 46.5 5.5t36 -1.5t33 -10.5t36.5 -20.5q22 -14 35 -35.5t26 -43.5t29.5 -40t44.5 -25q11 -3 25.5 0.5t28.5 10t26 16t18 18.5
q2 4 7.5 14t11 21.5t10.5 21.5t7 15q8 19 7.5 31.5t-2 23t0 22.5t12.5 31q4 7 12 8.5t15.5 -1.5t13 -10t4.5 -15q-1 -11 -2 -31.5t-3.5 -43t-7.5 -44t-14 -34.5q-20 -28 -50 -51t-64.5 -34t-70 -7.5t-66.5 29.5l-13.5 13.5l-22.5 22.5l-22.5 22.5l-13.5 13.5q-7 6 -17 8.5
t-19 0.5q-31 -27 -49.5 -56t-29 -61t-16.5 -67.5t-12 -75.5z" />
    <glyph glyph-name="Odieresis" unicode="&#xd6;" horiz-adv-x="628" 
d="M246 9q-56 13 -94 40.5t-62.5 65t-37 83.5t-17.5 94.5t-5 97.5t1 94q1 24 2.5 58.5t6 72.5t13 76.5t23 71t36.5 56.5t54 33q8 2 24 6.5t33 8.5t31.5 7.5t18.5 4.5q21 4 35.5 0.5t26 -11.5t22 -19.5t24.5 -23.5q32 -27 57.5 -55t47 -58t39.5 -64t35 -74l4 -12t6 -19
t5.5 -19t2.5 -13q1 -5 4.5 -33t7.5 -63.5t8.5 -71.5t6.5 -56q3 -24 -2.5 -47t-15.5 -43q-2 -3 -8.5 -17.5t-14 -31.5t-14 -31.5t-8.5 -17.5q-24 -38 -58.5 -59.5t-74 -31.5t-82 -9t-81.5 10zM318 81q23 -20 47 -24.5t47 3t44 24.5t38.5 38.5t29.5 46t18 46.5t9 42t3.5 39.5
t-0.5 41t-3 48.5q-3 37 -12.5 73t-23 70.5t-30 68.5t-32.5 66q-2 2 -7 7.5t-11 11t-11 10.5l-7 7q-11 8 -18.5 21t-15 26.5t-16.5 25t-22 16.5q-23 9 -43.5 -1.5t-37 -30.5t-28 -43.5t-17.5 -40.5q-3 -11 -9 -32.5t-11.5 -44.5t-10 -42t-5.5 -25q0 -5 -0.5 -25.5t-0.5 -46
t0.5 -51t0.5 -38.5q2 -39 12.5 -79.5t28 -78t41.5 -70.5t53 -59zM104 941q-40 28 -46.5 55.5t9 48.5t47.5 32t71 7q22 -15 31 -36t7.5 -42t-12 -40t-26.5 -30t-37 -11.5t-44 16.5zM342 938q-40 28 -46.5 55.5t9 48.5t47.5 32t71 7q22 -15 31 -36t7.5 -42t-12 -40t-26.5 -30
t-37 -11.5t-44 16.5z" />
    <glyph glyph-name="Oslash" unicode="&#xd8;" horiz-adv-x="628" 
d="M246 9q-56 13 -94 40.5t-62.5 65t-37 83.5t-17.5 94.5t-5 97.5t1 94q1 24 2.5 58.5t6 72.5t13 76.5t23 71t36.5 56.5t54 33q8 2 24 6.5t33 8.5t31.5 7.5t18.5 4.5q21 4 35.5 0.5t26 -11.5t22 -19.5t24.5 -23.5q32 -27 57.5 -55t47 -58t39.5 -64t35 -74l4 -12t6 -19
t5.5 -19t2.5 -13q1 -5 4.5 -33t7.5 -63.5t8.5 -71.5t6.5 -56q3 -24 -2.5 -47t-15.5 -43q-2 -3 -8.5 -17.5t-14 -31.5t-14 -31.5t-8.5 -17.5q-24 -38 -58.5 -59.5t-74 -31.5t-82 -9t-81.5 10zM318 81q23 -20 47 -24.5t47 3t44 24.5t38.5 38.5t29.5 46t18 46.5t9 42t3.5 39.5
t-0.5 41t-3 48.5q-3 37 -12.5 73t-23 70.5t-30 68.5t-32.5 66q-2 2 -7 7.5t-11 11t-11 10.5l-7 7q-11 8 -18.5 21t-15 26.5t-16.5 25t-22 16.5q-23 9 -43.5 -1.5t-37 -30.5t-28 -43.5t-17.5 -40.5q-3 -11 -9 -32.5t-11.5 -44.5t-10 -42t-5.5 -25q0 -5 -0.5 -25.5t-0.5 -46
t0.5 -51t0.5 -38.5q2 -39 12.5 -79.5t28 -78t41.5 -70.5t53 -59zM265.339 26.4727q-3.16992 6.83789 -7.92383 14.5303q-4.75488 7.69336 -8.15137 17.9502q-3.39648 10.2578 -4.30176 24.7881q-0.905273 14.5312 4.0752 35.0459q1.3584 5.12891 5.43457 20.5146
q4.0752 15.3857 8.60352 32.4805q4.52832 17.0957 8.60352 32.4814t5.88672 20.5146q4.0752 20.5146 13.3574 71.7998q9.2832 51.2861 19.6982 110.266q10.415 58.9785 19.4707 111.975q9.05664 52.9951 12.2266 75.2188q0.453125 5.12891 4.75488 36.7549
q4.30176 31.627 9.50879 72.6553q5.20703 41.0293 10.415 82.9131q5.20703 41.8828 7.92383 67.5264q0.90625 5.12891 2.26465 23.0781q1.3584 17.9502 1.81152 23.0791q6.79199 1.70996 14.9424 0.854492q8.15137 -0.854492 16.5283 -3.41895t16.0752 -5.9834
q7.69727 -3.41895 13.1318 -6.83789q4.0752 -3.41895 10.415 -7.69336q6.33887 -4.27344 12.2256 -9.40234q5.88672 -5.12793 9.96191 -9.40234l4.0752 -4.27344v-46.1572l-121.808 -688.942l-28.5283 -215.401q-0.905273 -8.54785 -3.16992 -14.5312
q-2.26367 -5.9834 -4.98047 -0.854492q-2.7168 8.54785 -10.1885 28.207q-7.47168 19.6602 -15.8486 41.8838t-15.8486 41.0293q-7.47168 18.8047 -10.6416 27.3525z" />
    <glyph glyph-name="Ugrave" unicode="&#xd9;" horiz-adv-x="558" 
d="M213 31q-17 7 -30.5 20.5t-25 30.5t-20 36t-14.5 39q-31 136 -48.5 272t-35.5 273q22 9 41 25.5t37 36.5t34.5 42t33.5 42q3 1 7.5 3.5t9.5 4t9.5 0t6.5 -7.5v-83q1 -18 2.5 -44.5t3 -57.5t3.5 -62t3.5 -57t2.5 -44t2 -22q2 -14 8 -47.5t13 -71.5t14 -71.5t10 -46.5
q39 -81 72 -103t57 0t39.5 82t19.5 144t-3 186t-28 208v35q2 -1 8.5 -5t8.5 -9l17 -70q8 -43 16.5 -98t14.5 -115t6.5 -121.5t-7.5 -118t-27 -104t-53 -79t-85 -44t-123 1.5zM34 1017q1 7 3.5 26.5t5.5 40.5t5.5 40t3.5 27q12 10 17 9t19 0q13 1 41.5 -11.5t65.5 -32
t77.5 -42t77 -42t65.5 -32t42 -11.5q7 2 16.5 -0.5t19.5 -7t19.5 -9t17.5 -6.5q4 -65 -8 -95.5t-36.5 -36.5t-58 6.5t-72.5 34t-81 47t-82 45t-76 28t-64 -4.5q-3 0 -9.5 3.5t-8.5 5.5v18z" />
    <glyph glyph-name="Uacute" unicode="&#xda;" horiz-adv-x="558" 
d="M213 31q-17 7 -30.5 20.5t-25 30.5t-20 36t-14.5 39q-31 136 -48.5 272t-35.5 273q22 9 41 25.5t37 36.5t34.5 42t33.5 42q3 1 7.5 3.5t9.5 4t9.5 0t6.5 -7.5v-83q1 -18 2.5 -44.5t3 -57.5t3.5 -62t3.5 -57t2.5 -44t2 -22q2 -14 8 -47.5t13 -71.5t14 -71.5t10 -46.5
q39 -81 72 -103t57 0t39.5 82t19.5 144t-3 186t-28 208v35q2 -1 8.5 -5t8.5 -9l17 -70q8 -43 16.5 -98t14.5 -115t6.5 -121.5t-7.5 -118t-27 -104t-53 -79t-85 -44t-123 1.5zM-32 816q1 7 3.5 26.5t5.5 40.5t5.5 40t3.5 27q12 10 17 9t19 0q13 1 52 16.5t91.5 38t111 49
t111 49t92 38t52.5 16.5q7 2 6.5 -12t-2.5 -32t-2 -33.5t8 -17.5q-63 -56 -126.5 -91.5t-122 -58.5t-111.5 -36.5t-95.5 -25.5t-73 -25.5t-45.5 -35.5v18z" />
    <glyph glyph-name="Ucircumflex" unicode="&#xdb;" horiz-adv-x="558" 
d="M213 31q-17 7 -30.5 20.5t-25 30.5t-20 36t-14.5 39q-31 136 -48.5 272t-35.5 273q22 9 41 25.5t37 36.5t34.5 42t33.5 42q3 1 7.5 3.5t9.5 4t9.5 0t6.5 -7.5v-83q1 -18 2.5 -44.5t3 -57.5t3.5 -62t3.5 -57t2.5 -44t2 -22q2 -14 8 -47.5t13 -71.5t14 -71.5t10 -46.5
q39 -81 72 -103t57 0t39.5 82t19.5 144t-3 186t-28 208v35q2 -1 8.5 -5t8.5 -9l17 -70q8 -43 16.5 -98t14.5 -115t6.5 -121.5t-7.5 -118t-27 -104t-53 -79t-85 -44t-123 1.5zM43 939q-9 7 -16.5 15.5t-10.5 19.5q2 2 7.5 7t11 10.5t10.5 11t7 7.5q8 11 27.5 38t41 57
t40 56.5t25.5 37.5q1 1 4.5 8t8 15.5t8.5 16.5t6 13q12 26 21 35.5t16 7.5t12 -12.5t9 -24t7.5 -27.5t6.5 -23q11 -30 31 -66.5t43.5 -73t47.5 -70.5t44 -59v-27q-13 -4 -28 7.5t-30.5 31.5t-31 44.5t-30 48t-26.5 41.5t-20 24q-33 -38 -57.5 -70t-43.5 -64.5t-33 -69.5
t-27 -83q-5 -10 -13.5 -10t-13.5 10z" />
    <glyph glyph-name="Udieresis" unicode="&#xdc;" horiz-adv-x="558" 
d="M213 31q-17 7 -30.5 20.5t-25 30.5t-20 36t-14.5 39q-31 136 -48.5 272t-35.5 273q22 9 41 25.5t37 36.5t34.5 42t33.5 42q3 1 7.5 3.5t9.5 4t9.5 0t6.5 -7.5v-83q1 -18 2.5 -44.5t3 -57.5t3.5 -62t3.5 -57t2.5 -44t2 -22q2 -14 8 -47.5t13 -71.5t14 -71.5t10 -46.5
q39 -81 72 -103t57 0t39.5 82t19.5 144t-3 186t-28 208v35q2 -1 8.5 -5t8.5 -9l17 -70q8 -43 16.5 -98t14.5 -115t6.5 -121.5t-7.5 -118t-27 -104t-53 -79t-85 -44t-123 1.5zM126 894q-40 28 -46.5 55.5t9 48.5t47.5 32t71 7q22 -15 31 -36t7.5 -42t-12 -40t-26.5 -30
t-37 -11.5t-44 16.5zM364 891q-40 28 -46.5 55.5t9 48.5t47.5 32t71 7q22 -15 31 -36t7.5 -42t-12 -40t-26.5 -30t-37 -11.5t-44 16.5z" />
    <glyph glyph-name="Yacute" unicode="&#xdd;" horiz-adv-x="515" 
d="M265 29l-9 5q2 38 1.5 83t-4 91t-10.5 91.5t-17 85.5q-51 58 -98 113t-95 112q-2 3 -8 8.5t-10.5 12.5t-4.5 13t9 9l97 117q68 -79 106 -126t59 -72t31.5 -33.5t22.5 -10.5l136 212q14 -2 33.5 -4t28.5 -6q-12 -26 -37.5 -63t-52 -75.5t-47 -73.5t-22.5 -57l68 -421
q3 -11 -2.5 -14t-14.5 -2.5t-19.5 3t-17.5 2.5h-123zM-20 762q1 7 3.5 26.5t5.5 40.5t5.5 40t3.5 27q12 10 17 9t19 0q13 1 52 16.5t91.5 38t111 49t111 49t92 38t52.5 16.5q7 2 6.5 -12t-2.5 -32t-2 -33.5t8 -17.5q-63 -56 -126.5 -91.5t-122 -58.5t-111.5 -36.5
t-95.5 -25.5t-73 -25.5t-45.5 -35.5v18z" />
    <glyph glyph-name="agrave" unicode="&#xe0;" horiz-adv-x="457" 
d="M171 -19q-47 7 -69.5 27.5t-26 47t9.5 56.5t36.5 55.5t55 43.5t66.5 21q1 12 2.5 37.5t3 57.5t3.5 67t3.5 67t3 57t2.5 37q0 9 -1.5 21.5t-4.5 25.5t-8.5 24.5t-12.5 18.5q-4 4 -11.5 2t-15 -6.5t-13 -9l-5.5 -4.5l-17 -17t-22.5 -22t-20.5 -20.5t-11 -12.5
q-1 -1 -4.5 -7.5t-8 -15t-8.5 -17.5t-6 -14q-1 -1 -2 -5t-2.5 -8.5t-2.5 -8.5t-2 -5q-10 -6 -23.5 -0.5t-24 16.5t-16 24t0.5 23q13 21 36.5 46t51.5 48.5t57 41.5t52 25q39 12 73.5 3.5t60 -31t40.5 -55.5t15 -69v-493q18 -12 18 -21t-9 -15.5t-22.5 -10.5t-22.5 -7
q-19 -6 -31.5 -11l-22.5 -9t-20 -6t-25 -1q-9 1 -24.5 2t-31 2.5t-28 3t-15.5 1.5zM180 26q17 -13 27 -9.5t16 15.5t8 28.5t3 28.5q0 4 0.5 15.5t0.5 24.5t-0.5 24t-0.5 16q-19 9 -38 -5.5t-30 -39.5t-10 -53t24 -45zM-5 864q1 7 3.5 26.5t5.5 40.5t5.5 40t3.5 27
q12 10 17 9t19 0q13 1 41.5 -11.5t65.5 -32t77.5 -42t77 -42t65.5 -32t42 -11.5q7 2 16.5 -0.5t19.5 -7t19.5 -9t17.5 -6.5q4 -65 -8 -95.5t-36.5 -36.5t-58 6.5t-72.5 34t-81 47t-82 45t-76 28t-64 -4.5q-3 0 -9.5 3.5t-8.5 5.5v18z" />
    <glyph glyph-name="aacute" unicode="&#xe1;" horiz-adv-x="457" 
d="M173 -46q-47 7 -69.5 27.5t-26 47t9.5 56.5t36.5 55.5t55 43.5t66.5 21q1 12 2.5 37.5t3 57.5t3.5 67t3.5 67t3 57t2.5 37q0 9 -1.5 21.5t-4.5 25.5t-8.5 24.5t-12.5 18.5q-4 4 -11.5 2t-15 -6.5t-13 -9l-5.5 -4.5l-17 -17t-22.5 -22t-20.5 -20.5t-11 -12.5
q-1 -1 -4.5 -7.5t-8 -15t-8.5 -17.5t-6 -14q-1 -1 -2 -5t-2.5 -8.5t-2.5 -8.5t-2 -5q-10 -6 -23.5 -0.5t-24 16.5t-16 24t0.5 23q13 21 36.5 46t51.5 48.5t57 41.5t52 25q39 12 73.5 3.5t60 -31t40.5 -55.5t15 -69v-493q18 -12 18 -21t-9 -15.5t-22.5 -10.5t-22.5 -7
q-19 -6 -31.5 -11l-22.5 -9t-20 -6t-25 -1q-9 1 -24.5 2t-31 2.5t-28 3t-15.5 1.5zM182 -1q17 -13 27 -9.5t16 15.5t8 28.5t3 28.5q0 4 0.5 15.5t0.5 24.5t-0.5 24t-0.5 16q-19 9 -38 -5.5t-30 -39.5t-10 -53t24 -45zM-48 622q1 7 3.5 26.5t5.5 40.5t5.5 40t3.5 27
q12 10 17 9t19 0q13 1 52 16.5t91.5 38t111 49t111 49t92 38t52.5 16.5q7 2 6.5 -12t-2.5 -32t-2 -33.5t8 -17.5q-63 -56 -126.5 -91.5t-122 -58.5t-111.5 -36.5t-95.5 -25.5t-73 -25.5t-45.5 -35.5v18z" />
    <glyph glyph-name="acircumflex" unicode="&#xe2;" horiz-adv-x="457" 
d="M173 -46q-47 7 -69.5 27.5t-26 47t9.5 56.5t36.5 55.5t55 43.5t66.5 21q1 12 2.5 37.5t3 57.5t3.5 67t3.5 67t3 57t2.5 37q0 9 -1.5 21.5t-4.5 25.5t-8.5 24.5t-12.5 18.5q-4 4 -11.5 2t-15 -6.5t-13 -9l-5.5 -4.5l-17 -17t-22.5 -22t-20.5 -20.5t-11 -12.5
q-1 -1 -4.5 -7.5t-8 -15t-8.5 -17.5t-6 -14q-1 -1 -2 -5t-2.5 -8.5t-2.5 -8.5t-2 -5q-10 -6 -23.5 -0.5t-24 16.5t-16 24t0.5 23q13 21 36.5 46t51.5 48.5t57 41.5t52 25q39 12 73.5 3.5t60 -31t40.5 -55.5t15 -69v-493q18 -12 18 -21t-9 -15.5t-22.5 -10.5t-22.5 -7
q-19 -6 -31.5 -11l-22.5 -9t-20 -6t-25 -1q-9 1 -24.5 2t-31 2.5t-28 3t-15.5 1.5zM182 -1q17 -13 27 -9.5t16 15.5t8 28.5t3 28.5q0 4 0.5 15.5t0.5 24.5t-0.5 24t-0.5 16q-19 9 -38 -5.5t-30 -39.5t-10 -53t24 -45zM5 755q-9 7 -16.5 15.5t-10.5 19.5q2 2 7.5 7t11 10.5
t10.5 11t7 7.5q8 11 27.5 38t41 57t40 56.5t25.5 37.5q1 1 4.5 8t8 15.5t8.5 16.5t6 13q12 26 21 35.5t16 7.5t12 -12.5t9 -24t7.5 -27.5t6.5 -23q11 -30 31 -66.5t43.5 -73t47.5 -70.5t44 -59v-27q-13 -4 -28 7.5t-30.5 31.5t-31 44.5t-30 48t-26.5 41.5t-20 24
q-33 -38 -57.5 -70t-43.5 -64.5t-33 -69.5t-27 -83q-5 -10 -13.5 -10t-13.5 10z" />
    <glyph glyph-name="atilde" unicode="&#xe3;" horiz-adv-x="457" 
d="M173 -46q-47 7 -69.5 27.5t-26 47t9.5 56.5t36.5 55.5t55 43.5t66.5 21q1 12 2.5 37.5t3 57.5t3.5 67t3.5 67t3 57t2.5 37q0 9 -1.5 21.5t-4.5 25.5t-8.5 24.5t-12.5 18.5q-4 4 -11.5 2t-15 -6.5t-13 -9l-5.5 -4.5l-17 -17t-22.5 -22t-20.5 -20.5t-11 -12.5
q-1 -1 -4.5 -7.5t-8 -15t-8.5 -17.5t-6 -14q-1 -1 -2 -5t-2.5 -8.5t-2.5 -8.5t-2 -5q-10 -6 -23.5 -0.5t-24 16.5t-16 24t0.5 23q13 21 36.5 46t51.5 48.5t57 41.5t52 25q39 12 73.5 3.5t60 -31t40.5 -55.5t15 -69v-493q18 -12 18 -21t-9 -15.5t-22.5 -10.5t-22.5 -7
q-19 -6 -31.5 -11l-22.5 -9t-20 -6t-25 -1q-9 1 -24.5 2t-31 2.5t-28 3t-15.5 1.5zM182 -1q17 -13 27 -9.5t16 15.5t8 28.5t3 28.5q0 4 0.5 15.5t0.5 24.5t-0.5 24t-0.5 16q-19 9 -38 -5.5t-30 -39.5t-10 -53t24 -45zM-15 633l-76 161l12 12.5t29 30t35.5 35.5t31.5 30
q2 2 12.5 9t14.5 9q27 4 46.5 5.5t36 -1.5t33 -10.5t36.5 -20.5q22 -14 35 -35.5t26 -43.5t29.5 -40t44.5 -25q11 -3 25.5 0.5t28.5 10t26 16t18 18.5q2 4 7.5 14t11 21.5t10.5 21.5t7 15q8 19 7.5 31.5t-2 23t0 22.5t12.5 31q4 7 12 8.5t15.5 -1.5t13 -10t4.5 -15
q-1 -11 -2 -31.5t-3.5 -43t-7.5 -44t-14 -34.5q-20 -28 -50 -51t-64.5 -34t-70 -7.5t-66.5 29.5l-13.5 13.5l-22.5 22.5l-22.5 22.5l-13.5 13.5q-7 6 -17 8.5t-19 0.5q-31 -27 -49.5 -56t-29 -61t-16.5 -67.5t-12 -75.5z" />
    <glyph glyph-name="adieresis" unicode="&#xe4;" horiz-adv-x="457" 
d="M173 -46q-47 7 -69.5 27.5t-26 47t9.5 56.5t36.5 55.5t55 43.5t66.5 21q1 12 2.5 37.5t3 57.5t3.5 67t3.5 67t3 57t2.5 37q0 9 -1.5 21.5t-4.5 25.5t-8.5 24.5t-12.5 18.5q-4 4 -11.5 2t-15 -6.5t-13 -9l-5.5 -4.5l-17 -17t-22.5 -22t-20.5 -20.5t-11 -12.5
q-1 -1 -4.5 -7.5t-8 -15t-8.5 -17.5t-6 -14q-1 -1 -2 -5t-2.5 -8.5t-2.5 -8.5t-2 -5q-10 -6 -23.5 -0.5t-24 16.5t-16 24t0.5 23q13 21 36.5 46t51.5 48.5t57 41.5t52 25q39 12 73.5 3.5t60 -31t40.5 -55.5t15 -69v-493q18 -12 18 -21t-9 -15.5t-22.5 -10.5t-22.5 -7
q-19 -6 -31.5 -11l-22.5 -9t-20 -6t-25 -1q-9 1 -24.5 2t-31 2.5t-28 3t-15.5 1.5zM182 -1q17 -13 27 -9.5t16 15.5t8 28.5t3 28.5q0 4 0.5 15.5t0.5 24.5t-0.5 24t-0.5 16q-19 9 -38 -5.5t-30 -39.5t-10 -53t24 -45zM58 744q-40 28 -46.5 55.5t9 48.5t47.5 32t71 7
q22 -15 31 -36t7.5 -42t-12 -40t-26.5 -30t-37 -11.5t-44 16.5zM296 741q-40 28 -46.5 55.5t9 48.5t47.5 32t71 7q22 -15 31 -36t7.5 -42t-12 -40t-26.5 -30t-37 -11.5t-44 16.5z" />
    <glyph glyph-name="aring" unicode="&#xe5;" horiz-adv-x="457" 
d="M173 -46q-47 7 -69.5 27.5t-26 47t9.5 56.5t36.5 55.5t55 43.5t66.5 21q1 12 2.5 37.5t3 57.5t3.5 67t3.5 67t3 57t2.5 37q0 9 -1.5 21.5t-4.5 25.5t-8.5 24.5t-12.5 18.5q-4 4 -11.5 2t-15 -6.5t-13 -9l-5.5 -4.5l-17 -17t-22.5 -22t-20.5 -20.5t-11 -12.5
q-1 -1 -4.5 -7.5t-8 -15t-8.5 -17.5t-6 -14q-1 -1 -2 -5t-2.5 -8.5t-2.5 -8.5t-2 -5q-10 -6 -23.5 -0.5t-24 16.5t-16 24t0.5 23q13 21 36.5 46t51.5 48.5t57 41.5t52 25q39 12 73.5 3.5t60 -31t40.5 -55.5t15 -69v-493q18 -12 18 -21t-9 -15.5t-22.5 -10.5t-22.5 -7
q-19 -6 -31.5 -11l-22.5 -9t-20 -6t-25 -1q-9 1 -24.5 2t-31 2.5t-28 3t-15.5 1.5zM182 -1q17 -13 27 -9.5t16 15.5t8 28.5t3 28.5q0 4 0.5 15.5t0.5 24.5t-0.5 24t-0.5 16q-19 9 -38 -5.5t-30 -39.5t-10 -53t24 -45zM185 666q-13 1 -21 5t-16 12q-26 27 -38.5 66t-7 77
t32.5 69t80 41q26 5 53.5 -1t50.5 -18.5t38 -31t15 -39.5v-114q0 -2 -5 -10.5t-7 -11.5q-8 -9 -15.5 -17.5t-16.5 -16t-20 -12t-27 -4.5q-4 0 -17 0.5t-28.5 1.5t-30 2t-20.5 2zM257 710q24 -12 43.5 4t29 42.5t5.5 55.5t-29 43q-3 1 -8 4.5t-5 4.5q-3 6 -2 9.5t2 6.5
t0.5 6.5t-5.5 8.5q-7 7 -14 6.5t-13 -5t-10.5 -10.5t-5.5 -9q-2 -3 -6 -15.5t-6 -15.5q-2 -5 -3.5 -17t-2.5 -15q0 -9 -1 -23.5t1 -30t8.5 -29.5t21.5 -21z" />
    <glyph glyph-name="ae" unicode="&#xe6;" horiz-adv-x="918" 
d="M173 -46q-47 7 -69.5 27.5t-26 47t9.5 56.5t36.5 55.5t55 43.5t66.5 21q1 12 2.5 37.5t3 57.5t3.5 67t3.5 67t3 57t2.5 37q0 9 -1.5 21.5t-4.5 25.5t-8.5 24.5t-12.5 18.5q-4 4 -11.5 2t-15 -6.5t-13 -9l-5.5 -4.5l-17 -17t-22.5 -22t-20.5 -20.5t-11 -12.5
q-1 -1 -4.5 -7.5t-8 -15t-8.5 -17.5t-6 -14q-1 -1 -2 -5t-2.5 -8.5t-2.5 -8.5t-2 -5q-10 -6 -23.5 -0.5t-24 16.5t-16 24t0.5 23q13 21 36.5 46t51.5 48.5t57 41.5t52 25q39 12 73.5 3.5t60 -31t40.5 -55.5t15 -69v-493q18 -12 18 -21t-9 -15.5t-22.5 -10.5t-22.5 -7
q-19 -6 -31.5 -11l-22.5 -9t-20 -6t-25 -1q-9 1 -24.5 2t-31 2.5t-28 3t-15.5 1.5zM182 -1q17 -13 27 -9.5t16 15.5t8 28.5t3 28.5q0 4 0.5 15.5t0.5 24.5t-0.5 24t-0.5 16q-19 9 -38 -5.5t-30 -39.5t-10 -53t24 -45zM439 47q-15 7 -27 20t-20 29.5t-13 34.5t-6 33
q-8 80 8.5 147.5t47.5 119.5t72.5 88.5t83.5 55t80 17.5t63 -23.5t31.5 -67.5t-13.5 -114q-1 -1 -5 -8.5t-9.5 -16.5t-11.5 -18.5t-9 -15.5q-2 -3 -6 -8t-5 -5l-116 15l-3 -5t-7 -12.5t-8 -15.5t-6 -13q-16 -37 -20.5 -72.5t-8.5 -77.5q15 -25 39.5 -36t53.5 -11.5t60 7
t60 20.5t52.5 29t38.5 32q13 2 22 -2t12 -11.5t0 -16.5t-13 -18q-41 -36 -91.5 -62t-105.5 -38t-111.5 -8t-108.5 28zM641 419q-2 -3 -7 -10t-10 -15t-10 -15t-7 -10l72 -10q1 0 4.5 3t5.5 5q2 3 5.5 8t7 10.5t6.5 9.5t3 5q1 3 2.5 12t3 19t2 19t0.5 12q-11 6 -22.5 2.5
t-22 -12t-19.5 -18t-14 -15.5z" />
    <glyph glyph-name="ccedilla" unicode="&#xe7;" horiz-adv-x="475" 
d="M179 22q-44 5 -81.5 40t-63.5 86.5t-38 114.5t-5 125t36.5 117.5t85.5 92.5q22 10 43.5 3.5t40 -23t33 -39t22 -45t7 -41t-11.5 -25.5q-11 -8 -20.5 1t-18 19.5t-16.5 16t-17 -9.5q-39 -58 -55 -112.5t-14.5 -100t17.5 -80.5t42.5 -54.5t60.5 -21t70 19t72.5 66.5
t67.5 121q12 -37 6.5 -72.5t-24 -67t-47 -57.5t-61 -43.5t-67 -26t-64.5 -4.5zM211 -276q-39 -2 -57.5 6t-20.5 21t10.5 28.5t33.5 27.5t49.5 19t59.5 3q4 14 -1.5 26.5t-16 23t-22.5 19.5t-22 16q-1 0 -7 2t-13 4.5t-13.5 5.5t-7.5 5q-16 37 -19 65t4.5 37t25.5 -6.5
t44 -67.5q41 6 68 -8t39.5 -39t11 -57t-18 -60t-48 -48.5t-79.5 -22.5z" />
    <glyph glyph-name="egrave" unicode="&#xe8;" horiz-adv-x="570" 
d="M105 76q-15 7 -27 20t-20 29.5t-13 34.5t-6 33q-8 80 8.5 147.5t47.5 119.5t72.5 88.5t83.5 55t80 17.5t63 -23.5t31.5 -67.5t-13.5 -114q-1 -1 -5 -8.5t-9.5 -16.5t-11.5 -18.5t-9 -15.5q-2 -3 -6 -8t-5 -5l-116 15l-3 -5t-7 -12.5t-8 -15.5t-6 -13q-16 -37 -20.5 -72.5
t-8.5 -77.5q15 -25 39.5 -36t53.5 -11.5t60 7t60 20.5t52.5 29t38.5 32q13 2 22 -2t12 -11.5t0 -16.5t-13 -18q-41 -36 -91.5 -62t-105.5 -38t-111.5 -8t-108.5 28zM307 448q-2 -3 -7 -10t-10 -15t-10 -15t-7 -10l72 -10q1 0 4.5 3t5.5 5q2 3 5.5 8t7 10.5t6.5 9.5t3 5
q1 3 2.5 12t3 19t2 19t0.5 12q-11 6 -22.5 2.5t-22 -12t-19.5 -18t-14 -15.5zM44 789q1 7 3.5 26.5t5.5 40.5t5.5 40t3.5 27q12 10 17 9t19 0q13 1 41.5 -11.5t65.5 -32t77.5 -42t77 -42t65.5 -32t42 -11.5q7 2 16.5 -0.5t19.5 -7t19.5 -9t17.5 -6.5q4 -65 -8 -95.5
t-36.5 -36.5t-58 6.5t-72.5 34t-81 47t-82 45t-76 28t-64 -4.5q-3 0 -9.5 3.5t-8.5 5.5v18z" />
    <glyph glyph-name="eacute" unicode="&#xe9;" horiz-adv-x="570" 
d="M105 76q-15 7 -27 20t-20 29.5t-13 34.5t-6 33q-8 80 8.5 147.5t47.5 119.5t72.5 88.5t83.5 55t80 17.5t63 -23.5t31.5 -67.5t-13.5 -114q-1 -1 -5 -8.5t-9.5 -16.5t-11.5 -18.5t-9 -15.5q-2 -3 -6 -8t-5 -5l-116 15l-3 -5t-7 -12.5t-8 -15.5t-6 -13q-16 -37 -20.5 -72.5
t-8.5 -77.5q15 -25 39.5 -36t53.5 -11.5t60 7t60 20.5t52.5 29t38.5 32q13 2 22 -2t12 -11.5t0 -16.5t-13 -18q-41 -36 -91.5 -62t-105.5 -38t-111.5 -8t-108.5 28zM307 448q-2 -3 -7 -10t-10 -15t-10 -15t-7 -10l72 -10q1 0 4.5 3t5.5 5q2 3 5.5 8t7 10.5t6.5 9.5t3 5
q1 3 2.5 12t3 19t2 19t0.5 12q-11 6 -22.5 2.5t-22 -12t-19.5 -18t-14 -15.5zM-15 605q1 7 3.5 26.5t5.5 40.5t5.5 40t3.5 27q12 10 17 9t19 0q13 1 52 16.5t91.5 38t111 49t111 49t92 38t52.5 16.5q7 2 6.5 -12t-2.5 -32t-2 -33.5t8 -17.5q-63 -56 -126.5 -91.5t-122 -58.5
t-111.5 -36.5t-95.5 -25.5t-73 -25.5t-45.5 -35.5v18z" />
    <glyph glyph-name="ecircumflex" unicode="&#xea;" horiz-adv-x="570" 
d="M105 76q-15 7 -27 20t-20 29.5t-13 34.5t-6 33q-8 80 8.5 147.5t47.5 119.5t72.5 88.5t83.5 55t80 17.5t63 -23.5t31.5 -67.5t-13.5 -114q-1 -1 -5 -8.5t-9.5 -16.5t-11.5 -18.5t-9 -15.5q-2 -3 -6 -8t-5 -5l-116 15l-3 -5t-7 -12.5t-8 -15.5t-6 -13q-16 -37 -20.5 -72.5
t-8.5 -77.5q15 -25 39.5 -36t53.5 -11.5t60 7t60 20.5t52.5 29t38.5 32q13 2 22 -2t12 -11.5t0 -16.5t-13 -18q-41 -36 -91.5 -62t-105.5 -38t-111.5 -8t-108.5 28zM307 448q-2 -3 -7 -10t-10 -15t-10 -15t-7 -10l72 -10q1 0 4.5 3t5.5 5q2 3 5.5 8t7 10.5t6.5 9.5t3 5
q1 3 2.5 12t3 19t2 19t0.5 12q-11 6 -22.5 2.5t-22 -12t-19.5 -18t-14 -15.5zM62 690q-9 7 -16.5 15.5t-10.5 19.5q2 2 7.5 7t11 10.5t10.5 11t7 7.5q8 11 27.5 38t41 57t40 56.5t25.5 37.5q1 1 4.5 8t8 15.5t8.5 16.5t6 13q12 26 21 35.5t16 7.5t12 -12.5t9 -24t7.5 -27.5
t6.5 -23q11 -30 31 -66.5t43.5 -73t47.5 -70.5t44 -59v-27q-13 -4 -28 7.5t-30.5 31.5t-31 44.5t-30 48t-26.5 41.5t-20 24q-33 -38 -57.5 -70t-43.5 -64.5t-33 -69.5t-27 -83q-5 -10 -13.5 -10t-13.5 10z" />
    <glyph glyph-name="edieresis" unicode="&#xeb;" horiz-adv-x="570" 
d="M105 76q-15 7 -27 20t-20 29.5t-13 34.5t-6 33q-8 80 8.5 147.5t47.5 119.5t72.5 88.5t83.5 55t80 17.5t63 -23.5t31.5 -67.5t-13.5 -114q-1 -1 -5 -8.5t-9.5 -16.5t-11.5 -18.5t-9 -15.5q-2 -3 -6 -8t-5 -5l-116 15l-3 -5t-7 -12.5t-8 -15.5t-6 -13q-16 -37 -20.5 -72.5
t-8.5 -77.5q15 -25 39.5 -36t53.5 -11.5t60 7t60 20.5t52.5 29t38.5 32q13 2 22 -2t12 -11.5t0 -16.5t-13 -18q-41 -36 -91.5 -62t-105.5 -38t-111.5 -8t-108.5 28zM307 448q-2 -3 -7 -10t-10 -15t-10 -15t-7 -10l72 -10q1 0 4.5 3t5.5 5q2 3 5.5 8t7 10.5t6.5 9.5t3 5
q1 3 2.5 12t3 19t2 19t0.5 12q-11 6 -22.5 2.5t-22 -12t-19.5 -18t-14 -15.5zM136 642q-40 28 -46.5 55.5t9 48.5t47.5 32t71 7q22 -15 31 -36t7.5 -42t-12 -40t-26.5 -30t-37 -11.5t-44 16.5zM374 639q-40 28 -46.5 55.5t9 48.5t47.5 32t71 7q22 -15 31 -36t7.5 -42
t-12 -40t-26.5 -30t-37 -11.5t-44 16.5z" />
    <glyph glyph-name="igrave" unicode="&#xec;" horiz-adv-x="260" 
d="M22 27q2 5 6 17.5t8.5 27t8 27.5t4.5 18q4 23 10.5 61t12.5 75.5t9.5 65.5t3.5 31l-18 116l9 18q12 3 27 10t30 11.5t28 3t22 -15.5q0 -13 1.5 -46t3 -70.5t2.5 -70.5t2 -46q1 -24 10 -52.5t18 -56t15 -51t2 -37.5q-42 -5 -84 -12t-77 -33q-5 -4 -15.5 -11t-11.5 -7
q-5 1 -15.5 11.5t-11.5 15.5zM-112 700q1 7 3.5 26.5t5.5 40.5t5.5 40t3.5 27q12 10 17 9t19 0q13 1 41.5 -11.5t65.5 -32t77.5 -42t77 -42t65.5 -32t42 -11.5q7 2 16.5 -0.5t19.5 -7t19.5 -9t17.5 -6.5q4 -65 -8 -95.5t-36.5 -36.5t-58 6.5t-72.5 34t-81 47t-82 45t-76 28
t-64 -4.5q-3 0 -9.5 3.5t-8.5 5.5v18z" />
    <glyph glyph-name="iacute" unicode="&#xed;" horiz-adv-x="260" 
d="M22 27q2 5 6 17.5t8.5 27t8 27.5t4.5 18q4 23 10.5 61t12.5 75.5t9.5 65.5t3.5 31l-18 116l9 18q12 3 27 10t30 11.5t28 3t22 -15.5q0 -13 1.5 -46t3 -70.5t2.5 -70.5t2 -46q1 -24 10 -52.5t18 -56t15 -51t2 -37.5q-42 -5 -84 -12t-77 -33q-5 -4 -15.5 -11t-11.5 -7
q-5 1 -15.5 11.5t-11.5 15.5zM-161 503q1 7 3.5 26.5t5.5 40.5t5.5 40t3.5 27q12 10 17 9t19 0q13 1 52 16.5t91.5 38t111 49t111 49t92 38t52.5 16.5q7 2 6.5 -12t-2.5 -32t-2 -33.5t8 -17.5q-63 -56 -126.5 -91.5t-122 -58.5t-111.5 -36.5t-95.5 -25.5t-73 -25.5
t-45.5 -35.5v18z" />
    <glyph glyph-name="icircumflex" unicode="&#xee;" horiz-adv-x="260" 
d="M22 27q2 5 6 17.5t8.5 27t8 27.5t4.5 18q4 23 10.5 61t12.5 75.5t9.5 65.5t3.5 31l-18 116l9 18q12 3 27 10t30 11.5t28 3t22 -15.5q0 -13 1.5 -46t3 -70.5t2.5 -70.5t2 -46q1 -24 10 -52.5t18 -56t15 -51t2 -37.5q-42 -5 -84 -12t-77 -33q-5 -4 -15.5 -11t-11.5 -7
q-5 1 -15.5 11.5t-11.5 15.5zM-63 623q-9 7 -16.5 15.5t-10.5 19.5q2 2 7.5 7t11 10.5t10.5 11t7 7.5q8 11 27.5 38t41 57t40 56.5t25.5 37.5q1 1 4.5 8t8 15.5t8.5 16.5t6 13q12 26 21 35.5t16 7.5t12 -12.5t9 -24t7.5 -27.5t6.5 -23q11 -30 31 -66.5t43.5 -73t47.5 -70.5
t44 -59v-27q-13 -4 -28 7.5t-30.5 31.5t-31 44.5t-30 48t-26.5 41.5t-20 24q-33 -38 -57.5 -70t-43.5 -64.5t-33 -69.5t-27 -83q-5 -10 -13.5 -10t-13.5 10z" />
    <glyph glyph-name="idieresis" unicode="&#xef;" horiz-adv-x="260" 
d="M22 27q2 5 6 17.5t8.5 27t8 27.5t4.5 18q4 23 10.5 61t12.5 75.5t9.5 65.5t3.5 31l-18 116l9 18q12 3 27 10t30 11.5t28 3t22 -15.5q0 -13 1.5 -46t3 -70.5t2.5 -70.5t2 -46q1 -24 10 -52.5t18 -56t15 -51t2 -37.5q-42 -5 -84 -12t-77 -33q-5 -4 -15.5 -11t-11.5 -7
q-5 1 -15.5 11.5t-11.5 15.5zM-20 642q-40 28 -46.5 55.5t9 48.5t47.5 32t71 7q22 -15 31 -36t7.5 -42t-12 -40t-26.5 -30t-37 -11.5t-44 16.5zM218 639q-40 28 -46.5 55.5t9 48.5t47.5 32t71 7q22 -15 31 -36t7.5 -42t-12 -40t-26.5 -30t-37 -11.5t-44 16.5z" />
    <glyph glyph-name="ntilde" unicode="&#xf1;" horiz-adv-x="520" 
d="M72 9q-8 5 -9 7.5t0 10.5q4 67 8.5 136t3 137.5t-12 135t-35.5 129.5q-1 2 -1 9t1 9q22 10 40.5 20t36 20t35.5 20.5t40 20.5q19 -7 24 -18.5t3 -26.5t-6.5 -31t-2.5 -32q11 16 30 43.5t42.5 55t49 48t49.5 23.5q40 5 66.5 -9.5t40.5 -40.5t18 -60.5t0 -68.5l-44 -377
q-2 -18 0.5 -31.5t7.5 -25.5t12.5 -23.5t14.5 -26.5q3 -5 -2 -15.5t-7 -11.5q-10 -6 -20 0.5t-18.5 18.5t-15 25t-8.5 19q-1 9 -1.5 30.5t-0.5 45.5t0.5 45.5t1.5 30.5q0 6 3 25.5t6.5 45t8 55t8.5 55t6.5 45t3.5 25.5q1 13 1.5 34.5t0.5 43t-0.5 38t-1.5 19.5l-27 54
q-1 1 -6.5 1.5t-12.5 0.5t-14.5 -0.5t-11.5 -1.5q-2 -1 -12 -7.5t-15 -10.5q-37 -29 -68 -62.5t-53 -71.5t-33 -80.5t-8 -90.5q1 -16 3.5 -46.5t5.5 -62t5.5 -57t3.5 -32.5q1 -3 4.5 -15t7.5 -26.5t8.5 -28l6.5 -19.5q13 -34 19 -52t6 -24t-6 -4t-16.5 6.5t-25 8.5t-31.5 2
q-9 -1 -23.5 -5t-30 -7t-30 -3t-23.5 6zM14 711l-76 161l12 12.5t29 30t35.5 35.5t31.5 30q2 2 12.5 9t14.5 9q27 4 46.5 5.5t36 -1.5t33 -10.5t36.5 -20.5q22 -14 35 -35.5t26 -43.5t29.5 -40t44.5 -25q11 -3 25.5 0.5t28.5 10t26 16t18 18.5q2 4 7.5 14t11 21.5t10.5 21.5
t7 15q8 19 7.5 31.5t-2 23t0 22.5t12.5 31q4 7 12 8.5t15.5 -1.5t13 -10t4.5 -15q-1 -11 -2 -31.5t-3.5 -43t-7.5 -44t-14 -34.5q-20 -28 -50 -51t-64.5 -34t-70 -7.5t-66.5 29.5l-13.5 13.5l-22.5 22.5l-22.5 22.5l-13.5 13.5q-7 6 -17 8.5t-19 0.5q-31 -27 -49.5 -56
t-29 -61t-16.5 -67.5t-12 -75.5z" />
    <glyph glyph-name="ograve" unicode="&#xf2;" 
d="M159 38q-19 2 -31 11.5t-23 24.5q-25 35 -42.5 82t-24.5 98.5t-1.5 103t25 96t54 77t87.5 45.5q39 10 80 -1.5t75.5 -37t56.5 -62t22 -78.5v-225q0 -2 -2 -8.5t-5 -13.5t-6 -13t-5 -9q-12 -18 -23.5 -35.5t-24.5 -31.5t-29.5 -23t-39.5 -9q-6 0 -26 1t-42.5 2.5t-44 3
t-30.5 2.5zM266 128q23 -16 44.5 -6t37.5 36t26 62.5t10 73.5t-10.5 69.5t-35.5 51.5q-4 2 -11 9t-7 9q-4 12 -3 19.5t2.5 13.5t0.5 12t-9 17q-10 13 -20 11.5t-19 -10t-15.5 -20t-8.5 -17.5q-1 -3 -3.5 -11.5t-5.5 -18.5t-5.5 -19t-3.5 -13t-2 -13.5t-2.5 -19.5t-3 -18.5
t-1.5 -11.5q-1 -18 -2 -47t2.5 -59.5t13.5 -58t31 -41.5zM-4 755q1 7 3.5 26.5t5.5 40.5t5.5 40t3.5 27q12 10 17 9t19 0q13 1 41.5 -11.5t65.5 -32t77.5 -42t77 -42t65.5 -32t42 -11.5q7 2 16.5 -0.5t19.5 -7t19.5 -9t17.5 -6.5q4 -65 -8 -95.5t-36.5 -36.5t-58 6.5
t-72.5 34t-81 47t-82 45t-76 28t-64 -4.5q-3 0 -9.5 3.5t-8.5 5.5v18z" />
    <glyph glyph-name="oacute" unicode="&#xf3;" 
d="M156 1q-19 2 -31 11.5t-23 24.5q-25 35 -42.5 82t-24.5 98.5t-1.5 103t25 96t54 77t87.5 45.5q39 10 80 -1.5t75.5 -37t56.5 -62t22 -78.5v-225q0 -2 -2 -8.5t-5 -13.5t-6 -13t-5 -9q-12 -18 -23.5 -35.5t-24.5 -31.5t-29.5 -23t-39.5 -9q-6 0 -26 1t-42.5 2.5t-44 3
t-30.5 2.5zM263 91q23 -16 44.5 -6t37.5 36t26 62.5t10 73.5t-10.5 69.5t-35.5 51.5q-4 2 -11 9t-7 9q-4 12 -3 19.5t2.5 13.5t0.5 12t-9 17q-10 13 -20 11.5t-19 -10t-15.5 -20t-8.5 -17.5q-1 -3 -3.5 -11.5t-5.5 -18.5t-5.5 -19t-3.5 -13t-2 -13.5t-2.5 -19.5t-3 -18.5
t-1.5 -11.5q-1 -18 -2 -47t2.5 -59.5t13.5 -58t31 -41.5zM-57 503q1 7 3.5 26.5t5.5 40.5t5.5 40t3.5 27q12 10 17 9t19 0q13 1 52 16.5t91.5 38t111 49t111 49t92 38t52.5 16.5q7 2 6.5 -12t-2.5 -32t-2 -33.5t8 -17.5q-63 -56 -126.5 -91.5t-122 -58.5t-111.5 -36.5
t-95.5 -25.5t-73 -25.5t-45.5 -35.5v18z" />
    <glyph glyph-name="ocircumflex" unicode="&#xf4;" 
d="M169 35q-19 2 -31 11.5t-23 24.5q-25 35 -42.5 82t-24.5 98.5t-1.5 103t25 96t54 77t87.5 45.5q39 10 80 -1.5t75.5 -37t56.5 -62t22 -78.5v-225q0 -2 -2 -8.5t-5 -13.5t-6 -13t-5 -9q-12 -18 -23.5 -35.5t-24.5 -31.5t-29.5 -23t-39.5 -9q-6 0 -26 1t-42.5 2.5t-44 3
t-30.5 2.5zM276 125q23 -16 44.5 -6t37.5 36t26 62.5t10 73.5t-10.5 69.5t-35.5 51.5q-4 2 -11 9t-7 9q-4 12 -3 19.5t2.5 13.5t0.5 12t-9 17q-10 13 -20 11.5t-19 -10t-15.5 -20t-8.5 -17.5q-1 -3 -3.5 -11.5t-5.5 -18.5t-5.5 -19t-3.5 -13t-2 -13.5t-2.5 -19.5t-3 -18.5
t-1.5 -11.5q-1 -18 -2 -47t2.5 -59.5t13.5 -58t31 -41.5zM44 680q-9 7 -16.5 15.5t-10.5 19.5q2 2 7.5 7t11 10.5t10.5 11t7 7.5q8 11 27.5 38t41 57t40 56.5t25.5 37.5q1 1 4.5 8t8 15.5t8.5 16.5t6 13q12 26 21 35.5t16 7.5t12 -12.5t9 -24t7.5 -27.5t6.5 -23
q11 -30 31 -66.5t43.5 -73t47.5 -70.5t44 -59v-27q-13 -4 -28 7.5t-30.5 31.5t-31 44.5t-30 48t-26.5 41.5t-20 24q-33 -38 -57.5 -70t-43.5 -64.5t-33 -69.5t-27 -83q-5 -10 -13.5 -10t-13.5 10z" />
    <glyph glyph-name="otilde" unicode="&#xf5;" 
d="M159 -27q-19 2 -31 11.5t-23 24.5q-25 35 -42.5 82t-24.5 98.5t-1.5 103t25 96t54 77t87.5 45.5q39 10 80 -1.5t75.5 -37t56.5 -62t22 -78.5v-225q0 -2 -2 -8.5t-5 -13.5t-6 -13t-5 -9q-12 -18 -23.5 -35.5t-24.5 -31.5t-29.5 -23t-39.5 -9q-6 0 -26 1t-42.5 2.5t-44 3
t-30.5 2.5zM266 63q23 -16 44.5 -6t37.5 36t26 62.5t10 73.5t-10.5 69.5t-35.5 51.5q-4 2 -11 9t-7 9q-4 12 -3 19.5t2.5 13.5t0.5 12t-9 17q-10 13 -20 11.5t-19 -10t-15.5 -20t-8.5 -17.5q-1 -3 -3.5 -11.5t-5.5 -18.5t-5.5 -19t-3.5 -13t-2 -13.5t-2.5 -19.5t-3 -18.5
t-1.5 -11.5q-1 -18 -2 -47t2.5 -59.5t13.5 -58t31 -41.5zM-21 525l-76 161l12 12.5t29 30t35.5 35.5t31.5 30q2 2 12.5 9t14.5 9q27 4 46.5 5.5t36 -1.5t33 -10.5t36.5 -20.5q22 -14 35 -35.5t26 -43.5t29.5 -40t44.5 -25q11 -3 25.5 0.5t28.5 10t26 16t18 18.5q2 4 7.5 14
t11 21.5t10.5 21.5t7 15q8 19 7.5 31.5t-2 23t0 22.5t12.5 31q4 7 12 8.5t15.5 -1.5t13 -10t4.5 -15q-1 -11 -2 -31.5t-3.5 -43t-7.5 -44t-14 -34.5q-20 -28 -50 -51t-64.5 -34t-70 -7.5t-66.5 29.5l-13.5 13.5l-22.5 22.5l-22.5 22.5l-13.5 13.5q-7 6 -17 8.5t-19 0.5
q-31 -27 -49.5 -56t-29 -61t-16.5 -67.5t-12 -75.5z" />
    <glyph glyph-name="odieresis" unicode="&#xf6;" 
d="M169 42q-19 2 -31 11.5t-23 24.5q-25 35 -42.5 82t-24.5 98.5t-1.5 103t25 96t54 77t87.5 45.5q39 10 80 -1.5t75.5 -37t56.5 -62t22 -78.5v-225q0 -2 -2 -8.5t-5 -13.5t-6 -13t-5 -9q-12 -18 -23.5 -35.5t-24.5 -31.5t-29.5 -23t-39.5 -9q-6 0 -26 1t-42.5 2.5t-44 3
t-30.5 2.5zM276 132q23 -16 44.5 -6t37.5 36t26 62.5t10 73.5t-10.5 69.5t-35.5 51.5q-4 2 -11 9t-7 9q-4 12 -3 19.5t2.5 13.5t0.5 12t-9 17q-10 13 -20 11.5t-19 -10t-15.5 -20t-8.5 -17.5q-1 -3 -3.5 -11.5t-5.5 -18.5t-5.5 -19t-3.5 -13t-2 -13.5t-2.5 -19.5t-3 -18.5
t-1.5 -11.5q-1 -18 -2 -47t2.5 -59.5t13.5 -58t31 -41.5zM84 642q-40 28 -46.5 55.5t9 48.5t47.5 32t71 7q22 -15 31 -36t7.5 -42t-12 -40t-26.5 -30t-37 -11.5t-44 16.5zM322 639q-40 28 -46.5 55.5t9 48.5t47.5 32t71 7q22 -15 31 -36t7.5 -42t-12 -40t-26.5 -30
t-37 -11.5t-44 16.5z" />
    <glyph glyph-name="oslash" unicode="&#xf8;" 
d="M159 115q-19 2 -31 11.5t-23 24.5q-25 35 -42.5 82t-24.5 98.5t-1.5 103t25 96t54 77t87.5 45.5q39 10 80 -1.5t75.5 -37t56.5 -62t22 -78.5v-225q0 -2 -2 -8.5t-5 -13.5t-6 -13t-5 -9q-12 -18 -23.5 -35.5t-24.5 -31.5t-29.5 -23t-39.5 -9q-6 0 -26 1t-42.5 2.5t-44 3
t-30.5 2.5zM266 205q23 -16 44.5 -6t37.5 36t26 62.5t10 73.5t-10.5 69.5t-35.5 51.5q-4 2 -11 9t-7 9q-4 12 -3 19.5t2.5 13.5t0.5 12t-9 17q-10 13 -20 11.5t-19 -10t-15.5 -20t-8.5 -17.5q-1 -3 -3.5 -11.5t-5.5 -18.5t-5.5 -19t-3.5 -13t-2 -13.5t-2.5 -19.5t-3 -18.5
t-1.5 -11.5q-1 -18 -2 -47t2.5 -59.5t13.5 -58t31 -41.5zM249.973 78.291q-2.08691 5.49609 -5.2168 11.6787t-5.36621 14.4268q-2.23535 8.24316 -2.83105 19.9219q-0.59668 11.6787 2.68262 28.167q0.893555 4.12109 3.57715 16.4873q2.68262 12.3652 5.66406 26.1055
q2.98047 13.7393 5.66309 26.1045q2.68262 12.3662 3.87598 16.4883q2.68262 16.4873 8.79297 57.7061q6.11133 41.2188 12.9678 88.6211q6.85645 47.4014 12.8174 89.9941q5.96289 42.5928 8.04883 60.4541q0.298828 4.12207 3.12988 29.54
q2.83203 25.4189 6.26074 58.3936q3.42773 32.9756 6.85547 66.6377q3.42871 33.6621 5.2168 54.2715q0.59668 4.12109 1.49023 18.5479q0.894531 14.4268 1.19336 18.5488q4.4707 1.37402 9.83691 0.686523q5.36523 -0.686523 10.8799 -2.74707
q5.51562 -2.06152 10.583 -4.80957t8.64453 -5.49512q2.68262 -2.74805 6.85645 -6.18359q4.17285 -3.43457 8.04883 -7.55664q3.875 -4.12207 6.55762 -7.55664l2.68262 -3.43457v-37.0977l-80.1875 -553.706l-18.7803 -173.12q-0.595703 -6.86914 -2.08691 -11.6787
q-1.49023 -4.80859 -3.27832 -0.686523q-1.78906 6.87012 -6.70703 22.6699q-4.91895 15.8008 -10.4336 33.6621q-5.51465 17.8623 -10.4336 32.9756t-7.00488 21.9834z" />
    <glyph glyph-name="ugrave" unicode="&#xf9;" horiz-adv-x="462" 
d="M233 8q-16 2 -33 10.5t-32 20.5t-26.5 27.5t-17.5 30.5l-17.5 52.5t-26.5 80t-26.5 80.5t-17.5 53q-24 74 -20.5 123t23.5 77.5t51 38t63 3.5l71 -371q13 -54 34.5 -85.5t45 -42.5t46.5 -3.5t39 31.5t22 63t-4 91l-56 291q-2 8 6 15t18 10t19 0t10 -15q9 -40 22 -102
t21 -130t5.5 -135t-24.5 -118t-68.5 -79t-126.5 -17zM-17 833q1 7 3.5 26.5t5.5 40.5t5.5 40t3.5 27q12 10 17 9t19 0q13 1 41.5 -11.5t65.5 -32t77.5 -42t77 -42t65.5 -32t42 -11.5q7 2 16.5 -0.5t19.5 -7t19.5 -9t17.5 -6.5q4 -65 -8 -95.5t-36.5 -36.5t-58 6.5t-72.5 34
t-81 47t-82 45t-76 28t-64 -4.5q-3 0 -9.5 3.5t-8.5 5.5v18z" />
    <glyph glyph-name="uacute" unicode="&#xfa;" horiz-adv-x="462" 
d="M240 -2q-16 2 -33 10.5t-32 20.5t-26.5 27.5t-17.5 30.5l-17.5 52.5t-26.5 80t-26.5 80.5t-17.5 53q-24 74 -20.5 123t23.5 77.5t51 38t63 3.5l71 -371q13 -54 34.5 -85.5t45 -42.5t46.5 -3.5t39 31.5t22 63t-4 91l-56 291q-2 8 6 15t18 10t19 0t10 -15q9 -40 22 -102
t21 -130t5.5 -135t-24.5 -118t-68.5 -79t-126.5 -17zM-56 585q1 7 3.5 26.5t5.5 40.5t5.5 40t3.5 27q12 10 17 9t19 0q13 1 52 16.5t91.5 38t111 49t111 49t92 38t52.5 16.5q7 2 6.5 -12t-2.5 -32t-2 -33.5t8 -17.5q-63 -56 -126.5 -91.5t-122 -58.5t-111.5 -36.5
t-95.5 -25.5t-73 -25.5t-45.5 -35.5v18z" />
    <glyph glyph-name="ucircumflex" unicode="&#xfb;" horiz-adv-x="462" 
d="M233 38q-16 2 -33 10.5t-32 20.5t-26.5 27.5t-17.5 30.5l-17.5 52.5t-26.5 80t-26.5 80.5t-17.5 53q-24 74 -20.5 123t23.5 77.5t51 38t63 3.5l71 -371q13 -54 34.5 -85.5t45 -42.5t46.5 -3.5t39 31.5t22 63t-4 91l-56 291q-2 8 6 15t18 10t19 0t10 -15q9 -40 22 -102
t21 -130t5.5 -135t-24.5 -118t-68.5 -79t-126.5 -17zM25 778q-9 7 -16.5 15.5t-10.5 19.5q2 2 7.5 7t11 10.5t10.5 11t7 7.5q8 11 27.5 38t41 57t40 56.5t25.5 37.5q1 1 4.5 8t8 15.5t8.5 16.5t6 13q12 26 21 35.5t16 7.5t12 -12.5t9 -24t7.5 -27.5t6.5 -23q11 -30 31 -66.5
t43.5 -73t47.5 -70.5t44 -59v-27q-13 -4 -28 7.5t-30.5 31.5t-31 44.5t-30 48t-26.5 41.5t-20 24q-33 -38 -57.5 -70t-43.5 -64.5t-33 -69.5t-27 -83q-5 -10 -13.5 -10t-13.5 10z" />
    <glyph glyph-name="udieresis" unicode="&#xfc;" horiz-adv-x="462" 
d="M233 38q-16 2 -33 10.5t-32 20.5t-26.5 27.5t-17.5 30.5l-17.5 52.5t-26.5 80t-26.5 80.5t-17.5 53q-24 74 -20.5 123t23.5 77.5t51 38t63 3.5l71 -371q13 -54 34.5 -85.5t45 -42.5t46.5 -3.5t39 31.5t22 63t-4 91l-56 291q-2 8 6 15t18 10t19 0t10 -15q9 -40 22 -102
t21 -130t5.5 -135t-24.5 -118t-68.5 -79t-126.5 -17zM82 710q-40 28 -46.5 55.5t9 48.5t47.5 32t71 7q22 -15 31 -36t7.5 -42t-12 -40t-26.5 -30t-37 -11.5t-44 16.5zM320 707q-40 28 -46.5 55.5t9 48.5t47.5 32t71 7q22 -15 31 -36t7.5 -42t-12 -40t-26.5 -30t-37 -11.5
t-44 16.5z" />
    <glyph glyph-name="yacute" unicode="&#xfd;" horiz-adv-x="520" 
d="M131 -421q-29 11 -50.5 23.5t-36.5 29t-24.5 38t-13.5 50.5q-1 6 3.5 13.5t11.5 12.5t15 6.5t14 -3.5q30 -71 70.5 -103.5t82.5 -34.5t80.5 22t64.5 66t34.5 97t-9.5 115q-2 9 -6.5 32t-10.5 48.5t-11 48.5t-8 32q-5 -5 -19 -16.5t-30 -24t-30 -24.5t-20 -16
q-34 -27 -64.5 -23t-55 25.5t-42 53.5t-26.5 61q-12 41 -19 86t-8.5 91t0.5 91t8 86q0 9 8.5 11.5t19 1t19 -6t8.5 -10.5q-15 -154 0.5 -251.5t45.5 -142t65 -37t59 62.5q12 43 23 88.5t13 90.5q4 60 -0.5 114.5t-8.5 110.5q2 12 22.5 21t45 13.5t45 3t22.5 -10.5
q0 -10 0.5 -34t2 -51.5t3 -51.5t3.5 -34q11 -54 25 -121t24.5 -138.5t15 -144t-2.5 -137t-29 -117.5t-64 -86t-106.5 -42t-158.5 15zM-30 503q1 7 3.5 26.5t5.5 40.5t5.5 40t3.5 27q12 10 17 9t19 0q13 1 52 16.5t91.5 38t111 49t111 49t92 38t52.5 16.5q7 2 6.5 -12
t-2.5 -32t-2 -33.5t8 -17.5q-63 -56 -126.5 -91.5t-122 -58.5t-111.5 -36.5t-95.5 -25.5t-73 -25.5t-45.5 -35.5v18z" />
    <glyph glyph-name="ydieresis" unicode="&#xff;" horiz-adv-x="520" 
d="M146 -384q-29 11 -50.5 23.5t-36.5 29t-24.5 38t-13.5 50.5q-1 6 3.5 13.5t11.5 12.5t15 6.5t14 -3.5q30 -71 70.5 -103.5t82.5 -34.5t80.5 22t64.5 66t34.5 97t-9.5 115q-2 9 -6.5 32t-10.5 48.5t-11 48.5t-8 32q-5 -5 -19 -16.5t-30 -24t-30 -24.5t-20 -16
q-34 -27 -64.5 -23t-55 25.5t-42 53.5t-26.5 61q-12 41 -19 86t-8.5 91t0.5 91t8 86q0 9 8.5 11.5t19 1t19 -6t8.5 -10.5q-15 -154 0.5 -251.5t45.5 -142t65 -37t59 62.5q12 43 23 88.5t13 90.5q4 60 -0.5 114.5t-8.5 110.5q2 12 22.5 21t45 13.5t45 3t22.5 -10.5
q0 -10 0.5 -34t2 -51.5t3 -51.5t3.5 -34q11 -54 25 -121t24.5 -138.5t15 -144t-2.5 -137t-29 -117.5t-64 -86t-106.5 -42t-158.5 15zM111 642q-40 28 -46.5 55.5t9 48.5t47.5 32t71 7q22 -15 31 -36t7.5 -42t-12 -40t-26.5 -30t-37 -11.5t-44 16.5zM349 639
q-40 28 -46.5 55.5t9 48.5t47.5 32t71 7q22 -15 31 -36t7.5 -42t-12 -40t-26.5 -30t-37 -11.5t-44 16.5z" />
    <glyph glyph-name="Lslash" unicode="&#x141;" horiz-adv-x="632" 
d="M13 576v17q0 3 -1.5 16.5t-3 28.5t-3 28.5t-1.5 16.5q-2 24 1 35t10.5 17.5t20.5 13.5t31 24q6 5 20 19l29.5 29.5t29.5 30t19 20.5q6 2 15.5 0.5t11.5 -9.5q1 -2 1 -12t-1 -15q0 -4 -1.5 -18.5t-3 -31t-3 -31t-1.5 -18.5q0 -15 -0.5 -40t-0.5 -54v-59v-56t0.5 -44.5
t0.5 -24.5q1 -18 3 -41t4 -47.5t5 -48t6 -41.5q3 -19 10 -48t14 -56t13 -46.5t8 -19.5h9l278 62q2 1 9 -4.5t14.5 -13t13.5 -15.5t8 -14q-55 -34 -122.5 -55.5t-133.5 -34t-124 -17.5t-95 -5.5t-47 2t20 5.5zM-67 303q-2 11 -7.5 35.5t-10.5 51t-8.5 48t-0.5 26.5
q3 6 7.5 8.5t9 4.5t9.5 4.5t10 9.5q1 -9 27.5 -10t66 2t85 8t85 8t66.5 2t29 -10q1 -17 3 -38t3.5 -44t2.5 -46t0 -42q-28 13 -54 9l-269 -45h-45q-2 0 -5 7t-4 11z" />
    <glyph glyph-name="lslash" unicode="&#x142;" horiz-adv-x="377" 
d="M162 9q-29 5 -49.5 21.5t-34 39t-21.5 49t-12 51.5q-12 79 -14 155t2.5 151t15 150t23.5 154q5 32 23 55.5t42.5 42.5t52 36t52.5 37q6 2 11 -1t7 -8q6 -29 3.5 -51t-9 -43t-15 -43t-15.5 -52q-30 -133 -39 -263t-6 -266q1 -6 12 -33t25.5 -57t29.5 -52.5t23 -18.5l54 27
q1 1 5 -2t8.5 -7t8 -9t5.5 -9q2 -3 -2 -10t-7 -8q-4 -4 -15 -11t-23.5 -14.5t-24.5 -13t-18 -6.5q-3 0 -15.5 0.5t-28 2l-31 3t-23.5 3.5zM-45 310q-2 11 -7.5 35.5t-10.5 51t-8.5 48t-0.5 26.5q3 6 7.5 8.5t9 4.5t9.5 4.5t10 9.5q1 -9 27.5 -10t66 2t85 8t85 8t66.5 2
t29 -10q1 -17 3 -38t3.5 -44t2.5 -46t0 -42q-28 13 -54 9l-269 -45h-45q-2 0 -5 7t-4 11z" />
    <glyph glyph-name="OE" unicode="&#x152;" horiz-adv-x="1085" 
d="M246 9q-56 13 -94 40.5t-62.5 65t-37 83.5t-17.5 94.5t-5 97.5t1 94q1 24 2.5 58.5t6 72.5t13 76.5t23 71t36.5 56.5t54 33q8 2 24 6.5t33 8.5t31.5 7.5t18.5 4.5q21 4 35.5 0.5t26 -11.5t22 -19.5t24.5 -23.5q32 -27 57.5 -55t47 -58t39.5 -64t35 -74l4 -12t6 -19
t5.5 -19t2.5 -13q1 -5 4.5 -33t7.5 -63.5t8.5 -71.5t6.5 -56q3 -24 -2.5 -47t-15.5 -43q-2 -3 -8.5 -17.5t-14 -31.5t-14 -31.5t-8.5 -17.5q-24 -38 -58.5 -59.5t-74 -31.5t-82 -9t-81.5 10zM318 81q23 -20 47 -24.5t47 3t44 24.5t38.5 38.5t29.5 46t18 46.5t9 42t3.5 39.5
t-0.5 41t-3 48.5q-3 37 -12.5 73t-23 70.5t-30 68.5t-32.5 66q-2 2 -7 7.5t-11 11t-11 10.5l-7 7q-11 8 -18.5 21t-15 26.5t-16.5 25t-22 16.5q-23 9 -43.5 -1.5t-37 -30.5t-28 -43.5t-17.5 -40.5q-3 -11 -9 -32.5t-11.5 -44.5t-10 -42t-5.5 -25q0 -5 -0.5 -25.5t-0.5 -46
t0.5 -51t0.5 -38.5q2 -39 12.5 -79.5t28 -78t41.5 -70.5t53 -59zM603 110l-108 646v9q0 1 16.5 6.5t39 12.5t47 14t40.5 11q6 1 29 6t51.5 11t56.5 11t43 8q11 2 19 -3.5t11 -14t0.5 -16.5t-12.5 -10q-7 -1 -23.5 -3.5t-35 -5.5t-35 -5.5t-23.5 -3.5q-9 -2 -22.5 -4
t-25.5 -6.5t-19.5 -12.5t-4.5 -22l54 -233q5 -19 23 -19.5t42 6.5t50.5 16.5t47 12t31 -8t4.5 -43.5q-6 -1 -20 -2t-29.5 -2.5t-29.5 -3t-20 -1.5h-18q-6 -2 -15 -6.5t-18 -8.5t-15 -7.5t-6 -4.5v-27l63 -242q4 -15 27 -14t54.5 8.5t67 17t64 11.5t45 -8t11.5 -42
q-3 -19 -15.5 -22t-29.5 -5q-5 0 -32 -2.5t-61.5 -5.5t-68.5 -6t-53 -4h-18q-20 1 -48.5 2t-55.5 3q-32 2 -66 4z" />
    <glyph glyph-name="oe" unicode="&#x153;" horiz-adv-x="955" 
d="M179 31q-19 2 -31 11.5t-23 24.5q-25 35 -42.5 82t-24.5 98.5t-1.5 103t25 96t54 77t87.5 45.5q39 10 80 -1.5t75.5 -37t56.5 -62t22 -78.5v-225q0 -2 -2 -8.5t-5 -13.5t-6 -13t-5 -9q-12 -18 -23.5 -35.5t-24.5 -31.5t-29.5 -23t-39.5 -9q-6 0 -26 1t-42.5 2.5t-44 3
t-30.5 2.5zM286 121q23 -16 44.5 -6t37.5 36t26 62.5t10 73.5t-10.5 69.5t-35.5 51.5q-4 2 -11 9t-7 9q-4 12 -3 19.5t2.5 13.5t0.5 12t-9 17q-10 13 -20 11.5t-19 -10t-15.5 -20t-8.5 -17.5q-1 -3 -3.5 -11.5t-5.5 -18.5t-5.5 -19t-3.5 -13t-2 -13.5t-2.5 -19.5t-3 -18.5
t-1.5 -11.5q-1 -18 -2 -47t2.5 -59.5t13.5 -58t31 -41.5zM489 53q-15 7 -27 20t-20 29.5t-13 34.5t-6 33q-8 80 8.5 147.5t47.5 119.5t72.5 88.5t83.5 55t80 17.5t63 -23.5t31.5 -67.5t-13.5 -114q-1 -1 -5 -8.5t-9.5 -16.5t-11.5 -18.5t-9 -15.5q-2 -3 -6 -8t-5 -5l-116 15
l-3 -5t-7 -12.5t-8 -15.5t-6 -13q-16 -37 -20.5 -72.5t-8.5 -77.5q15 -25 39.5 -36t53.5 -11.5t60 7t60 20.5t52.5 29t38.5 32q13 2 22 -2t12 -11.5t0 -16.5t-13 -18q-41 -36 -91.5 -62t-105.5 -38t-111.5 -8t-108.5 28zM691 425q-2 -3 -7 -10t-10 -15t-10 -15t-7 -10
l72 -10q1 0 4.5 3t5.5 5q2 3 5.5 8t7 10.5t6.5 9.5t3 5q1 3 2.5 12t3 19t2 19t0.5 12q-11 6 -22.5 2.5t-22 -12t-19.5 -18t-14 -15.5z" />
    <glyph glyph-name="Scaron" unicode="&#x160;" horiz-adv-x="578" 
d="M253 21q-25 12 -50.5 28t-49.5 36t-44.5 45t-33.5 54q-9 18 -18 37.5t-15 39.5t-6.5 40t8.5 39q1 1 3 7.5t3 7.5q3 2 12.5 2t12.5 -2q2 -68 24.5 -122.5t59.5 -92t85 -55.5t101 -12q14 2 30.5 11t24.5 26q3 56 -9 101.5t-34.5 84t-53 71t-64 61.5t-68.5 56.5t-65 55.5
q-40 37 -51.5 91.5t0 108.5t41 99t70 64t89 3t96.5 -84q15 -21 20 -41t1.5 -29t-15.5 -2t-31 42q-15 28 -34.5 33.5t-38 -4t-33.5 -30t-22 -43.5q-9 -27 -11.5 -59t1.5 -63.5t15 -60t31 -47.5q9 -5 30 -17.5t44.5 -27t44.5 -27.5t29 -18q34 -21 68.5 -43.5t66.5 -51.5
q12 -11 23 -33t13 -42q7 -47 -3 -87t-32.5 -72t-54 -54t-67.5 -32.5t-73 -9t-70 17.5zM124 1179q5 5 15 5t16 -5q14 -24 30 -42.5t37 -35t48.5 -32.5t64.5 -35q13 4 36 21.5t49 36t52.5 32t47.5 10.5v-14q-22 -12 -49 -29.5t-53.5 -36t-48.5 -37t-34 -33.5q-6 -7 -11.5 -19
t-14.5 -19.5t-22 -6t-33 21.5l-6.5 6.5t-9.5 8.5t-9 7.5t-5 4.5q-8 5 -28.5 18.5t-44.5 29t-46 29t-31 19.5q-2 1 -7.5 3.5t-12 5.5t-12 5.5t-8.5 3.5q3 5 11.5 9.5t18.5 8.5z" />
    <glyph glyph-name="scaron" unicode="&#x161;" horiz-adv-x="520" 
d="M205 -28q-40 8 -70.5 19.5t-53.5 29.5t-38.5 45.5t-25.5 66.5q-1 3 -0.5 9t2.5 11.5t6 8t10 -1.5q14 -9 21.5 -24t14 -30.5t14 -30t22.5 -22.5q26 -15 60 -25t68 -9t64.5 14.5t49.5 46.5q19 34 15 63.5t-23.5 56.5t-49 52t-60.5 51t-59 53.5t-44 59t-15.5 68t26.5 79.5
q30 50 69 69t72 11t53 -42.5t13 -91.5q-12 -6 -21 2t-18 19t-19 19.5t-23 4.5q-14 -5 -21 -20.5t-7.5 -34t5 -36t14.5 -25.5q23 -20 56.5 -53.5t67.5 -71.5t62 -76t41 -68q19 -44 14 -77.5t-26 -57.5t-54.5 -39t-70.5 -22t-74.5 -7t-66.5 6zM108 816q5 5 15 5t16 -5
q14 -24 30 -42.5t37 -35t48.5 -32.5t64.5 -35q13 4 36 21.5t49 36t52.5 32t47.5 10.5v-14q-22 -12 -49 -29.5t-53.5 -36t-48.5 -37t-34 -33.5q-6 -7 -11.5 -19t-14.5 -19.5t-22 -6t-33 21.5l-6.5 6.5t-9.5 8.5t-9 7.5t-5 4.5q-8 5 -28.5 18.5t-44.5 29t-46 29t-31 19.5
q-2 1 -7.5 3.5t-12 5.5t-12 5.5t-8.5 3.5q3 5 11.5 9.5t18.5 8.5z" />
    <glyph glyph-name="Ydieresis" unicode="&#x178;" horiz-adv-x="515" 
d="M265 29l-9 5q2 38 1.5 83t-4 91t-10.5 91.5t-17 85.5q-51 58 -98 113t-95 112q-2 3 -8 8.5t-10.5 12.5t-4.5 13t9 9l97 117q68 -79 106 -126t59 -72t31.5 -33.5t22.5 -10.5l136 212q14 -2 33.5 -4t28.5 -6q-12 -26 -37.5 -63t-52 -75.5t-47 -73.5t-22.5 -57l68 -421
q3 -11 -2.5 -14t-14.5 -2.5t-19.5 3t-17.5 2.5h-123zM108 836q-40 28 -46.5 55.5t9 48.5t47.5 32t71 7q22 -15 31 -36t7.5 -42t-12 -40t-26.5 -30t-37 -11.5t-44 16.5zM346 833q-40 28 -46.5 55.5t9 48.5t47.5 32t71 7q22 -15 31 -36t7.5 -42t-12 -40t-26.5 -30t-37 -11.5
t-44 16.5z" />
    <glyph glyph-name="Zcaron" unicode="&#x17d;" horiz-adv-x="604" 
d="M24 19l184 372l64 184l-166 -53q-10 -3 -15.5 1t-7 10.5t0.5 14t8 10.5q37 25 83 43t94.5 31t98 21t93.5 13q8 5 14 3.5t9.5 -6t4.5 -10.5t0 -10q-2 -6 -5 -16t-6.5 -19.5t-6 -17t-3.5 -8.5l-184 -371l-41 -124l308 52q6 1 13 -1t11 -6.5t3.5 -10.5t-8.5 -12
q-72 -8 -138.5 -19.5t-130.5 -27t-127.5 -35t-129.5 -44.5q-3 -2 -11.5 1t-8.5 5v30zM140 964q5 5 15 5t16 -5q14 -24 30 -42.5t37 -35t48.5 -32.5t64.5 -35q13 4 36 21.5t49 36t52.5 32t47.5 10.5v-14q-22 -12 -49 -29.5t-53.5 -36t-48.5 -37t-34 -33.5q-6 -7 -11.5 -19
t-14.5 -19.5t-22 -6t-33 21.5l-6.5 6.5t-9.5 8.5t-9 7.5t-5 4.5q-8 5 -28.5 18.5t-44.5 29t-46 29t-31 19.5q-2 1 -7.5 3.5t-12 5.5t-12 5.5t-8.5 3.5q3 5 11.5 9.5t18.5 8.5z" />
    <glyph glyph-name="zcaron" unicode="&#x17e;" horiz-adv-x="534" 
d="M22 27q1 3 2 8.5t2.5 11.5t3 10.5t1.5 5.5l260 574l9 27q-17 2 -32 -5t-31 -4l-161 -45q-6 -2 -13.5 1t-13.5 9t-9 13t0 13q5 9 16.5 12.5t19.5 5.5q50 12 92.5 23t82.5 20.5t80 16.5t86 11q7 1 16.5 -0.5t17.5 -5t11.5 -11t-1.5 -18.5l-224 -548v-17q3 0 9 -0.5
t13.5 -0.5t13.5 0.5t9 0.5q5 1 21 3.5t37.5 6t45 8t45 8t37 6t20.5 3.5q19 3 24.5 -5.5t2.5 -20.5t-13 -23t-23 -13l-188 -36q-8 -6 -23 -12t-32 -10t-34 -5.5t-28 0.5l-116 -45q-13 -5 -21 1.5t-15 16.5v9zM105 985q5 5 15 5t16 -5q14 -24 30 -42.5t37 -35t48.5 -32.5
t64.5 -35q13 4 36 21.5t49 36t52.5 32t47.5 10.5v-14q-22 -12 -49 -29.5t-53.5 -36t-48.5 -37t-34 -33.5q-6 -7 -11.5 -19t-14.5 -19.5t-22 -6t-33 21.5l-6.5 6.5t-9.5 8.5t-9 7.5t-5 4.5q-8 5 -28.5 18.5t-44.5 29t-46 29t-31 19.5q-2 1 -7.5 3.5t-12 5.5t-12 5.5t-8.5 3.5
q3 5 11.5 9.5t18.5 8.5z" />
    <glyph glyph-name="florin" unicode="&#x192;" horiz-adv-x="482" 
d="M136 -187q21 8 39 15q14 5 26.5 10t12.5 6q2 17 1 60.5t-5 99.5t-10 118t-13 115.5t-15.5 91.5t-16.5 47q-3 3 -22 -3t-40 -10.5t-36 -3.5t-10 17q2 4 5 11t4 7l99 36q2 0 -1.5 27.5t-8 69.5t-8 93.5t-3 100t7 89t22.5 60.5q3 3 10 11t15.5 16.5t16.5 15.5t11 10
q9 -4 10.5 1.5t7.5 7.5q31 13 59 12t51.5 -13.5t41 -35t28.5 -52.5q-1 -5 -7.5 -15t-10.5 -12q-10 -5 -17 8.5t-17 30t-25 26.5t-40 -2q-10 -13 -14.5 -32.5t-5.5 -39.5t0 -39.5t2 -32.5q1 -14 4.5 -50t8 -75.5t8.5 -75.5t6 -50q10 4 27.5 11.5t37.5 14t41 10t38 0.5
q5 -1 7 -6.5t2 -11.5t-2.5 -11.5t-6.5 -6.5l-135 -45q-10 -3 -10.5 -23.5t3.5 -45t9 -46.5t7 -28l72 -473q-18 -6 -47 -18t-60.5 -24.5t-62.5 -21.5t-53.5 -8.5t-34 14.5t-3.5 48z" />
    <glyph glyph-name="circumflex" unicode="&#x2c6;" horiz-adv-x="833" 
d="M146 680q-9 7 -16.5 15.5t-10.5 19.5q2 2 7.5 7t11 10.5t10.5 11t7 7.5q8 11 27.5 38t41 57t40 56.5t25.5 37.5q1 1 4.5 8t8 15.5t8.5 16.5t6 13q12 26 21 35.5t16 7.5t12 -12.5t9 -24t7.5 -27.5t6.5 -23q11 -30 31 -66.5t43.5 -73t47.5 -70.5t44 -59v-27q-13 -4 -28 7.5
t-30.5 31.5t-31 44.5t-30 48t-26.5 41.5t-20 24q-33 -38 -57.5 -70t-43.5 -64.5t-33 -69.5t-27 -83q-5 -10 -13.5 -10t-13.5 10z" />
    <glyph glyph-name="caron" unicode="&#x2c7;" horiz-adv-x="833" 
d="M236 886q5 5 15 5t16 -5q14 -24 30 -42.5t37 -35t48.5 -32.5t64.5 -35q13 4 36 21.5t49 36t52.5 32t47.5 10.5v-14q-22 -12 -49 -29.5t-53.5 -36t-48.5 -37t-34 -33.5q-6 -7 -11.5 -19t-14.5 -19.5t-22 -6t-33 21.5l-6.5 6.5t-9.5 8.5t-9 7.5t-5 4.5q-8 5 -28.5 18.5
t-44.5 29t-46 29t-31 19.5q-2 1 -7.5 3.5t-12 5.5t-12 5.5t-8.5 3.5q3 5 11.5 9.5t18.5 8.5z" />
    <glyph glyph-name="ring" unicode="&#x2da;" horiz-adv-x="615" 
d="M261 537q-13 1 -21 5t-16 12q-26 27 -38.5 66t-7 77t32.5 69t80 41q26 5 53.5 -1t50.5 -18.5t38 -31t15 -39.5v-114q0 -2 -5 -10.5t-7 -11.5q-8 -9 -15.5 -17.5t-16.5 -16t-20 -12t-27 -4.5q-4 0 -17 0.5t-28.5 1.5t-30 2t-20.5 2zM333 581q24 -12 43.5 4t29 42.5
t5.5 55.5t-29 43q-3 1 -8 4.5t-5 4.5q-3 6 -2 9.5t2 6.5t0.5 6.5t-5.5 8.5q-7 7 -14 6.5t-13 -5t-10.5 -10.5t-5.5 -9q-2 -3 -6 -15.5t-6 -15.5q-2 -5 -3.5 -17t-2.5 -15q0 -9 -1 -23.5t1 -30t8.5 -29.5t21.5 -21z" />
    <glyph glyph-name="tilde" unicode="&#x2dc;" horiz-adv-x="659" 
d="M96 453l-76 161l12 12.5t29 30t35.5 35.5t31.5 30q2 2 12.5 9t14.5 9q27 4 46.5 5.5t36 -1.5t33 -10.5t36.5 -20.5q22 -14 35 -35.5t26 -43.5t29.5 -40t44.5 -25q11 -3 25.5 0.5t28.5 10t26 16t18 18.5q2 4 7.5 14t11 21.5t10.5 21.5t7 15q8 19 7.5 31.5t-2 23t0 22.5
t12.5 31q4 7 12 8.5t15.5 -1.5t13 -10t4.5 -15q-1 -11 -2 -31.5t-3.5 -43t-7.5 -44t-14 -34.5q-20 -28 -50 -51t-64.5 -34t-70 -7.5t-66.5 29.5l-13.5 13.5l-22.5 22.5l-22.5 22.5l-13.5 13.5q-7 6 -17 8.5t-19 0.5q-31 -27 -49.5 -56t-29 -61t-16.5 -67.5t-12 -75.5z" />
    <glyph glyph-name="quoteleft" unicode="&#x2018;" horiz-adv-x="283" 
d="M159 412q-2 -8 -7.5 -17.5t-19.5 -0.5q-40 35 -68.5 82t-37 97.5t6.5 99.5t62 88q37 31 67.5 38.5t54.5 -1.5t39.5 -30t21.5 -47t1.5 -53t-21 -48t-45.5 -32.5t-73 -5.5q-21 3 -34 13t-20 25t-9 33t0 37q-15 -44 -15.5 -80t11.5 -67.5t34.5 -61t51.5 -60.5q1 -2 1 -5
t-1 -4z" />
    <glyph glyph-name="quoteright" unicode="&#x2019;" horiz-adv-x="283" 
d="M132 469q-1 1 -1 4t1 5q28 31 50 60.5t33.5 61t11.5 67.5t-15 80q2 -19 0 -37t-9 -33t-20 -25t-33 -13q-43 -6 -71.5 5.5t-44.5 32.5t-20.5 48t1.5 53t21 47t38.5 30t53.5 1.5t66 -38.5q46 -39 61 -88t6.5 -99.5t-36.5 -97.5t-67 -82q-13 -9 -18.5 0.5t-7.5 17.5z" />
    <glyph glyph-name="quotedblleft" unicode="&#x201c;" horiz-adv-x="596" 
d="M67 310q-16 10 -24.5 28.5t-12 39t-3 41t3.5 34.5q6 37 19 80.5t35 80t54.5 58.5t79.5 15q8 -2 10 -12t-1 -15q-2 -3 -8.5 -6t-14.5 -5.5t-14.5 -4.5t-7.5 -2q-11 -8 -25 -24.5t-25.5 -36t-18 -39.5t-2.5 -35q34 4 62.5 -4.5t48.5 -25.5t29.5 -40t5 -47t-24.5 -47.5
t-59 -41.5q-21 -10 -33 -14.5t-21.5 -3.5t-21 7.5t-31.5 19.5zM354 319q-38 30 -45 71.5t4.5 84t36 82.5t49.5 67q11 12 24 20.5t26 10.5t25.5 -3t22.5 -19q1 -1 -6 -7.5t-18.5 -16t-25 -20t-25.5 -20t-21 -17t-11 -9.5q-1 -2 -4.5 -8.5t-8 -15.5t-8.5 -17.5t-6 -12.5
q-1 -1 -1 -4t1 -5q7 4 17 10t21.5 11t22.5 9t20 6q26 4 51 -6t42.5 -29.5t24.5 -45.5t-2 -53q-7 -22 -33.5 -40t-58.5 -28t-64 -10t-50 15z" />
    <glyph glyph-name="quotedblright" unicode="&#x201d;" horiz-adv-x="587" 
d="M139 408q-2 3 12.5 15.5t33 30.5t34.5 39t18 40q0 5 0.5 18t0.5 27.5t-0.5 27t-0.5 17.5q-37 -39 -70.5 -49t-60.5 -2t-46 30t-28.5 49t-8 53.5t16.5 44.5q18 21 30.5 33t26 17.5t31.5 6t46 -2.5q6 -1 13 -6t13.5 -11t11.5 -11.5t7 -7.5q36 -43 50 -97t7 -107t-35 -99.5
t-76 -73.5q-4 -2 -8.5 0t-8 6t-6.5 7.5t-3 4.5zM426 471q-1 1 -1 4t1 5q28 31 50 60.5t33.5 61t11.5 67.5t-15 80q2 -19 0 -37t-9 -33t-20 -25t-33 -13q-43 -6 -71.5 5.5t-44.5 32.5t-20.5 48t1.5 53t21 47t38.5 30t53.5 1.5t66 -38.5q46 -39 61 -88t6.5 -99.5t-36.5 -97.5
t-67 -82q-13 -9 -18.5 0.5t-7.5 17.5z" />
    <glyph glyph-name="ellipsis" unicode="&#x2026;" horiz-adv-x="672" 
d="M72 9q-40 28 -46.5 55.5t9 48.5t47.5 32t71 7q22 -15 31 -36t7.5 -42t-12 -40t-26.5 -30t-37 -11.5t-44 16.5zM296 9q-40 28 -46.5 55.5t9 48.5t47.5 32t71 7q22 -15 31 -36t7.5 -42t-12 -40t-26.5 -30t-37 -11.5t-44 16.5zM520 9q-40 28 -46.5 55.5t9 48.5t47.5 32t71 7
q22 -15 31 -36t7.5 -42t-12 -40t-26.5 -30t-37 -11.5t-44 16.5z" />
    <glyph glyph-name="trademark" unicode="&#x2122;" horiz-adv-x="1258" 
d="M350 -65q-2 1 -4 3.5t-2 3.5v184l-99 471q-3 14 -4.5 18t-13.5 2q-9 -2 -25 -5t-31.5 -6t-28 -6t-14.5 -3q-3 -1 -12 -5.5t-19 -9t-19 -8.5t-12 -5q-2 -1 -9 -1t-9 1q-6 11 0.5 20.5t18 16.5t24.5 11.5t19 6.5l295 68q6 -2 14 2t11 4q5 1 18.5 4.5t28 7t28 6t18.5 3.5
q11 -8 12 -15t-6 -18q-5 -2 -18.5 -4.5t-28 -6t-28 -6.5t-18.5 -4q-11 -3 -15 -16t-5 -28.5t0 -30t2 -21.5q2 -24 5.5 -65.5t7.5 -83t7.5 -73.5t4.5 -37q2 -14 10 -48t18 -72t19 -72t14 -47q4 -6 10 -20.5t10.5 -30t5 -28.5t-6.5 -16q-45 5 -85.5 -4.5t-75.5 -43.5
q-1 1 -5.5 3t-6.5 4zM589 29q-20 156 -38 267t-31.5 186t-21 119t-6 66t13.5 26.5t38 0.5q32 -33 69 -63t75 -59t75 -59.5t69 -63.5q4 4 14.5 25l23.5 47t25 51t19 39q5 10 17 35.5t25 55t24 55.5t15 37h64l160 -743q-20 -9 -26 -10.5t-8 -0.5t-6 2t-20 -2l-164 608
q-3 3 -9.5 -5t-21.5 -38t-41.5 -87t-68.5 -152q-19 12 -40.5 31.5t-43.5 39t-42 36t-36 22.5v-15l82 -314l37 -106q-9 -1 -32.5 -4t-49.5 -7t-49.5 -7.5t-32.5 -4.5q-5 -1 -14.5 -7.5t-18.5 -11t-16.5 -3.5t-8.5 14z" />
    <glyph glyph-name="fi" unicode="&#xfb01;" horiz-adv-x="598" 
d="M156 -54q2 17 2.5 53t-0.5 81t-3.5 93.5t-7.5 90.5t-11.5 72.5t-14.5 39.5q-3 3 -22 -3t-40 -10.5t-36 -3.5t-10 17q2 4 5 11t4 7l99 36q1 0 -2 27.5t-7.5 69.5t-8 93.5t-3 100t7 89t22.5 60.5q3 3 10 11t15.5 16.5t16.5 15.5t11 10q9 -4 10.5 1.5t7.5 7.5q31 13 59 12
t51.5 -13.5t41 -35t28.5 -52.5q-1 -5 -7.5 -15t-10.5 -12q-10 -5 -17 8.5t-17 30t-25 26.5t-40 -2q-10 -13 -14.5 -32.5t-5.5 -39.5t0 -39.5t2 -32.5q1 -14 4.5 -50t8 -75.5t8.5 -75.5t6 -50q10 4 27.5 11.5t37.5 14t41 10t38 0.5q5 -1 7 -6.5t2 -11.5t-2.5 -11.5t-6.5 -6.5
l-135 -45q-7 -2 -9.5 -10.5t-2.5 -17.5t1.5 -17t1.5 -9q1 -7 3.5 -21t5.5 -28t5.5 -25.5t3.5 -14.5l108 -287v-45q-11 -2 -38 -7t-57 -10.5t-56.5 -11t-37.5 -7.5t-17.5 -5t-12.5 -4t-11.5 3t-12.5 15v9zM351 68q2 5 6 17.5t8.5 27t8 27.5t4.5 18q4 23 10.5 61t12.5 75.5
t9.5 65.5t3.5 31l-18 116l9 18q12 3 27 10t30 11.5t28 3t22 -15.5q0 -13 1.5 -46t3 -70.5t2.5 -70.5t2 -46q1 -24 10 -52.5t18 -56t15 -51t2 -37.5q-42 -5 -84 -12t-77 -33q-5 -4 -15.5 -11t-11.5 -7q-5 1 -15.5 11.5t-11.5 15.5zM387 651q-10 21 -7 39.5t14 35.5t26.5 32
t29.5 27q11 8 20 -0.5t15.5 -26.5t9.5 -41t1.5 -44t-8.5 -35t-20 -14h-63q-2 0 -8.5 10.5t-9.5 16.5z" />
    <glyph glyph-name="fl" unicode="&#xfb02;" horiz-adv-x="748" 
d="M156 -54q2 17 2.5 53t-0.5 81t-3.5 93.5t-7.5 90.5t-11.5 72.5t-14.5 39.5q-3 3 -22 -3t-40 -10.5t-36 -3.5t-10 17q2 4 5 11t4 7l99 36q1 0 -2 27.5t-7.5 69.5t-8 93.5t-3 100t7 89t22.5 60.5q3 3 10 11t15.5 16.5t16.5 15.5t11 10q9 -4 10.5 1.5t7.5 7.5q31 13 59 12
t51.5 -13.5t41 -35t28.5 -52.5q-1 -5 -7.5 -15t-10.5 -12q-10 -5 -17 8.5t-17 30t-25 26.5t-40 -2q-10 -13 -14.5 -32.5t-5.5 -39.5t0 -39.5t2 -32.5q1 -14 4.5 -50t8 -75.5t8.5 -75.5t6 -50q10 4 27.5 11.5t37.5 14t41 10t38 0.5q5 -1 7 -6.5t2 -11.5t-2.5 -11.5t-6.5 -6.5
l-135 -45q-7 -2 -9.5 -10.5t-2.5 -17.5t1.5 -17t1.5 -9q1 -7 3.5 -21t5.5 -28t5.5 -25.5t3.5 -14.5l108 -287v-45q-11 -2 -38 -7t-57 -10.5t-56.5 -11t-37.5 -7.5t-17.5 -5t-12.5 -4t-11.5 3t-12.5 15v9zM525 -14q-29 5 -49.5 21.5t-34 39t-21.5 49t-12 51.5q-12 79 -14 155
t2.5 151t15 150t23.5 154q5 32 23 55.5t42.5 42.5t52 36t52.5 37q6 2 11 -1t7 -8q6 -29 3.5 -51t-9 -43t-15 -43t-15.5 -52q-30 -133 -39 -263t-6 -266q1 -6 12 -33t25.5 -57t29.5 -52.5t23 -18.5l54 27q1 1 5 -2t8.5 -7t8 -9t5.5 -9q2 -3 -2 -10t-7 -8q-4 -4 -15 -11
t-23.5 -14.5t-24.5 -13t-18 -6.5q-3 0 -15.5 0.5t-28 2l-31 3t-23.5 3.5z" />
    <glyph glyph-name="glyph100" horiz-adv-x="0" 
 />
  </font>
</defs>
</svg>
